<?xml version="1.0" encoding="UTF-8"?>
<svg version="1.1" xmlns="http://www.w3.org/2000/svg" width="1043" height="390">
<path d="M0 0 C1.51883789 0.00108765 1.51883789 0.00108765 3.06835938 0.00219727 C4.17308594 0.00026367 5.2778125 -0.00166992 6.41601562 -0.00366211 C7.56972656 0.02018555 8.7234375 0.0440332 9.91210938 0.06860352 C11.64267578 0.05216797 11.64267578 0.05216797 13.40820312 0.03540039 C21.87093031 0.1094616 21.87093031 0.1094616 24.23803711 2.39111328 C25.51232219 4.82229765 25.80458601 6.31135878 25.85351562 9.03735352 C25.87994141 9.86364258 25.90636719 10.68993164 25.93359375 11.54125977 C25.94712891 12.3959082 25.96066406 13.25055664 25.97460938 14.13110352 C26.00918624 15.8292118 26.05187029 17.52717861 26.10351562 19.22485352 C26.11584229 19.97444336 26.12816895 20.7240332 26.14086914 21.49633789 C26.45815351 23.9934887 27.01617246 25.53318285 28.41210938 27.63110352 C29.25573784 28.00590347 29.25573784 28.00590347 30.1164093 28.38827515 C33.39260184 30.16191495 35.78087387 32.73870816 38.37402344 35.3659668 C38.95982178 35.95147308 39.54562012 36.53697937 40.14916992 37.14022827 C42.08013776 39.07258707 44.00392885 41.01192868 45.92773438 42.95141602 C47.26679549 44.29420808 48.60629947 45.63655864 49.94622803 46.97848511 C53.46875367 50.50864069 56.9852314 54.04476157 60.50048828 57.58215332 C64.08979489 61.19193203 67.68478194 64.79604366 71.27929688 68.40063477 C78.32914255 75.47191909 85.37261275 82.54951765 92.41210938 89.63110352 C93.53844169 88.67668589 94.66322639 87.72044168 95.78735352 86.76342773 C96.41388321 86.23111542 97.0404129 85.6988031 97.68592834 85.15036011 C99.58699067 83.47718596 101.24427825 81.71382439 102.84960938 79.75610352 C103.70377604 78.71443685 104.55794271 77.67277018 105.41210938 76.63110352 C99.01168587 67.98898188 99.01168587 67.98898188 89.86572266 62.94946289 C84.66278945 62.30580105 79.49278992 62.38363045 74.26879883 62.74365234 C72.41210938 62.63110352 72.41210938 62.63110352 70.41210938 60.63110352 C69.95246247 56.33657144 70.08811158 52.00987534 70.09960938 47.69360352 C70.08349609 46.48768555 70.06738281 45.28176758 70.05078125 44.03930664 C70.05013672 42.88495117 70.04949219 41.7305957 70.04882812 40.54125977 C70.04584717 39.48044189 70.04286621 38.41962402 70.03979492 37.32666016 C70.41210938 34.63110352 70.41210938 34.63110352 71.5949707 32.78662109 C74.09259618 31.19838229 75.89999687 31.24294853 78.84960938 31.23266602 C79.90921875 31.22879883 80.96882812 31.22493164 82.06054688 31.22094727 C83.1665625 31.23254883 84.27257812 31.24415039 85.41210938 31.25610352 C87.07113281 31.23870117 87.07113281 31.23870117 88.76367188 31.22094727 C89.82328125 31.22481445 90.88289062 31.22868164 91.97460938 31.23266602 C93.43060547 31.2377417 93.43060547 31.2377417 94.91601562 31.24291992 C97.41210938 31.63110352 97.41210938 31.63110352 99.26171875 32.89233398 C100.7469047 35.13713329 100.59338945 36.20242371 100.25585938 38.84985352 C99.45537514 49.12088019 99.45537514 49.12088019 103.32714844 58.39672852 C108.04669686 63.63939376 113.29459821 68.24859104 118.79736328 72.65258789 C120.41210938 74.63110352 120.41210938 74.63110352 120.30688477 77.19384766 C119.03570438 80.65638347 116.74990389 82.97096876 114.22460938 85.56860352 C113.72791748 86.09421875 113.23122559 86.61983398 112.71948242 87.16137695 C109.34757233 90.71446595 105.92294182 94.21515843 102.41210938 97.63110352 C103.94201658 101.23672266 106.09907869 103.61702342 108.84960938 106.38110352 C109.63207031 107.18032227 110.41453125 107.97954102 111.22070312 108.80297852 C113.3204146 110.95139762 113.3204146 110.95139762 116.41210938 110.63110352 C116.41210938 109.97110352 116.41210938 109.31110352 116.41210938 108.63110352 C118.05664062 106.97485352 118.05664062 106.97485352 120.22460938 105.13110352 C120.93230469 104.52266602 121.64 103.91422852 122.36914062 103.28735352 C124.41210938 101.63110352 124.41210938 101.63110352 127.41210938 99.63110352 C138.30210937 110.52110352 149.19210937 121.41110352 160.41210938 132.63110352 C164.4409913 130.61666255 166.46278206 128.72726437 169.53710938 125.50610352 C171.12400164 123.84386919 172.74120115 122.20886006 174.41210938 120.63110352 C175.07210937 120.63110352 175.73210937 120.63110352 176.41210938 120.63110352 C173.12739665 116.67750384 169.73206 112.90066648 166.01757812 109.34594727 C165.42485107 108.77448975 164.83212402 108.20303223 164.22143555 107.61425781 C163.0222529 106.46556025 161.81280112 105.32748136 160.59301758 104.20068359 C158.91210938 102.58422852 158.91210938 102.58422852 156.41210938 99.63110352 C157.51329476 90.75974434 169.98523578 81.96248997 175.97460938 75.94360352 C177.17899658 74.73208618 177.17899658 74.73208618 178.40771484 73.49609375 C184.11511408 67.80448019 190.06583933 62.50731707 196.17553711 57.25585938 C211.28445965 45.09027888 211.28445965 45.09027888 218.22290039 28.02246094 C218.16455029 25.48716075 217.98119172 23.01108184 217.70898438 20.49047852 C217.41210938 16.63110352 217.41210938 16.63110352 218.55371094 14.91479492 C221.07369924 13.17410936 222.80052644 13.24329529 225.84960938 13.23266602 C226.90921875 13.22879883 227.96882812 13.22493164 229.06054688 13.22094727 C230.1665625 13.23254883 231.27257812 13.24415039 232.41210938 13.25610352 C234.07113281 13.23870117 234.07113281 13.23870117 235.76367188 13.22094727 C236.82328125 13.22481445 237.88289062 13.22868164 238.97460938 13.23266602 C240.43060547 13.2377417 240.43060547 13.2377417 241.91601562 13.24291992 C244.41210938 13.63110352 244.41210938 13.63110352 246.22924805 14.80249023 C247.88601439 17.36372447 247.78433082 19.25058833 247.77539062 22.28735352 C247.77442383 23.94444336 247.77442383 23.94444336 247.7734375 25.63500977 C247.75732422 26.7887207 247.74121094 27.94243164 247.72460938 29.13110352 C247.72783203 30.28481445 247.73105469 31.43852539 247.734375 32.62719727 C247.67916111 41.23052592 247.67916111 41.23052592 245.41210938 44.63110352 C243.5221405 44.81651306 243.5221405 44.81651306 241.2097168 44.59570312 C232.00314817 44.10112486 224.85891042 44.14740356 217.6946106 50.48086548 C214.22129667 53.92856446 210.95234419 57.51671597 207.72460938 61.19360352 C205.68512219 63.40767715 203.63126335 65.60771636 201.57597351 67.80711365 C200.31327189 69.16969472 199.06289388 70.54382339 197.82649231 71.93031311 C196.39278628 73.53186064 194.90720523 75.08670854 193.41210938 76.63110352 C192.75210938 76.63110352 192.09210938 76.63110352 191.41210938 76.63110352 C191.15558594 77.22536133 190.8990625 77.81961914 190.63476562 78.43188477 C189.29501372 80.84172605 187.97478508 82.0798234 185.84960938 83.81860352 C181.09934559 87.82800048 176.75947688 92.19316585 172.41210938 96.63110352 C173.94458986 100.21513047 176.07956948 102.65960485 178.78710938 105.44360352 C179.55796875 106.25442383 180.32882812 107.06524414 181.12304688 107.90063477 C183.18177247 109.84917489 183.18177247 109.84917489 185.26507568 109.50906372 C188.18985845 108.31306811 189.83332217 106.5613941 192.05371094 104.31420898 C192.96856262 103.39590302 193.88341431 102.47759705 194.82598877 101.53146362 C195.81831381 100.52048117 196.81056034 99.50942166 197.80273438 98.49829102 C198.83087088 97.46201016 199.85975259 96.42646817 200.88934326 95.39163208 C203.60202843 92.66182318 206.30603944 89.92358875 209.00787354 87.18304443 C213.3153706 82.81642518 217.63535661 78.46217564 221.9562912 74.10886002 C223.45452347 72.59683077 224.94876963 71.08095301 226.44244385 69.56442261 C231.01216085 64.94662369 235.61249142 60.4538193 240.54782104 56.22796631 C245.93226386 51.61590268 251.08423695 46.74762365 256.20532227 41.84716797 C257.63172587 40.49774436 259.07391439 39.16480822 260.53149414 37.84912109 C270.71772722 28.85037021 270.71772722 28.85037021 274.64735413 16.33161926 C274.66520249 14.03644858 274.56945077 11.77813627 274.42993164 9.48779297 C274.41092717 5.37527738 274.6264959 3.64190894 277.41210938 0.63110352 C280 0 280 0 283.06835938 0.00219727 C284.72544922 -0.00070313 284.72544922 -0.00070313 286.41601562 -0.00366211 C287.56972656 0.02018555 288.7234375 0.0440332 289.91210938 0.06860352 C291.06582031 0.05764648 292.21953125 0.04668945 293.40820312 0.03540039 C301.8577889 0.10934659 301.8577889 0.10934659 304.24072266 2.35229492 C305.59775515 4.99225768 305.7990248 6.69974241 305.81054688 9.65844727 C305.81441406 10.61557617 305.81828125 11.57270508 305.82226562 12.55883789 C305.80486328 14.04867187 305.80486328 14.04867187 305.78710938 15.56860352 C305.79871094 16.55795898 305.8103125 17.54731445 305.82226562 18.56665039 C305.81839844 19.52506836 305.81453125 20.48348633 305.81054688 21.47094727 C305.80716309 22.34098389 305.8037793 23.21102051 305.80029297 24.10742188 C305.28248185 27.47384549 304.7980732 29.14126713 302.41210938 31.63110352 C300.12999279 31.84635263 297.99793643 31.64515016 295.71452332 31.45022583 C288.15565766 30.88912899 282.24949088 31.45255222 276.16357422 36.23754883 C270.78890924 41.07564471 265.94419547 46.39641719 261.09960938 51.75610352 C259.38902677 53.57583774 257.67355415 55.39098815 255.953125 57.20141602 C253.5261797 59.75809147 251.10789403 62.31878359 248.72599792 64.91751099 C244.74821517 69.2561487 240.68041646 73.27562846 236.20002747 77.09375 C233.84911188 79.11520074 231.65881977 81.27156874 229.47460938 83.47094727 C228.64316406 84.30561523 227.81171875 85.1402832 226.95507812 86.00024414 C226.11589844 86.84780273 225.27671875 87.69536133 224.41210938 88.56860352 C223.54199219 89.44323242 222.671875 90.31786133 221.77539062 91.21899414 C219.65197388 93.35407801 217.5309456 95.49147557 215.41210938 97.63110352 C218.59242059 101.39691412 221.76352763 105.1154934 225.28710938 108.56860352 C225.88265625 109.15512695 226.47820312 109.74165039 227.09179688 110.34594727 C227.5275 110.77004883 227.96320313 111.19415039 228.41210938 111.63110352 C234.33424811 108.98063583 238.90583077 105.08886931 242.41210938 99.63110352 C243.63945215 94.41252733 243.43860023 89.01479621 243.13842773 83.69238281 C243.53714135 80.68940415 244.51505284 78.98213716 246.41210938 76.63110352 C249 76 249 76 252.06835938 76.00219727 C253.72544922 75.99929687 253.72544922 75.99929687 255.41601562 75.99633789 C256.56972656 76.02018555 257.7234375 76.0440332 258.91210938 76.06860352 C260.06582031 76.05764648 261.21953125 76.04668945 262.40820312 76.03540039 C270.88454362 76.10958073 270.88454362 76.10958073 273.24511719 78.44311523 C274.96143128 81.66102463 274.77178137 84.76869406 274.66210938 88.31860352 C274.64970215 89.03032715 274.63729492 89.74205078 274.62451172 90.4753418 C274.30289183 104.74032106 274.30289183 104.74032106 271.41210938 107.63110352 C269.49536133 107.71191406 269.49536133 107.71191406 267.15039062 107.51782227 C255.75584058 106.89010787 255.75584058 106.89010787 245.89648438 111.88891602 C242.67740623 115.02741067 239.81724076 118.43243165 236.97509766 121.91088867 C234.72309344 124.38943002 232.2904971 125.94227573 229.41210938 127.63110352 C223.83508472 124.28840735 219.56503225 120.01546942 215.03710938 115.38110352 C214.30105469 114.63602539 213.565 113.89094727 212.80664062 113.12329102 C211.0038089 111.29704589 209.20583959 109.46628146 207.41210938 107.63110352 C203.77907853 109.32696478 201.46661892 111.3691084 198.66210938 114.25610352 C197.86289062 115.07336914 197.06367187 115.89063477 196.24023438 116.73266602 C195.63695312 117.35915039 195.03367187 117.98563477 194.41210938 118.63110352 C195.9899186 122.34155599 198.31914185 124.93016735 201.03710938 127.88110352 C201.854375 128.77313477 202.67164063 129.66516602 203.51367188 130.58422852 C204.14015625 131.25969727 204.76664063 131.93516602 205.41210938 132.63110352 C201.48296473 141.2156104 193.40757185 147.73908577 186.78710938 154.25610352 C181.75467826 159.21063322 176.80361399 164.09243035 172.41210938 169.63110352 C173.99878516 173.53396118 176.54561419 175.96631333 179.53710938 178.88110352 C180.4471875 179.77313477 181.35726562 180.66516602 182.29492188 181.58422852 C182.99359375 182.25969727 183.69226563 182.93516602 184.41210938 183.63110352 C187.66418029 182.21371863 189.72572005 180.5058394 192.16210938 177.94360352 C195.51569276 174.49599443 198.99396938 171.29649284 202.65039062 168.17407227 C204.44951783 166.67722383 204.44951783 166.67722383 205.89257812 164.86938477 C207.41210938 163.63110352 207.41210938 163.63110352 209.17250061 163.72058105 C212.43014508 165.04499026 214.43072706 167.42361551 216.76538086 169.96118164 C217.84918777 171.11067919 218.93313293 172.2600464 220.01719666 173.40930176 C220.87460103 174.32660316 220.87460103 174.32660316 221.74932671 175.26243591 C224.80273126 178.51446447 227.90546835 181.71905666 231 184.93188477 C234.92709605 189.01410985 238.83840831 193.10816328 242.69458008 197.25756836 C257.54694993 215.03404195 257.54694993 215.03404195 277.79493713 223.68591309 C280.43887995 223.60398667 282.95209379 223.32603289 285.56469727 222.92602539 C286.83434326 222.82870117 288.10398926 222.73137695 289.41210938 222.63110352 C292.37378126 225.7232958 292.79429091 228.61154031 292.81054688 232.79125977 C292.81441406 233.74967773 292.81828125 234.7080957 292.82226562 235.69555664 C292.80486328 237.17958984 292.80486328 237.17958984 292.78710938 238.69360352 C292.79871094 239.68682617 292.8103125 240.68004883 292.82226562 241.70336914 C292.81839844 242.66049805 292.81453125 243.61762695 292.81054688 244.60375977 C292.80716309 245.47266846 292.8037793 246.34157715 292.80029297 247.23681641 C292.31564649 250.22607934 291.62706921 251.55939685 289.41210938 253.63110352 C286.80834961 254.10107422 286.80834961 254.10107422 283.72070312 254.05688477 C282.61146484 254.04850586 281.50222656 254.04012695 280.359375 254.03149414 C279.20115234 254.00249023 278.04292969 253.97348633 276.84960938 253.94360352 C275.68751953 253.93393555 274.52542969 253.92426758 273.328125 253.91430664 C264.7489388 253.79951823 264.7489388 253.79951823 262.41210938 252.63110352 C261.41210938 249.63110352 261.41210938 249.63110352 261.99438477 246.12011719 C262.90025674 239.12479178 262.34888178 233.44704796 258.27020264 227.51690674 C251.8180182 219.58623048 244.15847279 212.64873304 236.70178223 205.68481445 C233.5990585 202.76797195 230.54817283 199.79791356 227.4921875 196.83227539 C221.51426306 191.0460109 215.48243469 185.32035026 209.41210938 179.63110352 C208.12580869 180.58545488 206.8409237 181.54171454 205.55664062 182.4987793 C204.84096924 183.03109161 204.12529785 183.56340393 203.38793945 184.11184692 C201.22864694 185.77217158 199.29799934 187.5416348 197.41210938 189.50610352 C196.83460938 190.10165039 196.25710938 190.69719727 195.66210938 191.31079102 C195.24960937 191.74649414 194.83710937 192.18219727 194.41210938 192.63110352 C195.12906982 193.34733887 195.84603027 194.06357422 196.5847168 194.80151367 C199.27955918 197.49629689 201.9652338 200.20010514 204.65039062 202.90454102 C206.15870167 204.42023598 207.66749987 205.93544415 209.17651367 207.45043945 C210.20411508 208.48306462 211.23081652 209.51658619 212.2565918 210.55102539 C217.48710031 215.82435875 222.73605373 220.99543521 228.38549805 225.82495117 C233.7175635 230.57698348 238.62263341 235.80877997 243.63476562 240.89282227 C247.45921446 244.75067241 251.25957765 248.57458844 255.38867188 252.10766602 C261.16259556 257.05131409 266.39570493 262.55933356 271.72851562 267.96801758 C273.11843528 269.37592666 274.51131915 270.7809075 275.90429688 272.18579102 C276.72269043 273.01578613 277.54108398 273.84578125 278.38427734 274.70092773 C281.29543438 277.47188939 282.96569409 277.76141495 286.87695312 277.87719727 C287.75931641 277.91006836 288.64167969 277.94293945 289.55078125 277.97680664 C291.41264046 278.0378725 293.27462681 278.09518075 295.13671875 278.14868164 C296.02037109 278.1828418 296.90402344 278.21700195 297.81445312 278.25219727 C298.62390381 278.27725342 299.43335449 278.30230957 300.26733398 278.328125 C302.41210938 278.63110352 302.41210938 278.63110352 305.41210938 280.63110352 C305.78442383 283.30493164 305.78442383 283.30493164 305.77539062 286.66235352 C305.77474609 287.86504883 305.77410156 289.06774414 305.7734375 290.30688477 C305.75732422 291.56887695 305.74121094 292.83086914 305.72460938 294.13110352 C305.72944336 296.0240918 305.72944336 296.0240918 305.734375 297.95532227 C305.67890941 307.36430348 305.67890941 307.36430348 303.41210938 309.63110352 C299.09653538 310.09016372 294.74926783 309.95511402 290.41210938 309.94360352 C288.59066406 309.96777344 288.59066406 309.96777344 286.73242188 309.99243164 C285.57484375 309.99307617 284.41726563 309.9937207 283.22460938 309.99438477 C282.15855469 309.99736572 281.0925 310.00034668 279.99414062 310.00341797 C279.14207031 309.8805542 278.29 309.75769043 277.41210938 309.63110352 C275.27606629 306.42703889 275.1700203 305.63509604 275.21679688 301.96313477 C275.22324219 301.07045898 275.2296875 300.1777832 275.23632812 299.25805664 C275.25308594 298.32928711 275.26984375 297.40051758 275.28710938 296.44360352 C275.29613281 295.50323242 275.30515625 294.56286133 275.31445312 293.59399414 C275.33801881 291.27277384 275.37091821 288.95206708 275.41210938 286.63110352 C274.8671582 286.41284912 274.32220703 286.19459473 273.76074219 285.96972656 C270.6340235 284.18762692 268.32311136 281.76911971 265.83398438 279.21313477 C265.30371643 278.67766525 264.77344849 278.14219574 264.22711182 277.59049988 C262.53393882 275.879566 260.84758729 274.16211583 259.16210938 272.44360352 C256.95201716 270.19668711 254.73870722 267.9530153 252.52148438 265.71313477 C251.71481323 264.89807968 251.71481323 264.89807968 250.8918457 264.06655884 C247.51928353 260.68117447 244.04183805 257.49275959 240.40136719 254.39550781 C235.07281747 249.66926471 230.18757691 244.43921764 225.18945312 239.36938477 C216.35131836 230.35587446 216.35131836 230.35587446 206.41210938 222.63110352 C202.45210937 226.59110352 198.49210938 230.55110352 194.41210938 234.63110352 C197.36708875 240.54106226 201.29184485 245.75469677 207.41210938 248.63110352 C213.6617957 249.91490726 220.08362169 249.72689981 226.43188477 249.47094727 C228.41210938 249.63110352 228.41210938 249.63110352 230.41210938 251.63110352 C231.76938286 256.77885786 231.67056674 261.96713103 231.72460938 267.25610352 C231.75361328 268.21000977 231.78261719 269.16391602 231.8125 270.14672852 C231.82087891 271.06196289 231.82925781 271.97719727 231.83789062 272.92016602 C231.8597644 274.16854248 231.8597644 274.16854248 231.88208008 275.44213867 C231.41210938 277.63110352 231.41210938 277.63110352 229.73364258 279.40283203 C226.90789 280.89787475 225.03063411 281.00416647 221.84179688 280.99438477 C220.25044922 280.99341797 220.25044922 280.99341797 218.62695312 280.99243164 C216.97373047 280.96826172 216.97373047 280.96826172 215.28710938 280.94360352 C214.17722656 280.94682617 213.06734375 280.95004883 211.92382812 280.95336914 C203.67914264 280.89813678 203.67914264 280.89813678 201.41210938 278.63110352 C201.16015625 276.61914062 201.16015625 276.61914062 201.13085938 274.15844727 C201.0501217 263.87824543 201.0501217 263.87824543 197.41210938 254.55688477 C194.85775373 252.33379712 192.24397339 250.48497288 189.41210938 248.63110352 C187.52953251 247.08165754 185.67426759 245.49835454 183.84960938 243.88110352 C183.02332031 243.18500977 182.19703125 242.48891602 181.34570312 241.77172852 C179.08430487 239.26820075 178.39122941 238.00843856 178.41210938 234.63110352 C179.93164062 232.30688477 179.93164062 232.30688477 182.22460938 229.94360352 C183.454375 228.65776367 183.454375 228.65776367 184.70898438 227.34594727 C186.04703125 226.00209961 186.04703125 226.00209961 187.41210938 224.63110352 C188.35497078 223.67422307 189.29767867 222.71719134 190.24023438 221.76000977 C192.61564013 219.36763682 195.00573346 216.99226568 197.41210938 214.63110352 C196.03342407 211.53247417 194.44187739 209.38986919 192.03710938 207.00610352 C191.451875 206.41571289 190.86664062 205.82532227 190.26367188 205.21704102 C188.20944885 203.32794125 188.20944885 203.32794125 184.41210938 201.63110352 C181.11210938 204.93110352 177.81210937 208.23110352 174.41210938 211.63110352 C171.09138112 209.97073939 169.37750698 208.86760523 166.80273438 206.40063477 C166.12984375 205.7619043 165.45695313 205.12317383 164.76367188 204.46508789 C163.72339844 203.46445312 163.72339844 203.46445312 162.66210938 202.44360352 C157.35264807 197.37135198 151.9640086 192.43690067 146.41210938 187.63110352 C144.74332613 186.15432516 143.07619178 184.67567691 141.41210938 183.19360352 C140.64898438 182.51426758 139.88585937 181.83493164 139.09960938 181.13500977 C138.54273438 180.6387207 137.98585938 180.14243164 137.41210938 179.63110352 C133.70165691 181.20891274 131.11304554 183.538136 128.16210938 186.25610352 C127.27007813 187.07336914 126.37804687 187.89063477 125.45898438 188.73266602 C124.78351563 189.35915039 124.10804688 189.98563477 123.41210938 190.63110352 C124.82633934 193.88607725 126.51255765 195.90729407 129.10742188 198.31079102 C129.82285156 198.99270508 130.53828125 199.67461914 131.27539062 200.37719727 C132.78346781 201.79671724 134.29913874 203.20821263 135.82226562 204.61157227 C136.53511719 205.29606445 137.24796875 205.98055664 137.98242188 206.68579102 C138.64000488 207.29922363 139.29758789 207.91265625 139.97509766 208.54467773 C141.99647413 211.47955428 141.87218474 213.11264015 141.41210938 216.63110352 C139.69287956 218.81001994 138.13806502 220.46826772 136.10375977 222.30322266 C135.25760857 223.10249931 135.25760857 223.10249931 134.3943634 223.91792297 C133.16933186 225.07332071 131.93804096 226.22210965 130.70131111 227.36497688 C128.73680031 229.187566 126.79836886 231.03430817 124.86582947 232.89073181 C119.37082408 238.16650858 113.85761798 243.4207676 108.26782227 248.59619141 C90.20351328 263.59204538 90.20351328 263.59204538 81.2698822 284.03892517 C81.34201419 286.67964681 81.60019472 289.18755126 81.99975586 291.796875 C82.41210938 295.63110352 82.41210938 295.63110352 80.81103516 297.65722656 C78.06779932 298.77088092 76.05579921 299.01869534 73.09570312 299.02954102 C72.08443359 299.0334082 71.07316406 299.03727539 70.03125 299.04125977 C68.98130859 299.0296582 67.93136719 299.01805664 66.84960938 299.00610352 C65.79580078 299.01770508 64.74199219 299.02930664 63.65625 299.04125977 C62.64626953 299.03739258 61.63628906 299.03352539 60.59570312 299.02954102 C59.67329834 299.02615723 58.75089355 299.02277344 57.80053711 299.01928711 C55.41210938 298.63110352 55.41210938 298.63110352 53.60864258 297.47558594 C51.89898149 294.84010552 52.05646134 292.84504899 52.08398438 289.72094727 C52.08914063 288.5665918 52.09429688 287.41223633 52.09960938 286.22290039 C52.12023437 285.01698242 52.14085937 283.81106445 52.16210938 282.56860352 C52.16726563 281.35881836 52.17242188 280.1490332 52.17773438 278.90258789 C52.25789587 269.93953052 52.25789587 269.93953052 53.41210938 267.63110352 C55.21071411 267.97637085 55.21071411 267.97637085 57.0456543 268.32861328 C64.66117143 269.19068718 71.1711078 268.79412517 77.68951416 264.44378662 C85.82957362 257.93160984 92.88526053 250.08017359 99.95928955 242.45721436 C102.9192945 239.29048085 105.93867824 236.18144386 108.953125 233.06665039 C114.83143744 226.97553014 120.64204696 220.82485948 126.41210938 214.63110352 C124.6301025 210.7808236 122.33535532 208.35118931 119.28710938 205.38110352 C117.92199219 204.04305664 117.92199219 204.04305664 116.52929688 202.67797852 C115.830625 202.00250977 115.13195312 201.32704102 114.41210938 200.63110352 C109.20407846 204.98301216 104.35497345 209.55995041 99.58081055 214.38061523 C98.45755875 215.50846687 98.45755875 215.50846687 97.31161499 216.65910339 C95.69766368 218.28017031 94.08484117 219.90236172 92.47304344 221.52556992 C89.92490217 224.09117376 87.37316947 226.65315466 84.82038879 229.21414185 C77.56714615 236.4917878 70.31964599 243.7751332 63.07641602 251.06274414 C58.63758485 255.52827125 54.19396549 259.98898616 49.74730873 264.44672012 C48.0528671 266.14738722 46.36032745 267.84995148 44.66969872 269.55440903 C42.31642842 271.92677476 39.95717404 274.29302823 37.59643555 276.65795898 C36.89461655 277.36853958 36.19279755 278.07912018 35.4697113 278.81123352 C34.82918823 279.45045242 34.18866516 280.08967133 33.5287323 280.7482605 C32.97184314 281.30829206 32.41495398 281.86832363 31.84118938 282.44532585 C30.41210938 283.63110352 30.41210938 283.63110352 28.41210938 283.63110352 C26.7512955 286.55168834 26.15860209 288.68752009 26.10351562 292.03735352 C26.07837891 292.86364258 26.05324219 293.68993164 26.02734375 294.54125977 C25.99218903 296.26774717 25.96093855 297.9943185 25.93359375 299.72094727 C25.90716797 300.54723633 25.88074219 301.37352539 25.85351562 302.22485352 C25.84006104 302.97444336 25.82660645 303.7240332 25.81274414 304.49633789 C25.28383303 307.31461867 24.48008665 308.640271 22.41210938 310.63110352 C19.82421875 311.14868164 19.82421875 311.14868164 16.75585938 311.16235352 C15.65113281 311.16750977 14.54640625 311.17266602 13.40820312 311.17797852 C12.25449219 311.16250977 11.10078125 311.14704102 9.91210938 311.13110352 C8.75839844 311.14657227 7.6046875 311.16204102 6.41601562 311.17797852 C5.31128906 311.17282227 4.2065625 311.16766602 3.06835938 311.16235352 C1.54952148 311.15558594 1.54952148 311.15558594 0 311.14868164 C-2.58789062 310.63110352 -2.58789062 310.63110352 -4.41650391 308.91210938 C-5.7727937 306.27104736 -5.97480363 304.56308442 -5.98632812 301.60375977 C-5.99019531 300.64663086 -5.9940625 299.68950195 -5.99804688 298.70336914 C-5.98644531 297.71014648 -5.97484375 296.71692383 -5.96289062 295.69360352 C-5.97449219 294.70424805 -5.98609375 293.71489258 -5.99804688 292.69555664 C-5.99417969 291.73713867 -5.9903125 290.7787207 -5.98632812 289.79125977 C-5.98294434 288.92122314 -5.97956055 288.05118652 -5.97607422 287.15478516 C-5.45681599 283.77895353 -4.886048 282.21293224 -2.58789062 279.63110352 C-0.23315204 279.30324403 1.96401945 279.42337133 4.33763599 279.54504299 C12.17698307 279.9437077 18.46547835 279.61260784 24.68204975 274.50669003 C28.02150996 271.38721069 31.14515732 268.10854682 34.24414062 264.75219727 C35.62214259 263.33679545 37.00469943 261.92581543 38.39152527 260.51905823 C41.99362215 256.84134343 45.53153715 253.10769517 49.05847168 249.35803223 C52.68239249 245.52784711 56.36511434 241.75510191 60.04296875 237.97680664 C67.22398664 230.58262626 74.33836965 223.12787765 81.41210938 215.63110352 C79.71624811 211.99807267 77.67410449 209.68561306 74.78710938 206.88110352 C73.96984375 206.08188477 73.15257812 205.28266602 72.31054688 204.45922852 C71.6840625 203.85594727 71.05757812 203.25266602 70.41210938 202.63110352 C69.34724083 203.52412008 68.28535896 204.42069822 67.22460938 205.31860352 C66.63292969 205.8174707 66.04125 206.31633789 65.43164062 206.83032227 C64.76519531 207.42458008 64.09875 208.01883789 63.41210938 208.63110352 C62.52136719 209.32719727 61.630625 210.02329102 60.71289062 210.74047852 C57.47038918 214.81424943 57.74083985 218.13094637 57.78710938 223.19360352 C57.78710938 224.88245579 57.77453542 226.57136523 57.74804688 228.26000977 C57.75368652 229.00323486 57.75932617 229.74645996 57.76513672 230.51220703 C57.29276915 233.34739245 56.48419154 234.6385257 54.41210938 236.63110352 C50.29682969 237.47939466 46.10455578 237.23342005 41.91210938 237.19360352 C40.75839844 237.21745117 39.6046875 237.24129883 38.41601562 237.26586914 C37.31128906 237.26393555 36.2065625 237.26200195 35.06835938 237.26000977 C34.05580078 237.26073486 33.04324219 237.26145996 32 237.26220703 C29.41210938 236.63110352 29.41210938 236.63110352 27.57910156 234.29174805 C24.39319867 227.02815605 25.71998136 215.3574239 27.41210938 207.63110352 C29.41210938 205.63110352 29.41210938 205.63110352 31.29711914 205.58203125 C32.05822998 205.65881104 32.81934082 205.73559082 33.60351562 205.81469727 C41.99879088 206.29429161 48.8329578 206.60378124 55.40820312 200.75219727 C59.07490878 197.07929719 62.43392634 193.16019387 65.6171875 189.06225586 C67.41210938 187.63110352 67.41210938 187.63110352 70.01635742 187.83691406 C73.6914362 189.05519912 75.61593533 190.96498408 78.41210938 193.63110352 C78.41210938 194.29110352 78.41210938 194.95110352 78.41210938 195.63110352 C78.98445312 195.87602539 79.55679688 196.12094727 80.14648438 196.37329102 C82.79235339 197.8422045 84.56064077 199.58458595 86.66210938 201.75610352 C87.36851562 202.48055664 88.07492187 203.20500977 88.80273438 203.95141602 C89.599375 204.78286133 89.599375 204.78286133 90.41210938 205.63110352 C95.3314684 201.51490515 99.93858894 197.22699989 104.41210938 192.63110352 C103.45481022 191.50522337 102.49623043 190.38043202 101.53710938 189.25610352 C101.0034375 188.62961914 100.46976563 188.00313477 99.91992188 187.35766602 C98.7977893 186.07273701 97.61838962 184.83738376 96.41210938 183.63110352 C95.34204102 180.99389648 95.34204102 180.99389648 95.41210938 177.63110352 C97.3934135 174.64203279 99.94240262 172.28846337 102.53320312 169.82641602 C103.26708755 169.10243622 104.00097198 168.37845642 104.75709534 167.63253784 C107.10535999 165.32346421 109.47677712 163.03989756 111.84960938 160.75610352 C113.44559631 159.19522344 115.04001831 157.63274149 116.6328125 156.06860352 C120.54127445 152.23732955 124.46902881 148.42672161 128.41210938 144.63110352 C127.06483677 141.83540188 125.81504704 139.79142549 123.59179688 137.61547852 C123.05683594 137.08696289 122.521875 136.55844727 121.97070312 136.01391602 C121.41511719 135.47508789 120.85953125 134.93625977 120.28710938 134.38110352 C119.44212891 133.5496582 119.44212891 133.5496582 118.58007812 132.70141602 C117.1952491 131.34005867 115.80427733 129.98495492 114.41210938 128.63110352 C110.77494947 131.68687597 107.22605573 134.76142932 103.84179688 138.09594727 C103.25527344 138.66764648 102.66875 139.2393457 102.06445312 139.82836914 C100.86185776 141.00585537 99.6693571 142.19372593 98.48632812 143.39086914 C97.90238281 143.95354492 97.3184375 144.5162207 96.71679688 145.09594727 C96.20101074 145.60762451 95.68522461 146.11930176 95.15380859 146.64648438 C93.41210938 147.63110352 93.41210938 147.63110352 91.1516571 147.5315094 C87.45308067 146.31589999 85.40219544 144.00388899 82.83764648 141.20922852 C82.03617943 140.36285828 82.03617943 140.36285828 81.21852112 139.49938965 C80.0594354 138.27493516 78.90454639 137.0464974 77.7534008 135.8145752 C75.28734254 133.18602429 72.78431463 130.59397935 70.28294468 127.99908447 C65.63189603 123.17324417 60.99667812 118.33451565 56.42651367 113.43188477 C53.24033167 110.01686692 50.00780179 106.65200825 46.74151802 103.31359863 C45.51472032 102.04210598 44.30523341 100.75364112 43.11524773 99.44763184 C36.82182417 92.55709423 32.03472055 88.16058033 22.42221165 87.55914307 C19.05726795 87.51297006 15.71492645 87.60850131 12.35907841 87.86114502 C10.41210938 87.63110352 10.41210938 87.63110352 8.67640591 86.28887939 C6.83154308 83.86985109 7.0237398 81.98756022 7.01367188 78.97485352 C7.00980469 77.87012695 7.0059375 76.76540039 7.00195312 75.62719727 C7.01355469 74.47348633 7.02515625 73.31977539 7.03710938 72.13110352 C7.02550781 70.97739258 7.01390625 69.82368164 7.00195312 68.63500977 C7.00582031 67.5302832 7.0096875 66.42555664 7.01367188 65.28735352 C7.01705566 64.27479492 7.02043945 63.26223633 7.02392578 62.21899414 C7.41210938 59.63110352 7.41210938 59.63110352 8.58129883 57.80029297 C11.15326462 56.15778808 13.06525778 56.25893355 16.10351562 56.26782227 C17.21275391 56.2684668 18.32199219 56.26911133 19.46484375 56.26977539 C21.20217773 56.29394531 21.20217773 56.29394531 22.97460938 56.31860352 C24.13669922 56.31538086 25.29878906 56.3121582 26.49609375 56.30883789 C35.14518992 56.36418406 35.14518992 56.36418406 37.41210938 58.63110352 C37.24638428 59.89462646 37.08065918 61.15814941 36.90991211 62.45996094 C35.98651841 70.01825739 36.26206518 76.40522402 40.59063721 82.89971924 C47.10513348 91.04301523 54.96013392 98.10155851 62.58599854 105.17828369 C65.75273204 108.13828864 68.86176903 111.15767238 71.9765625 114.17211914 C78.06768275 120.05043158 84.21835341 125.8610411 90.41210938 131.63110352 C94.67194825 130.06119931 97.0686954 128.30332707 100.22460938 125.00610352 C101.01480469 124.18883789 101.805 123.37157227 102.61914062 122.52954102 C103.21082031 121.90305664 103.8025 121.27657227 104.41210938 120.63110352 C103.03583436 117.5631635 101.44899876 115.38795046 99.12394714 112.96784973 C98.44475723 112.25700729 97.76556732 111.54616486 97.0657959 110.81378174 C96.32051636 110.04427185 95.57523682 109.27476196 94.80737305 108.48193359 C94.02151321 107.66365585 93.23565338 106.84537811 92.42597961 106.00230408 C85.15854911 98.45412285 77.82898343 90.96562519 70.47918224 83.49767017 C65.05900709 77.98863014 59.67382918 72.44966218 54.33061045 66.86592942 C50.10027353 62.45184072 45.81511555 58.09457294 41.50994301 53.75351524 C39.69812487 51.9099743 37.90357368 50.04928477 36.12776756 48.17103004 C24.94654525 35.9391172 24.94654525 35.9391172 9.66653156 31.2802 C6.95017768 31.29708818 4.28962734 31.47480583 1.58320618 31.69364929 C-0.70109177 31.83262444 -0.70109177 31.83262444 -2.58789062 31.63110352 C-5.38390523 28.47752379 -5.96924679 25.8731766 -5.98632812 21.72485352 C-5.99019531 20.81606445 -5.9940625 19.90727539 -5.99804688 18.97094727 C-5.98644531 18.03379883 -5.97484375 17.09665039 -5.96289062 16.13110352 C-5.97449219 15.19395508 -5.98609375 14.25680664 -5.99804688 13.29125977 C-5.99417969 12.3824707 -5.9903125 11.47368164 -5.98632812 10.53735352 C-5.98294434 9.71557617 -5.97956055 8.89379883 -5.97607422 8.04711914 C-5.31241272 3.91655675 -4.26331819 1.03968656 0 0 Z M5.41210938 11.63110352 C5.41210938 14.60110352 5.41210938 17.57110352 5.41210938 20.63110352 C8.38210938 20.63110352 11.35210938 20.63110352 14.41210938 20.63110352 C14.41210938 17.66110352 14.41210938 14.69110352 14.41210938 11.63110352 C11.44210937 11.63110352 8.47210937 11.63110352 5.41210938 11.63110352 Z M285.41210938 11.63110352 C285.41210938 14.60110352 285.41210938 17.57110352 285.41210938 20.63110352 C288.38210938 20.63110352 291.35210938 20.63110352 294.41210938 20.63110352 C294.41210938 17.66110352 294.41210938 14.69110352 294.41210938 11.63110352 C291.44210937 11.63110352 288.47210937 11.63110352 285.41210938 11.63110352 Z M227.41210938 25.63110352 C227.41210938 28.27110352 227.41210938 30.91110352 227.41210938 33.63110352 C230.71210937 33.63110352 234.01210938 33.63110352 237.41210938 33.63110352 C237.41210938 30.99110352 237.41210938 28.35110352 237.41210938 25.63110352 C234.11210938 25.63110352 230.81210937 25.63110352 227.41210938 25.63110352 Z M80.41210938 43.63110352 C80.41210938 46.27110352 80.41210938 48.91110352 80.41210938 51.63110352 C83.71210937 51.63110352 87.01210938 51.63110352 90.41210938 51.63110352 C90.41210938 48.99110352 90.41210938 46.35110352 90.41210938 43.63110352 C87.11210938 43.63110352 83.81210937 43.63110352 80.41210938 43.63110352 Z M17.41210938 67.63110352 C17.41210938 70.60110352 17.41210938 73.57110352 17.41210938 76.63110352 C20.71210937 76.63110352 24.01210938 76.63110352 27.41210938 76.63110352 C27.41210938 73.66110352 27.41210938 70.69110352 27.41210938 67.63110352 C24.11210938 67.63110352 20.81210937 67.63110352 17.41210938 67.63110352 Z M254.41210938 87.63110352 C254.41210938 90.60110352 254.41210938 93.57110352 254.41210938 96.63110352 C257.38210938 96.63110352 260.35210938 96.63110352 263.41210938 96.63110352 C263.41210938 93.66110352 263.41210938 90.69110352 263.41210938 87.63110352 C260.44210937 87.63110352 257.47210937 87.63110352 254.41210938 87.63110352 Z M122.41210938 118.63110352 C123.91862534 122.19531216 125.98875327 124.40204194 128.76367188 127.07250977 C129.61445312 127.90331055 130.46523438 128.73411133 131.34179688 129.59008789 C133.14466636 131.3315553 134.94936787 133.07112803 136.75585938 134.80883789 C137.6040625 135.63834961 138.45226562 136.46786133 139.32617188 137.32250977 C140.10943848 138.07733643 140.89270508 138.83216309 141.69970703 139.60986328 C143.41210938 141.63110352 143.41210938 141.63110352 143.41210938 144.63110352 C142.42210937 145.12610352 142.42210937 145.12610352 141.41210938 145.63110352 C141.0127417 146.33581787 140.61337402 147.04053223 140.2019043 147.76660156 C137.85409367 151.52418744 134.92318154 154.3678493 131.77539062 157.46313477 C131.13595016 158.09974533 130.4965097 158.7363559 129.83769226 159.39225769 C127.80466438 161.41413684 125.76477576 163.4289302 123.72460938 165.44360352 C122.34068641 166.81748985 120.95721769 168.19183391 119.57421875 169.56665039 C116.19208701 172.92679218 112.803787 176.28059856 109.41210938 179.63110352 C110.73210937 180.95110352 112.05210937 182.27110352 113.41210938 183.63110352 C113.83621094 183.26758789 114.2603125 182.90407227 114.69726562 182.52954102 C115.57705078 181.77543945 115.57705078 181.77543945 116.47460938 181.00610352 C117.11140625 180.45825195 117.74820313 179.91040039 118.40429688 179.34594727 C119.6930605 178.24523281 120.98936409 177.15325158 122.29492188 176.07250977 C125.03657826 173.78779611 127.34255153 171.72111955 129.53710938 168.88110352 C131.70240899 166.28274397 133.12064201 165.37168367 136.41210938 164.63110352 C139.57705137 165.872549 141.73461823 167.67193069 144.16992188 170.01000977 C145.22518066 171.01499512 145.22518066 171.01499512 146.30175781 172.0402832 C147.03942383 172.75087891 147.77708984 173.46147461 148.53710938 174.19360352 C150.06502775 175.6487948 151.59367017 177.10322624 153.12304688 178.55688477 C153.86006836 179.25894043 154.59708984 179.96099609 155.35644531 180.68432617 C160.85633179 185.8928885 166.46715714 190.93334406 172.41210938 195.63110352 C173.73210937 194.97110352 175.05210937 194.31110352 176.41210938 193.63110352 C175.11777078 190.77190416 173.76655189 188.7508171 171.51367188 186.57250977 C170.95164062 186.02143555 170.38960937 185.47036133 169.81054688 184.90258789 C168.93269531 184.05664062 168.93269531 184.05664062 168.03710938 183.19360352 C159.63402334 175.04373547 159.63402334 175.04373547 157.41210938 171.63110352 C157.44342689 168.85428374 158.21012719 167.86559991 160.01367188 165.77172852 C160.68140625 165.14782227 161.34914063 164.52391602 162.03710938 163.88110352 C164.73149639 161.34646277 167.21779865 158.73049976 169.62695312 155.92797852 C173.65604744 151.27785839 177.97643213 146.95556499 182.34960938 142.63110352 C183.5184668 141.46901367 183.5184668 141.46901367 184.7109375 140.28344727 C186.60903358 138.39699595 188.50944086 136.51294106 190.41210938 134.63110352 C189.05273852 131.77051441 187.76690468 129.77182652 185.41210938 127.63110352 C181.94581103 129.11763858 179.72188901 131.08832703 177.08398438 133.76391602 C176.28476562 134.56958008 175.48554687 135.37524414 174.66210938 136.20532227 C173.83710937 137.04708008 173.01210938 137.88883789 172.16210938 138.75610352 C171.32164062 139.6055957 170.48117187 140.45508789 169.61523438 141.33032227 C167.54295255 143.42615275 165.47548545 145.52651065 163.41210938 147.63110352 C153.24357078 143.96903413 145.9296819 134.24653915 138.47460938 126.69360352 C136.40583899 124.59831448 134.3338094 122.50632738 132.25976562 120.41625977 C131.35234619 119.49723877 130.44492676 118.57821777 129.51000977 117.63134766 C126.20327362 114.47853848 125.75288698 116.04469505 122.41210938 118.63110352 Z M37.41210938 216.63110352 C37.41210938 219.60110352 37.41210938 222.57110352 37.41210938 225.63110352 C40.38210938 225.63110352 43.35210938 225.63110352 46.41210938 225.63110352 C46.41210938 222.66110352 46.41210938 219.69110352 46.41210938 216.63110352 C43.44210937 216.63110352 40.47210937 216.63110352 37.41210938 216.63110352 Z M272.41210938 233.63110352 C272.41210938 236.60110352 272.41210938 239.57110352 272.41210938 242.63110352 C275.38210938 242.63110352 278.35210938 242.63110352 281.41210938 242.63110352 C281.41210938 239.66110352 281.41210938 236.69110352 281.41210938 233.63110352 C278.44210937 233.63110352 275.47210937 233.63110352 272.41210938 233.63110352 Z M211.41210938 260.63110352 C211.41210938 263.60110352 211.41210938 266.57110352 211.41210938 269.63110352 C214.71210937 269.63110352 218.01210938 269.63110352 221.41210938 269.63110352 C221.08210937 266.66110352 220.75210938 263.69110352 220.41210938 260.63110352 C217.44210937 260.63110352 214.47210937 260.63110352 211.41210938 260.63110352 Z M62.41210938 278.63110352 C62.41210938 281.27110352 62.41210938 283.91110352 62.41210938 286.63110352 C65.38210938 286.63110352 68.35210938 286.63110352 71.41210938 286.63110352 C71.41210938 283.99110352 71.41210938 281.35110352 71.41210938 278.63110352 C68.44210937 278.63110352 65.47210937 278.63110352 62.41210938 278.63110352 Z M285.41210938 290.63110352 C285.41210938 293.27110352 285.41210938 295.91110352 285.41210938 298.63110352 C288.71210937 298.63110352 292.01210938 298.63110352 295.41210938 298.63110352 C295.41210938 295.66110352 295.41210938 292.69110352 295.41210938 289.63110352 C291.91976693 289.5313223 288.8177379 289.85267414 285.41210938 290.63110352 Z M5.41210938 290.63110352 C5.41210938 293.60110352 5.41210938 296.57110352 5.41210938 299.63110352 C8.38210938 299.63110352 11.35210938 299.63110352 14.41210938 299.63110352 C14.41210938 296.66110352 14.41210938 293.69110352 14.41210938 290.63110352 C11.44210937 290.63110352 8.47210937 290.63110352 5.41210938 290.63110352 Z " fill="#D4D4D4" transform="translate(722.587890625,37.368896484375)"/>
<path d="M0 0 C16.17 0 32.34 0 49 0 C55.74016081 11.23360135 55.74016081 11.23360135 58.0078125 15.671875 C58.51296387 16.65381836 59.01811523 17.63576172 59.53857422 18.64746094 C60.32385498 20.18321777 60.32385498 20.18321777 61.125 21.75 C65.27686605 29.80678095 69.49809679 37.81325499 73.875 45.75 C78.90205323 54.87820276 83.70417885 64.11350483 88.46670532 73.38116455 C92.56528531 81.35208863 96.73621396 89.27456164 101.0625 97.125 C106.14411693 106.34655666 111.0222115 115.66501184 115.84204102 125.02587891 C116.38272217 126.07565918 116.92340332 127.12543945 117.48046875 128.20703125 C118.02823975 129.31393311 118.57601074 130.42083496 119.14038086 131.5612793 C120.48597527 134.04948952 121.75489233 136.09403552 123.40844727 138.33911133 C133.11288113 152.36198146 131.02716138 169.33011039 130.61798096 185.61663818 C130.52475625 189.72642226 130.48456627 193.8367218 130.43945312 197.94726562 C130.34385709 205.96623879 130.19092743 213.9827317 130 222 C126.75972282 218.87995119 124.7818232 216.07126989 122.75 212.0390625 C122.3082267 211.17211761 122.3082267 211.17211761 121.85752869 210.28765869 C121.22669019 209.04822872 120.59921461 207.80708231 119.974823 206.56439209 C118.31320593 203.25863607 116.62612699 199.96589963 114.94140625 196.671875 C114.60436172 196.01142181 114.2673172 195.35096863 113.9200592 194.67050171 C111.02698724 189.01553977 108.01032924 183.4343125 104.9375 177.875 C99.8634455 168.67356851 95.02049605 159.36317059 90.20849609 150.02246094 C86.58377031 143.00435363 82.87575385 136.04230414 79.0625 129.125 C74.39556363 120.65676868 69.91910532 112.09910605 65.5 103.5 C60.55486953 93.87832391 55.52563394 84.31238127 50.29492188 74.84179688 C47.24251577 69.31128922 44.26521865 63.7441229 41.31396484 58.15917969 C40.89813644 57.37296234 40.48230804 56.586745 40.05387878 55.77670288 C39.03559888 53.85130462 38.01775525 51.92567564 37 50 C36.99576806 51.10197692 36.99153612 52.20395384 36.98717594 53.339324 C36.88413688 80.11110559 36.77540867 106.88285943 36.66066074 133.65459347 C36.60530301 146.60101847 36.5518169 159.54744623 36.50268555 172.49389648 C36.45987487 183.77356807 36.41360488 195.05321915 36.36312145 206.3328591 C36.33649533 212.30934704 36.31164172 218.28583086 36.29092598 224.26234245 C36.27139755 229.88058075 36.24726538 235.49877993 36.21950912 241.11698341 C36.21011851 243.1854672 36.20245053 245.25395959 36.19658089 247.32245636 C36.18835371 250.13350693 36.17408689 252.94446168 36.15821838 255.75547791 C36.15724028 256.585228 36.15626217 257.41497809 36.15525442 258.26987213 C36.11412121 263.88587879 36.11412121 263.88587879 35 265 C23.45 265 11.9 265 0 265 C0 177.55 0 90.1 0 0 Z " fill="#DADADA" transform="translate(479,53)"/>
<path d="M0 0 C55.44 0 110.88 0 168 0 C168 10.23 168 20.46 168 31 C124.77 31 81.54 31 37 31 C37 56.08 37 81.16 37 107 C51.05916016 106.98259766 51.05916016 106.98259766 65.40234375 106.96484375 C71.3222659 106.95973728 77.24218646 106.95488227 83.16210938 106.95117188 C92.56893456 106.94522882 101.97575081 106.93822697 111.38256836 106.92456055 C118.23225475 106.9146139 125.08193392 106.90814662 131.93162733 106.90591151 C135.56069396 106.90460437 139.18973994 106.90151831 142.81879997 106.89426994 C146.86350304 106.88625644 150.90816989 106.88600885 154.95288086 106.88647461 C156.16488159 106.88287933 157.37688232 106.87928406 158.62561035 106.87557983 C160.26843239 106.87764183 160.26843239 106.87764183 161.94444275 106.87974548 C163.38105711 106.87836279 163.38105711 106.87836279 164.84669399 106.87695217 C167 107 167 107 168 108 C168.1002093 110.27947792 168.13081303 112.56207135 168.1328125 114.84375 C168.13376923 115.52804077 168.13472595 116.21233154 168.13571167 116.9173584 C168.1363933 118.36661877 168.13454023 119.81588218 168.13037109 121.26513672 C168.12502252 123.49062928 168.1303166 125.71592001 168.13671875 127.94140625 C168.13605797 129.34635461 168.1347768 130.75130285 168.1328125 132.15625 C168.13168457 133.44337891 168.13055664 134.73050781 168.12939453 136.05664062 C168 139 168 139 167 140 C164.67230495 140.1040201 162.37538567 140.13932535 160.046875 140.1328125 C159.27983749 140.13413177 158.51279999 140.13545105 157.72251892 140.1368103 C155.06497679 140.13878833 152.40753233 140.13220364 149.75 140.125 C148.36103012 140.12367065 148.36103012 140.12367065 146.94400024 140.12231445 C110.29537864 140.08249772 73.64485608 139.47120825 37 139 C37 158.8 37 178.6 37 199 C24.79 199 12.58 199 0 199 C0 133.33 0 67.66 0 0 Z " fill="#D9D9D9" transform="translate(275,53)"/>
<path d="M0 0 C12.87 0 25.74 0 39 0 C39.66 4.62 40.32 9.24 41 14 C44.69663372 29.7894975 51.74658247 44.42689296 62 57 C62.69867188 57.86238281 63.39734375 58.72476563 64.1171875 59.61328125 C78.50940177 76.48956098 97.38848613 83.64802538 119 86 C123.68566678 86.28372803 128.3612385 86.36890547 133.0546875 86.4140625 C134.74380249 86.44052856 134.74380249 86.44052856 136.46704102 86.4675293 C140.60289228 86.52975822 144.73896473 86.57651917 148.875 86.625 C158.15625 86.74875 167.4375 86.8725 177 87 C177 58.29 177 29.58 177 0 C189.21 0 201.42 0 214 0 C214 40.59 214 81.18 214 123 C197.04625 123.061875 180.0925 123.12375 162.625 123.1875 C154.64820068 123.22846802 154.64820068 123.22846802 146.51025391 123.27026367 C139.92651367 123.28381348 139.92651367 123.28381348 136.82699585 123.28633118 C134.7002676 123.29088419 132.57354622 123.30132114 130.4468689 123.31672668 C112.56956212 123.43955316 95.90424095 122.25873982 78.875 116.375 C77.8629248 116.03017578 76.85084961 115.68535156 75.80810547 115.33007812 C62.72094698 110.69811798 51.42855733 104.18128801 41 95 C39.68128906 93.91332031 39.68128906 93.91332031 38.3359375 92.8046875 C16.30823307 74.00357639 5.03360163 46.14212831 1 18 C0.81179687 16.73800781 0.62359375 15.47601563 0.4296875 14.17578125 C-0.05420957 9.47318152 0 4.72743066 0 0 Z " fill="#D9D9D9" transform="translate(25,194)"/>
<path d="M0 0 C2.02495799 0.00119589 4.04991655 0.0016441 6.07487488 0.00138855 C10.27757335 0.0029377 14.48018473 0.01111265 18.68286133 0.0246582 C24.06493064 0.04178908 29.44690612 0.04546758 34.82899952 0.04471302 C38.99225252 0.04498472 43.1554851 0.05046361 47.31873131 0.05771446 C49.30464207 0.06088894 51.29055512 0.06286568 53.27646828 0.06360817 C56.03957719 0.06577664 58.80258638 0.07452776 61.56567383 0.08520508 C62.37968658 0.08475189 63.19369934 0.08429871 64.03237915 0.08383179 C67.99630432 0.10622505 71.370412 0.4459574 75.29296875 1.23046875 C75.29296875 13.11046875 75.29296875 24.99046875 75.29296875 37.23046875 C72.70573975 37.21999512 70.11851074 37.20952148 67.45288086 37.19873047 C58.85154603 37.16541345 50.25020817 37.14342878 41.64882565 37.12684441 C36.43992096 37.11646012 31.23108306 37.10240015 26.0222168 37.07958984 C20.98418596 37.05766872 15.94621889 37.04585999 10.908144 37.04071426 C8.99747274 37.03705277 7.08680451 37.02990416 5.17616081 37.01900864 C-21.03531257 36.87564354 -44.46387235 41.14738422 -65.5703125 57.6640625 C-67.70703125 59.23046875 -67.70703125 59.23046875 -70.70703125 60.23046875 C-71.41343642 61.54318119 -72.0740166 62.88083374 -72.70703125 64.23046875 C-73.86671471 65.69050189 -75.05791063 67.12573978 -76.26953125 68.54296875 C-85.69459155 80.20883286 -93.05472443 93.62124147 -96.70703125 108.23046875 C-110.23703125 108.23046875 -123.76703125 108.23046875 -137.70703125 108.23046875 C-135.34538557 91.69894897 -135.34538557 91.69894897 -133.08203125 84.35546875 C-132.82478271 83.51250244 -132.56753418 82.66953613 -132.30249023 81.80102539 C-129.64505093 73.46736487 -126.00873434 65.82870311 -121.70703125 58.23046875 C-121.15273437 57.23660156 -120.5984375 56.24273437 -120.02734375 55.21875 C-115.52390922 47.66633946 -109.77503657 41.52523062 -103.70703125 35.23046875 C-103.12308594 34.58335938 -102.53914063 33.93625 -101.9375 33.26953125 C-92.25127594 22.82312252 -79.5005888 16.07014918 -66.70703125 10.23046875 C-65.83691406 9.82054687 -64.96679688 9.410625 -64.0703125 8.98828125 C-44.07121221 0.22806415 -21.43839433 -0.08488581 0 0 Z " fill="#DADADA" transform="translate(163.70703125,51.76953125)"/>
<path d="M0 0 C11.55 0 23.1 0 35 0 C35 87.45 35 174.9 35 265 C23.45 265 11.9 265 0 265 C0 177.55 0 90.1 0 0 Z " fill="#D9D9D9" transform="translate(644,53)"/>
<path d="M0 0 C1.51883789 0.00108765 1.51883789 0.00108765 3.06835938 0.00219727 C4.17308594 0.00026367 5.2778125 -0.00166992 6.41601562 -0.00366211 C7.56972656 0.02018555 8.7234375 0.0440332 9.91210938 0.06860352 C11.64267578 0.05216797 11.64267578 0.05216797 13.40820312 0.03540039 C21.87093031 0.1094616 21.87093031 0.1094616 24.23803711 2.39111328 C25.51232219 4.82229765 25.80458601 6.31135878 25.85351562 9.03735352 C25.87994141 9.86364258 25.90636719 10.68993164 25.93359375 11.54125977 C25.94712891 12.3959082 25.96066406 13.25055664 25.97460938 14.13110352 C26.00918624 15.8292118 26.05187029 17.52717861 26.10351562 19.22485352 C26.11584229 19.97444336 26.12816895 20.7240332 26.14086914 21.49633789 C26.45815351 23.9934887 27.01617246 25.53318285 28.41210938 27.63110352 C29.25573784 28.00590347 29.25573784 28.00590347 30.1164093 28.38827515 C33.39260184 30.16191495 35.78087387 32.73870816 38.37402344 35.3659668 C38.95982178 35.95147308 39.54562012 36.53697937 40.14916992 37.14022827 C42.08013776 39.07258707 44.00392885 41.01192868 45.92773438 42.95141602 C47.26679549 44.29420808 48.60629947 45.63655864 49.94622803 46.97848511 C53.46875367 50.50864069 56.9852314 54.04476157 60.50048828 57.58215332 C64.08979489 61.19193203 67.68478194 64.79604366 71.27929688 68.40063477 C78.32914255 75.47191909 85.37261275 82.54951765 92.41210938 89.63110352 C93.53844169 88.67668589 94.66322639 87.72044168 95.78735352 86.76342773 C96.41388321 86.23111542 97.0404129 85.6988031 97.68592834 85.15036011 C99.58699067 83.47718596 101.24427825 81.71382439 102.84960938 79.75610352 C103.70377604 78.71443685 104.55794271 77.67277018 105.41210938 76.63110352 C99.01168587 67.98898188 99.01168587 67.98898188 89.86572266 62.94946289 C84.66278945 62.30580105 79.49278992 62.38363045 74.26879883 62.74365234 C72.41210938 62.63110352 72.41210938 62.63110352 70.41210938 60.63110352 C69.95246247 56.33657144 70.08811158 52.00987534 70.09960938 47.69360352 C70.08349609 46.48768555 70.06738281 45.28176758 70.05078125 44.03930664 C70.05013672 42.88495117 70.04949219 41.7305957 70.04882812 40.54125977 C70.04584717 39.48044189 70.04286621 38.41962402 70.03979492 37.32666016 C70.41210938 34.63110352 70.41210938 34.63110352 71.5949707 32.78662109 C74.09259618 31.19838229 75.89999687 31.24294853 78.84960938 31.23266602 C79.90921875 31.22879883 80.96882812 31.22493164 82.06054688 31.22094727 C83.1665625 31.23254883 84.27257812 31.24415039 85.41210938 31.25610352 C87.07113281 31.23870117 87.07113281 31.23870117 88.76367188 31.22094727 C89.82328125 31.22481445 90.88289062 31.22868164 91.97460938 31.23266602 C93.43060547 31.2377417 93.43060547 31.2377417 94.91601562 31.24291992 C97.41210938 31.63110352 97.41210938 31.63110352 99.26171875 32.89233398 C100.7469047 35.13713329 100.59338945 36.20242371 100.25585938 38.84985352 C99.45537514 49.12088019 99.45537514 49.12088019 103.32714844 58.39672852 C108.04669686 63.63939376 113.29459821 68.24859104 118.79736328 72.65258789 C120.41210938 74.63110352 120.41210938 74.63110352 120.30688477 77.19384766 C119.03570438 80.65638347 116.74990389 82.97096876 114.22460938 85.56860352 C113.72791748 86.09421875 113.23122559 86.61983398 112.71948242 87.16137695 C109.34757233 90.71446595 105.92294182 94.21515843 102.41210938 97.63110352 C103.94201658 101.23672266 106.09907869 103.61702342 108.84960938 106.38110352 C109.63207031 107.18032227 110.41453125 107.97954102 111.22070312 108.80297852 C113.3204146 110.95139762 113.3204146 110.95139762 116.41210938 110.63110352 C116.41210938 109.97110352 116.41210938 109.31110352 116.41210938 108.63110352 C118.05664062 106.97485352 118.05664062 106.97485352 120.22460938 105.13110352 C120.93230469 104.52266602 121.64 103.91422852 122.36914062 103.28735352 C124.41210938 101.63110352 124.41210938 101.63110352 127.41210938 99.63110352 C132.11877479 104.28720771 136.81769889 108.95101823 141.51123047 113.62036133 C143.11002709 115.20907809 144.71061106 116.79599821 146.31298828 118.38110352 C148.61113189 120.65508606 150.9028456 122.93537664 153.19335938 125.21704102 C153.91519409 125.92855316 154.63702881 126.64006531 155.3807373 127.37313843 C156.04142212 128.03367218 156.70210693 128.69420593 157.3828125 129.37475586 C157.96905396 129.95655609 158.55529541 130.53835632 159.15930176 131.13778687 C160.41210938 132.63110352 160.41210938 132.63110352 160.41210938 134.63110352 C165.20376739 132.00750203 168.4348198 128.65252843 172.13085938 124.68969727 C174.48710537 122.56342733 176.41672495 121.60671288 179.41210938 120.63110352 C180.73210937 121.95110352 182.05210937 123.27110352 183.41210938 124.63110352 C181.42039005 129.50350163 177.56348649 132.53104314 173.82226562 136.09594727 C171.53888631 138.49775144 170.04971003 140.7724018 168.41210938 143.63110352 C166.78374199 145.33520892 165.12441185 147.01135793 163.41210938 148.63110352 C153.3938139 145.81345791 145.55570077 134.89607677 138.41210938 127.69360352 C137.3407305 126.61719698 136.26911755 125.54102337 135.19726562 124.46508789 C132.599513 121.85643607 130.00492976 119.2446588 127.41210938 116.63110352 C115.59532459 123.69658285 105.81254696 133.33319723 97.08789062 143.93188477 C95.24530302 145.80024282 93.92071655 146.83966913 91.41210938 147.63110352 C87.39378751 146.24206454 84.86290276 143.22182979 82.04296875 140.1875 C80.95605379 139.0379344 79.86884082 137.88865051 78.78137207 136.73960876 C78.20814713 136.13057142 77.63492218 135.52153408 77.04432678 134.89404106 C73.97994756 131.65253563 70.87512068 128.45008516 67.77539062 125.24243164 C63.84067555 121.1701557 59.91976938 117.08780142 56.05419922 112.94970703 C52.92120181 109.598039 49.74202202 106.29672455 46.52827454 103.0224781 C45.32134782 101.77584549 44.13139961 100.51250846 42.96061707 99.23187065 C36.70725655 92.41173441 31.955278 88.16698494 22.43456268 87.57631779 C19.06708952 87.52851302 15.72095798 87.62012284 12.36199188 87.86517429 C10.41210938 87.63110352 10.41210938 87.63110352 8.6760025 86.2883215 C6.83141003 83.86968993 7.02373809 81.98704821 7.01367188 78.97485352 C7.00980469 77.87012695 7.0059375 76.76540039 7.00195312 75.62719727 C7.01355469 74.47348633 7.02515625 73.31977539 7.03710938 72.13110352 C7.02550781 70.97739258 7.01390625 69.82368164 7.00195312 68.63500977 C7.00582031 67.5302832 7.0096875 66.42555664 7.01367188 65.28735352 C7.01705566 64.27479492 7.02043945 63.26223633 7.02392578 62.21899414 C7.41210938 59.63110352 7.41210938 59.63110352 8.58129883 57.80029297 C11.15326462 56.15778808 13.06525778 56.25893355 16.10351562 56.26782227 C17.21275391 56.2684668 18.32199219 56.26911133 19.46484375 56.26977539 C21.20217773 56.29394531 21.20217773 56.29394531 22.97460938 56.31860352 C24.13669922 56.31538086 25.29878906 56.3121582 26.49609375 56.30883789 C35.14518992 56.36418406 35.14518992 56.36418406 37.41210938 58.63110352 C37.24638428 59.89462646 37.08065918 61.15814941 36.90991211 62.45996094 C35.98651841 70.01825739 36.26206518 76.40522402 40.59063721 82.89971924 C47.10513348 91.04301523 54.96013392 98.10155851 62.58599854 105.17828369 C65.75273204 108.13828864 68.86176903 111.15767238 71.9765625 114.17211914 C78.06768275 120.05043158 84.21835341 125.8610411 90.41210938 131.63110352 C94.67194825 130.06119931 97.0686954 128.30332707 100.22460938 125.00610352 C101.01480469 124.18883789 101.805 123.37157227 102.61914062 122.52954102 C103.21082031 121.90305664 103.8025 121.27657227 104.41210938 120.63110352 C103.03583436 117.5631635 101.44899876 115.38795046 99.12394714 112.96784973 C98.44475723 112.25700729 97.76556732 111.54616486 97.0657959 110.81378174 C96.32051636 110.04427185 95.57523682 109.27476196 94.80737305 108.48193359 C94.02151321 107.66365585 93.23565338 106.84537811 92.42597961 106.00230408 C85.15854911 98.45412285 77.82898343 90.96562519 70.47918224 83.49767017 C65.05900709 77.98863014 59.67382918 72.44966218 54.33061045 66.86592942 C50.10027353 62.45184072 45.81511555 58.09457294 41.50994301 53.75351524 C39.69812487 51.9099743 37.90357368 50.04928477 36.12776756 48.17103004 C24.94654525 35.9391172 24.94654525 35.9391172 9.66653156 31.2802 C6.95017768 31.29708818 4.28962734 31.47480583 1.58320618 31.69364929 C-0.70109177 31.83262444 -0.70109177 31.83262444 -2.58789062 31.63110352 C-5.38390523 28.47752379 -5.96924679 25.8731766 -5.98632812 21.72485352 C-5.99019531 20.81606445 -5.9940625 19.90727539 -5.99804688 18.97094727 C-5.98644531 18.03379883 -5.97484375 17.09665039 -5.96289062 16.13110352 C-5.97449219 15.19395508 -5.98609375 14.25680664 -5.99804688 13.29125977 C-5.99417969 12.3824707 -5.9903125 11.47368164 -5.98632812 10.53735352 C-5.98294434 9.71557617 -5.97956055 8.89379883 -5.97607422 8.04711914 C-5.31241272 3.91655675 -4.26331819 1.03968656 0 0 Z M5.41210938 11.63110352 C5.41210938 14.60110352 5.41210938 17.57110352 5.41210938 20.63110352 C8.38210938 20.63110352 11.35210938 20.63110352 14.41210938 20.63110352 C14.41210938 17.66110352 14.41210938 14.69110352 14.41210938 11.63110352 C11.44210937 11.63110352 8.47210937 11.63110352 5.41210938 11.63110352 Z M80.41210938 43.63110352 C80.41210938 46.27110352 80.41210938 48.91110352 80.41210938 51.63110352 C83.71210937 51.63110352 87.01210938 51.63110352 90.41210938 51.63110352 C90.41210938 48.99110352 90.41210938 46.35110352 90.41210938 43.63110352 C87.11210938 43.63110352 83.81210937 43.63110352 80.41210938 43.63110352 Z M17.41210938 67.63110352 C17.41210938 70.60110352 17.41210938 73.57110352 17.41210938 76.63110352 C20.71210937 76.63110352 24.01210938 76.63110352 27.41210938 76.63110352 C27.41210938 73.66110352 27.41210938 70.69110352 27.41210938 67.63110352 C24.11210938 67.63110352 20.81210937 67.63110352 17.41210938 67.63110352 Z " fill="#CCCCCC" transform="translate(722.587890625,37.368896484375)"/>
<path d="M0 0 C21.75682568 -0.02254521 43.51364196 -0.04097812 65.27047634 -0.05181217 C75.37180943 -0.05697559 85.47313477 -0.06401915 95.57446289 -0.07543945 C104.37544464 -0.0853849 113.17642078 -0.09185309 121.97740799 -0.09408849 C126.64046267 -0.09539584 131.30350128 -0.09848318 135.96655083 -0.10573006 C140.35032366 -0.11248809 144.73407371 -0.11461741 149.11785126 -0.11310768 C150.73160234 -0.11338411 152.34535413 -0.11539052 153.95910072 -0.11920547 C156.1526889 -0.12413934 158.3461897 -0.12299944 160.53977966 -0.12025452 C161.7703733 -0.12117631 163.00096693 -0.1220981 164.26885128 -0.12304783 C167 0 167 0 168 1 C168.10012401 3.20650656 168.1308118 5.41622386 168.1328125 7.625 C168.13376923 8.28709473 168.13472595 8.94918945 168.13571167 9.63134766 C168.13639326 11.03352961 168.13454042 12.4357147 168.13037109 13.83789062 C168.12502246 15.99095713 168.1303167 18.14381502 168.13671875 20.296875 C168.13605796 21.65625046 168.13477679 23.0156258 168.1328125 24.375 C168.13168457 25.62023437 168.13055664 26.86546875 168.12939453 28.1484375 C168 31 168 31 167 32 C164.84840274 32.096937 162.69355889 32.12186783 160.53977966 32.12025452 C159.85697199 32.12110894 159.17416432 32.12196337 158.47066551 32.12284368 C156.16588309 32.12450043 153.86117228 32.11897397 151.55639648 32.11352539 C149.91094972 32.11324353 148.26550284 32.11340122 146.62005615 32.1139679 C142.13884241 32.11425593 137.65765519 32.10835821 133.17644763 32.10139394 C128.49857895 32.09516142 123.82070972 32.09455668 119.14283752 32.09336853 C110.27824832 32.09025491 101.41367138 32.08204111 92.54908758 32.07201904 C82.45977798 32.06085885 72.3704678 32.05534769 62.28115356 32.05032361 C41.52076066 32.03985852 20.76038459 32.02151267 0 32 C0 21.44 0 10.88 0 0 Z " fill="#DADADA" transform="translate(275,286)"/>
<path d="M0 0 C1.51883789 0.00108765 1.51883789 0.00108765 3.06835938 0.00219727 C4.72544922 -0.00070313 4.72544922 -0.00070313 6.41601562 -0.00366211 C7.56972656 0.02018555 8.7234375 0.0440332 9.91210938 0.06860352 C11.06582031 0.05764648 12.21953125 0.04668945 13.40820312 0.03540039 C21.8577889 0.10934659 21.8577889 0.10934659 24.24072266 2.35229492 C25.59775515 4.99225768 25.7990248 6.69974241 25.81054688 9.65844727 C25.81441406 10.61557617 25.81828125 11.57270508 25.82226562 12.55883789 C25.81066406 13.55206055 25.7990625 14.5452832 25.78710938 15.56860352 C25.79871094 16.55795898 25.8103125 17.54731445 25.82226562 18.56665039 C25.81839844 19.52506836 25.81453125 20.48348633 25.81054688 21.47094727 C25.80716309 22.34098389 25.8037793 23.21102051 25.80029297 24.10742188 C25.28248185 27.47384549 24.7980732 29.14126713 22.41210938 31.63110352 C20.12999279 31.84635263 17.99793643 31.64515016 15.71452332 31.45022583 C8.15565766 30.88912899 2.24949088 31.45255222 -3.83642578 36.23754883 C-9.21109076 41.07564471 -14.05580453 46.39641719 -18.90039062 51.75610352 C-20.61097323 53.57583774 -22.32644585 55.39098815 -24.046875 57.20141602 C-26.4738203 59.75809147 -28.89210597 62.31878359 -31.27400208 64.91751099 C-35.25178483 69.2561487 -39.31958354 73.27562846 -43.79997253 77.09375 C-46.15088812 79.11520074 -48.34118023 81.27156874 -50.52539062 83.47094727 C-51.77255859 84.72294922 -51.77255859 84.72294922 -53.04492188 86.00024414 C-53.88410156 86.84780273 -54.72328125 87.69536133 -55.58789062 88.56860352 C-56.45800781 89.44323242 -57.328125 90.31786133 -58.22460938 91.21899414 C-60.34802612 93.35407801 -62.4690544 95.49147557 -64.58789062 97.63110352 C-61.40757941 101.39691412 -58.23647237 105.1154934 -54.71289062 108.56860352 C-54.11734375 109.15512695 -53.52179687 109.74165039 -52.90820312 110.34594727 C-52.4725 110.77004883 -52.03679688 111.19415039 -51.58789062 111.63110352 C-45.66575189 108.98063583 -41.09416923 105.08886931 -37.58789062 99.63110352 C-36.36054785 94.41252733 -36.56139977 89.01479621 -36.86157227 83.69238281 C-36.46285865 80.68940415 -35.48494716 78.98213716 -33.58789062 76.63110352 C-31 76 -31 76 -27.93164062 76.00219727 C-26.27455078 75.99929687 -26.27455078 75.99929687 -24.58398438 75.99633789 C-23.43027344 76.02018555 -22.2765625 76.0440332 -21.08789062 76.06860352 C-19.93417969 76.05764648 -18.78046875 76.04668945 -17.59179688 76.03540039 C-9.11545638 76.10958073 -9.11545638 76.10958073 -6.75488281 78.44311523 C-5.03856872 81.66102463 -5.22821863 84.76869406 -5.33789062 88.31860352 C-5.35650146 89.38618896 -5.35650146 89.38618896 -5.37548828 90.4753418 C-5.69710817 104.74032106 -5.69710817 104.74032106 -8.58789062 107.63110352 C-10.50463867 107.71191406 -10.50463867 107.71191406 -12.84960938 107.51782227 C-24.24415942 106.89010787 -24.24415942 106.89010787 -34.10351562 111.88891602 C-37.32259377 115.02741067 -40.18275924 118.43243165 -43.02490234 121.91088867 C-45.27690656 124.38943002 -47.7095029 125.94227573 -50.58789062 127.63110352 C-56.16491528 124.28840735 -60.43496775 120.01546942 -64.96289062 115.38110352 C-65.69894531 114.63602539 -66.435 113.89094727 -67.19335938 113.12329102 C-68.9961911 111.29704589 -70.79416041 109.46628146 -72.58789062 107.63110352 C-76.59163493 109.4680274 -79.30746997 112.12228268 -82.33789062 115.25610352 C-83.09779297 116.02954102 -83.09779297 116.02954102 -83.87304688 116.81860352 C-85.11592964 118.0849369 -86.35254339 119.35741791 -87.58789062 120.63110352 C-90.08789062 118.38110352 -90.08789062 118.38110352 -92.58789062 115.63110352 C-92.58789062 111.63110352 -92.58789062 111.63110352 -91.27539062 110.03344727 C-90.71851563 109.55004883 -90.16164063 109.06665039 -89.58789062 108.56860352 C-87.90251028 107.15842488 -87.90251028 107.15842488 -86.58789062 105.63110352 C-86.58789062 104.64110352 -86.58789062 103.65110352 -86.58789062 102.63110352 C-85.08520508 100.76092529 -85.08520508 100.76092529 -82.95117188 98.63793945 C-82.15614258 97.83990906 -81.36111328 97.04187866 -80.54199219 96.21966553 C-79.67026367 95.36028381 -78.79853516 94.5009021 -77.90039062 93.61547852 C-76.56379395 92.28169159 -76.56379395 92.28169159 -75.20019531 90.92095947 C-73.30693923 89.03444022 -71.41116374 87.15097261 -69.51025391 85.2722168 C-67.09413093 82.88413315 -64.68653803 80.48768815 -62.28215027 78.08779526 C-59.97052279 75.78137684 -57.65424837 73.47964488 -55.33789062 71.17797852 C-54.05458862 69.90105133 -54.05458862 69.90105133 -52.74536133 68.59832764 C-48.4419343 64.34530663 -44.0771988 60.22577292 -39.49337769 56.27658081 C-34.11096742 51.62861753 -28.93187265 46.7630392 -23.79467773 41.84716797 C-22.36827413 40.49774436 -20.92608561 39.16480822 -19.46850586 37.84912109 C-9.28227278 28.85037021 -9.28227278 28.85037021 -5.35264587 16.33161926 C-5.33479751 14.03644858 -5.43054923 11.77813627 -5.57006836 9.48779297 C-5.5924896 4.6358984 -5.10941832 1.24602324 0 0 Z M5.41210938 11.63110352 C5.41210938 14.60110352 5.41210938 17.57110352 5.41210938 20.63110352 C8.38210938 20.63110352 11.35210938 20.63110352 14.41210938 20.63110352 C14.41210938 17.66110352 14.41210938 14.69110352 14.41210938 11.63110352 C11.44210937 11.63110352 8.47210937 11.63110352 5.41210938 11.63110352 Z M-25.58789062 87.63110352 C-25.58789062 90.60110352 -25.58789062 93.57110352 -25.58789062 96.63110352 C-22.61789062 96.63110352 -19.64789062 96.63110352 -16.58789062 96.63110352 C-16.58789062 93.66110352 -16.58789062 90.69110352 -16.58789062 87.63110352 C-19.55789063 87.63110352 -22.52789063 87.63110352 -25.58789062 87.63110352 Z " fill="#E4E4E4" transform="translate(1002.587890625,37.368896484375)"/>
<path d="M0 0 C6.95992471 5.75114538 13.19819005 12.1418327 19.52929688 18.56835938 C23.25049361 22.32361741 26.95576841 26.03265648 30.97265625 29.47265625 C37.07135283 34.70109541 42.58728005 40.54549067 48.22265625 46.26171875 C52.04710509 50.11956889 55.84746827 53.94348493 59.9765625 57.4765625 C65.75048618 62.42021058 70.98359556 67.92823005 76.31640625 73.33691406 C77.70632591 74.74482315 79.09920977 76.14980398 80.4921875 77.5546875 C81.31058105 78.38468262 82.12897461 79.21467773 82.97216797 80.06982422 C85.883325 82.84078588 87.55358472 83.13031144 91.46484375 83.24609375 C92.78838867 83.29540039 92.78838867 83.29540039 94.13867188 83.34570312 C96.00053108 83.40676899 97.86251743 83.46407724 99.72460938 83.51757812 C100.60826172 83.55173828 101.49191406 83.58589844 102.40234375 83.62109375 C103.21179443 83.6461499 104.02124512 83.67120605 104.85522461 83.69702148 C107 84 107 84 110 86 C110.37231445 88.67382812 110.37231445 88.67382812 110.36328125 92.03125 C110.36231445 93.83529297 110.36231445 93.83529297 110.36132812 95.67578125 C110.34521484 96.93777344 110.32910156 98.19976562 110.3125 99.5 C110.31572266 100.76199219 110.31894531 102.02398437 110.32226562 103.32421875 C110.26680003 112.73319997 110.26680003 112.73319997 108 115 C103.68442601 115.45906021 99.33715845 115.32401051 95 115.3125 C93.17855469 115.33666992 93.17855469 115.33666992 91.3203125 115.36132812 C90.16273438 115.36197266 89.00515625 115.36261719 87.8125 115.36328125 C86.21341797 115.36775269 86.21341797 115.36775269 84.58203125 115.37231445 C83.72996094 115.24945068 82.87789062 115.12658691 82 115 C79.86395692 111.79593538 79.75791092 111.00399253 79.8046875 107.33203125 C79.81113281 106.43935547 79.81757812 105.54667969 79.82421875 104.62695312 C79.84935547 103.23379883 79.84935547 103.23379883 79.875 101.8125 C79.88402344 100.87212891 79.89304687 99.93175781 79.90234375 98.96289062 C79.92590944 96.64167032 79.95880884 94.32096356 80 92 C79.45504883 91.78174561 78.91009766 91.56349121 78.34863281 91.33862305 C75.22191413 89.55652341 72.91100199 87.1380162 70.421875 84.58203125 C69.89160706 84.04656174 69.36133911 83.51109222 68.81500244 82.95939636 C67.12182944 81.24846248 65.43547792 79.53101232 63.75 77.8125 C61.53990779 75.56558359 59.32659784 73.32191178 57.109375 71.08203125 C56.57159424 70.53866119 56.03381348 69.99529114 55.47973633 69.43545532 C52.10717415 66.05007096 48.62972868 62.86165607 44.98925781 59.7644043 C39.6607081 55.03816119 34.77546753 49.80811413 29.77734375 44.73828125 C20.93920898 35.72477095 20.93920898 35.72477095 11 28 C8.36 30.64 5.72 33.28 3 36 C3 33 3 33 4.42578125 31.17578125 C5.04839844 30.56089844 5.67101562 29.94601562 6.3125 29.3125 C6.92738281 28.68988281 7.54226563 28.06726563 8.17578125 27.42578125 C10 26 10 26 13 26 C13.433125 25.1028125 13.433125 25.1028125 13.875 24.1875 C15 22 15 22 17 19 C16.48501953 18.49549316 15.97003906 17.99098633 15.43945312 17.47119141 C13.12114016 15.19431436 10.81050842 12.90979529 8.5 10.625 C7.68917969 9.8309375 6.87835937 9.036875 6.04296875 8.21875 C4.89248047 7.07792969 4.89248047 7.07792969 3.71875 5.9140625 C3.00654297 5.2123291 2.29433594 4.5105957 1.56054688 3.78759766 C0 2 0 2 0 0 Z M90 96 C90 98.64 90 101.28 90 104 C93.3 104 96.6 104 100 104 C100 101.03 100 98.06 100 95 C96.50765756 94.90021879 93.40562852 95.22157062 90 96 Z " fill="#E7E7E7" transform="translate(918,232)"/>
<path d="M0 0 C6.87314815 5.67660819 13.01725438 11.98694357 19.23632812 18.36328125 C20.04908203 19.18699219 20.86183594 20.01070312 21.69921875 20.859375 C22.79496216 21.98037598 22.79496216 21.98037598 23.9128418 23.12402344 C25.83092286 25.03946964 25.83092286 25.03946964 27.89404297 25.85229492 C31.27512237 27.69491656 33.47155839 30.63855594 35.99609375 33.50390625 C49.59214196 50.21746763 49.59214196 50.21746763 68.39477539 58.14819336 C71.01236407 58.00611375 73.54261117 57.7081261 76.1328125 57.3125 C78.04707031 57.1578125 78.04707031 57.1578125 80 57 C82.59613354 59.23167633 82.900136 61.07695798 83.26123047 64.41455078 C83.40568718 67.30522732 83.4089351 70.16859047 83.375 73.0625 C83.38660156 74.05572266 83.39820313 75.04894531 83.41015625 76.07226562 C83.40628906 77.02939453 83.40242187 77.98652344 83.3984375 78.97265625 C83.39505371 79.84156494 83.39166992 80.71047363 83.38818359 81.60571289 C82.90353711 84.59497582 82.21495984 85.92829333 80 88 C77.39624023 88.4699707 77.39624023 88.4699707 74.30859375 88.42578125 C73.19935547 88.41740234 72.09011719 88.40902344 70.94726562 88.40039062 C69.78904297 88.37138672 68.63082031 88.34238281 67.4375 88.3125 C66.27541016 88.30283203 65.11332031 88.29316406 63.91601562 88.28320312 C55.33682942 88.16841471 55.33682942 88.16841471 53 87 C52 84 52 84 52.58227539 80.48901367 C53.48814737 73.49368826 52.9367724 67.81594444 48.85809326 61.88580322 C42.40590882 53.95512697 34.74636341 47.01762953 27.28967285 40.05371094 C24.18694913 37.13686844 21.13606346 34.16681005 18.08007812 31.20117188 C12.10215369 25.41490739 6.07032532 19.68924675 0 14 C-1.65 14.66 -3.3 15.32 -5 16 C-3.68 13.69 -2.36 11.38 -1 9 C-2.32 8.34 -3.64 7.68 -5 7 C-3.6975667 4.09457188 -2.29113732 2.1907039 0 0 Z M63 68 C63 70.97 63 73.94 63 77 C65.97 77 68.94 77 72 77 C72 74.03 72 71.06 72 68 C69.03 68 66.06 68 63 68 Z " fill="#DEDEDE" transform="translate(932,203)"/>
<path d="M0 0 C7.10512006 5.80138692 13.4701862 12.34389677 19.93359375 18.8359375 C21.17890345 20.0831151 22.42443621 21.33007001 23.67018127 22.57681274 C26.92905366 25.83948105 30.18491018 29.10514251 33.44012451 32.37145996 C36.77009779 35.71171062 40.10294673 39.04908931 43.43554688 42.38671875 C49.95983139 48.92168893 56.48092996 55.45982831 63 62 C64.12633231 61.04558237 65.25111702 60.08933817 66.37524414 59.13232422 C67.00177383 58.6000119 67.62830353 58.06769958 68.27381897 57.51925659 C70.1748813 55.84608245 71.83216888 54.08272088 73.4375 52.125 C74.29166667 51.08333333 75.14583333 50.04166667 76 49 C69.5995765 40.35787837 69.5995765 40.35787837 60.45361328 35.31835938 C55.25068008 34.67469754 50.08068054 34.75252694 44.85668945 35.11254883 C43 35 43 35 41 33 C40.5403531 28.70546793 40.67600221 24.37877182 40.6875 20.0625 C40.67138672 18.85658203 40.65527344 17.65066406 40.63867188 16.40820312 C40.63802734 15.25384766 40.63738281 14.09949219 40.63671875 12.91015625 C40.63373779 11.84933838 40.63075684 10.78852051 40.62768555 9.69555664 C41 7 41 7 42.18286133 5.15551758 C44.68048681 3.56727878 46.48788749 3.61184501 49.4375 3.6015625 C50.49710938 3.59769531 51.55671875 3.59382813 52.6484375 3.58984375 C53.75445313 3.60144531 54.86046875 3.61304687 56 3.625 C57.10601563 3.61339844 58.21203125 3.60179688 59.3515625 3.58984375 C60.41117188 3.59371094 61.47078125 3.59757812 62.5625 3.6015625 C64.01849609 3.60663818 64.01849609 3.60663818 65.50390625 3.61181641 C68 4 68 4 69.84960938 5.26123047 C71.33479532 7.50602977 71.18128008 8.5713202 70.84375 11.21875 C70.04326577 21.48977667 70.04326577 21.48977667 73.91503906 30.765625 C78.63458749 36.00829024 83.88248884 40.61748752 89.38525391 45.02148438 C91 47 91 47 90.89257812 49.56713867 C89.63593434 52.99231793 87.38253351 55.25453472 84.875 57.8125 C83.86864546 58.86479044 82.86343781 59.91817889 81.859375 60.97265625 C81.36888672 61.4845752 80.87839844 61.99649414 80.37304688 62.52392578 C77.96950787 65.10781569 75.79599923 67.8857811 73.6328125 70.671875 C72 72 72 72 69.48046875 72.3828125 C66.59335538 71.93724225 65.91440273 71.41657251 64.1875 69.125 C62 66 62 66 62 64 C60.14764868 61.96896527 58.2677331 60.03750343 56.30859375 58.11328125 C55.40151169 57.21057999 55.40151169 57.21057999 54.47610474 56.28964233 C53.15888773 54.98005243 51.83936503 53.67277862 50.51785278 52.36752319 C48.42967008 50.30476542 46.34770993 48.23591217 44.26733398 46.1652832 C39.85041407 41.7712739 35.42575832 37.38510457 31 33 C25.87353308 27.92062334 20.75022989 22.83814277 15.63528442 17.74716187 C13.5785016 15.7034003 11.51581157 13.66572703 9.45288086 11.62817383 C8.19876253 10.38131724 6.94492228 9.13418086 5.69140625 7.88671875 C4.82178757 7.03259903 4.82178757 7.03259903 3.93460083 6.16122437 C2.58458567 4.81157406 1.2863629 3.41044935 0 2 C0 1.34 0 0.68 0 0 Z M51 16 C51 18.64 51 21.28 51 24 C54.3 24 57.6 24 61 24 C61 21.36 61 18.72 61 16 C57.7 16 54.4 16 51 16 Z " fill="#D2D2D2" transform="translate(752,65)"/>
<path d="M0 0 C4.53848206 1.41776639 6.95496562 3.69196046 10.1875 7.125 C11.75562133 8.78481059 13.35219199 10.4192709 15 12 C15.66 12 16.32 12 17 12 C17.66 11.01 18.32 10.02 19 9 C22.7726764 9.53895377 24.68212991 10.99535358 27 14 C26.81367553 17.07435378 25.75085936 18.37371096 24 21 C23.236875 21.45375 22.47375 21.9075 21.6875 22.375 C16.93402195 25.24919603 13.4348335 29.00218388 11 34 C10.59628674 37.84252788 10.59628674 37.84252788 12.35546875 39.78125 C12.96003906 40.3484375 13.56460938 40.915625 14.1875 41.5 C14.77917969 42.0671875 15.37085938 42.634375 15.98046875 43.21875 C16.98013672 44.10046875 16.98013672 44.10046875 18 45 C18.68320312 45.71929687 19.36640625 46.43859375 20.0703125 47.1796875 C24.45385142 49.90332635 28.62345376 49.59753399 33.6875 49.625 C35.58737075 49.65045038 37.48715644 49.68390566 39.38671875 49.7265625 C40.64295044 49.73550537 40.64295044 49.73550537 41.92456055 49.74462891 C44 50 44 50 46 52 C47.35727349 57.14775434 47.25845737 62.33602752 47.3125 67.625 C47.34150391 68.57890625 47.37050781 69.5328125 47.40039062 70.515625 C47.40876953 71.43085938 47.41714844 72.34609375 47.42578125 73.2890625 C47.44036377 74.12131348 47.45494629 74.95356445 47.4699707 75.81103516 C47 78 47 78 45.3215332 79.77172852 C42.49578062 81.26677124 40.61852474 81.37306296 37.4296875 81.36328125 C35.83833984 81.36231445 35.83833984 81.36231445 34.21484375 81.36132812 C32.56162109 81.3371582 32.56162109 81.3371582 30.875 81.3125 C29.76511719 81.31572266 28.65523437 81.31894531 27.51171875 81.32226562 C19.26703326 81.26703326 19.26703326 81.26703326 17 79 C16.74804688 76.98803711 16.74804688 76.98803711 16.71875 74.52734375 C16.63801233 64.24714191 16.63801233 64.24714191 13 54.92578125 C10.44564435 52.7026936 7.83186401 50.85386937 5 49 C3.11742314 47.45055402 1.26215822 45.86725102 -0.5625 44.25 C-1.38878906 43.55390625 -2.21507812 42.8578125 -3.06640625 42.140625 C-5.3278045 39.63709724 -6.02087997 38.37733505 -6 35 C-4.48046875 32.67578125 -4.48046875 32.67578125 -2.1875 30.3125 C-0.95773437 29.02666016 -0.95773437 29.02666016 0.296875 27.71484375 C1.18890625 26.81894531 2.0809375 25.92304688 3 25 C3.94286141 24.04311956 4.88556929 23.08608782 5.828125 22.12890625 C8.20353076 19.73653331 10.59362409 17.36116217 13 15 C11.62804139 11.90290533 10.06207499 9.84129475 7.625 7.5 C7.00753906 6.90058594 6.39007812 6.30117187 5.75390625 5.68359375 C5.17511719 5.12800781 4.59632813 4.57242188 4 4 C2.66666667 2.66666667 1.33333333 1.33333333 0 0 Z M27 61 C27 63.97 27 66.94 27 70 C30.3 70 33.6 70 37 70 C36.67 67.03 36.34 64.06 36 61 C33.03 61 30.06 61 27 61 Z " fill="#DBDBDB" transform="translate(907,237)"/>
<path d="M0 0 C1.51883789 0.00108765 1.51883789 0.00108765 3.06835938 0.00219727 C4.72544922 -0.00070313 4.72544922 -0.00070313 6.41601562 -0.00366211 C7.56972656 0.02018555 8.7234375 0.0440332 9.91210938 0.06860352 C11.64267578 0.05216797 11.64267578 0.05216797 13.40820312 0.03540039 C21.88454362 0.10958073 21.88454362 0.10958073 24.24511719 2.44311523 C25.96143128 5.66102463 25.77178137 8.76869406 25.66210938 12.31860352 C25.64349854 13.38618896 25.64349854 13.38618896 25.62451172 14.4753418 C25.30289183 28.74032106 25.30289183 28.74032106 22.41210938 31.63110352 C20.49536133 31.71191406 20.49536133 31.71191406 18.15039062 31.51782227 C6.75584058 30.89010787 6.75584058 30.89010787 -3.10351562 35.88891602 C-6.32259377 39.02741067 -9.18275924 42.43243165 -12.02490234 45.91088867 C-14.27690656 48.38943002 -16.7095029 49.94227573 -19.58789062 51.63110352 C-25.09222348 48.31638735 -29.34806516 44.13654865 -33.83789062 39.56860352 C-34.5571875 38.84866211 -35.27648437 38.1287207 -36.01757812 37.38696289 C-38.83051475 34.55032174 -41.3650926 31.96530055 -43.58789062 28.63110352 C-43.40039062 26.50610352 -43.40039062 26.50610352 -42.58789062 24.63110352 C-41.59789062 24.30110352 -40.60789062 23.97110352 -39.58789062 23.63110352 C-39.25789062 22.64110352 -38.92789063 21.65110352 -38.58789062 20.63110352 C-33.36134161 22.10752979 -30.41962623 25.45342288 -26.77539062 29.25610352 C-25.87916992 30.17262695 -25.87916992 30.17262695 -24.96484375 31.10766602 C-23.49893956 32.60875191 -22.0424607 34.11903214 -20.58789062 35.63110352 C-14.66575189 32.98063583 -10.09416923 29.08886931 -6.58789062 23.63110352 C-5.36054785 18.41252733 -5.56139977 13.01479621 -5.86157227 7.69238281 C-5.32850419 3.67749095 -4.05216576 0.98819325 0 0 Z M5.41210938 11.63110352 C5.41210938 14.60110352 5.41210938 17.57110352 5.41210938 20.63110352 C8.38210938 20.63110352 11.35210938 20.63110352 14.41210938 20.63110352 C14.41210938 17.66110352 14.41210938 14.69110352 14.41210938 11.63110352 C11.44210937 11.63110352 8.47210937 11.63110352 5.41210938 11.63110352 Z " fill="#DCDCDC" transform="translate(971.587890625,113.368896484375)"/>
<path d="M0 0 C0.94746094 0.95712891 0.94746094 0.95712891 1.9140625 1.93359375 C4.39599308 4.41990318 6.92591607 6.85307717 9.4609375 9.28515625 C11.09925179 10.87730226 12.7372652 12.46975792 14.375 14.0625 C15.21933594 14.86494141 16.06367187 15.66738281 16.93359375 16.49414062 C17.72636719 17.27080078 18.51914062 18.04746094 19.3359375 18.84765625 C20.06345215 19.54898682 20.7909668 20.25031738 21.54052734 20.97290039 C23 23 23 23 22.72900391 25.25952148 C22.36814697 26.12105835 22.36814697 26.12105835 22 27 C21.34 27 20.68 27 20 27 C19.89414078 27.59383484 19.78828156 28.18766968 19.67921448 28.79949951 C18.90129576 31.31977931 17.99713478 32.36684599 16.13256836 34.20800781 C15.53202133 34.80832825 14.9314743 35.40864868 14.31272888 36.02716064 C13.66167679 36.66272888 13.01062469 37.29829712 12.33984375 37.953125 C11.67537735 38.61334656 11.01091095 39.27356812 10.3263092 39.95379639 C8.20364437 42.0596764 6.07078395 44.15488328 3.9375 46.25 C2.49606066 47.67639232 1.05529691 49.1034677 -0.38476562 50.53125 C-3.91538832 54.02880594 -7.45519053 57.51682565 -11 61 C-10.01 61.99 -9.02 62.98 -8 64 C-5.69 62.35 -3.38 60.7 -1 59 C-2.34156431 61.90779249 -3.86107035 64.2517899 -5.9375 66.6875 C-6.44152344 67.28949219 -6.94554687 67.89148438 -7.46484375 68.51171875 C-9 70 -9 70 -12 71 C-13.54436126 72.52344853 -13.54436126 72.52344853 -15.0625 74.4375 C-19.41707889 79.58636904 -24.19141362 84.27849064 -29 89 C-29 86 -29 86 -26.375 83.08203125 C-25.25750594 81.98449244 -24.13214357 80.89492105 -23 79.8125 C-22.42765625 79.25369141 -21.8553125 78.69488281 -21.265625 78.11914062 C-19.85037212 76.73926907 -18.42602845 75.36873266 -17 74 C-17.95729916 72.87411986 -18.91587895 71.7493285 -19.875 70.625 C-20.40867187 69.99851562 -20.94234375 69.37203125 -21.4921875 68.7265625 C-22.61432007 67.44163349 -23.79371975 66.20628025 -25 65 C-26.07006836 62.36279297 -26.07006836 62.36279297 -26 59 C-24.01869587 56.01092927 -21.46970675 53.65735985 -18.87890625 51.1953125 C-18.14502182 50.4713327 -17.41113739 49.74735291 -16.65501404 49.00143433 C-14.30674938 46.6923607 -11.93533225 44.40879404 -9.5625 42.125 C-7.96651306 40.56411992 -6.37209106 39.00163798 -4.77929688 37.4375 C-0.87083493 33.60622603 3.05691943 29.7956181 7 26 C5.65272739 23.20429836 4.40293767 21.16032197 2.1796875 18.984375 C1.37724609 18.19160156 1.37724609 18.19160156 0.55859375 17.3828125 C0.00300781 16.84398437 -0.55257812 16.30515625 -1.125 15.75 C-1.96998047 14.91855469 -1.96998047 14.91855469 -2.83203125 14.0703125 C-4.21686028 12.70895515 -5.60783204 11.35385141 -7 10 C-7.43570313 10.37511719 -7.87140625 10.75023437 -8.3203125 11.13671875 C-12.18607599 14.45859777 -16.07657648 17.74642927 -20 21 C-18.70795512 18.15696339 -17.35098217 16.10240156 -15.13671875 13.90625 C-14.57919922 13.35066406 -14.02167969 12.79507813 -13.44726562 12.22265625 C-12.86654297 11.65417969 -12.28582031 11.08570313 -11.6875 10.5 C-11.11837891 9.93152344 -10.54925781 9.36304688 -9.96289062 8.77734375 C-6.7879178 5.63517776 -3.55335385 2.72001571 0 0 Z " fill="#E1E1E1" transform="translate(844,156)"/>
<path d="M0 0 C0.66 0.33 1.32 0.66 2 1 C0.68 2.32 -0.64 3.64 -2 5 C-1.34 6.65 -0.68 8.3 0 10 C-1.06012706 11.23121385 -2.12324005 12.45985685 -3.1875 13.6875 C-3.77917969 14.37199219 -4.37085938 15.05648437 -4.98046875 15.76171875 C-7 18 -7 18 -9.6953125 20.0703125 C-13.17417823 24.49259944 -12.70516768 28.71405314 -12.6875 34.1875 C-12.70403891 36.18107449 -12.7283849 38.17460435 -12.76171875 40.16796875 C-12.76131592 41.04735107 -12.76091309 41.9267334 -12.76049805 42.83276367 C-13 45 -13 45 -15 47 C-19.12550413 47.51085424 -23.28397171 47.41676691 -27.4375 47.4375 C-28.59572266 47.47037109 -29.75394531 47.50324219 -30.94726562 47.53710938 C-32.05650391 47.54419922 -33.16574219 47.55128906 -34.30859375 47.55859375 C-35.32751709 47.57204834 -36.34644043 47.58550293 -37.39624023 47.59936523 C-40 47 -40 47 -41.83520508 44.66503906 C-45.01387331 37.39227812 -43.69338872 25.73207678 -42 18 C-40 16 -40 16 -38.01977539 15.85571289 C-37.22047607 15.8943042 -36.42117676 15.93289551 -35.59765625 15.97265625 C-24.84274051 16.62445615 -24.84274051 16.62445615 -15.33984375 12.52734375 C-13.39317103 10.6110433 -11.83909939 8.64523521 -10.15625 6.46875 C-7.70501975 3.66226899 -6.6011452 3.39208449 -3 3 C-1.20614008 1.5420814 -1.20614008 1.5420814 0 0 Z M-32 27 C-32 29.97 -32 32.94 -32 36 C-29.03 36 -26.06 36 -23 36 C-23 33.03 -23 30.06 -23 27 C-25.97 27 -28.94 27 -32 27 Z " fill="#CACACA" transform="translate(792,227)"/>
<path d="M0 0 C4.00517396 1.60373148 6.6771098 4.42113986 9.640625 7.4453125 C10.43119293 8.24012527 10.43119293 8.24012527 11.23773193 9.05099487 C12.91325675 10.73767825 14.58167722 12.43119564 16.25 14.125 C17.38755851 15.27259388 18.52557436 16.41973461 19.6640625 17.56640625 C22.44803465 20.37238137 25.2256576 23.18450464 28 26 C27.67 26.66 27.34 27.32 27 28 C18.75 19.75 10.5 11.5 2 3 C0.35 4.32 -1.3 5.64 -3 7 C-2.505 8.485 -2.505 8.485 -2 10 C-1.34 10.33 -0.68 10.66 0 11 C-0.43840551 15.43751914 -3.49370831 18.01397367 -6.4375 21.0625 C-10.4809307 25.31067232 -10.4809307 25.31067232 -14 30 C-7.8990701 36.92617646 -1.58695525 43.536808 5 50 C4.34 50.66 3.68 51.32 3 52 C1.79557292 50.4375 0.59114583 48.875 -0.61328125 47.3125 C-2.04491137 45.65629795 -2.04491137 45.65629795 -5 46 C-5.66 46.99 -6.32 47.98 -7 49 C-10.36602602 47.55313358 -12.43814568 45.72022925 -14.9375 43.0625 C-17.76056882 40.15500295 -20.33670552 37.83164724 -24 36 C-24.20625 36.53625 -24.4125 37.0725 -24.625 37.625 C-26.5056462 40.87338889 -28.83807678 43.91978735 -32 46 C-34.0546875 45.859375 -34.0546875 45.859375 -36 45 C-38.25 41.9375 -38.25 41.9375 -40 39 C-36.77049095 34.86219153 -33.36095085 31.45234184 -29.37109375 28.05078125 C-26.52723454 25.59110071 -23.76322106 23.04920222 -21 20.5 C-13.60310576 13.70605662 -13.60310576 13.70605662 -10.375 10.8125 C-9.76398437 10.26207031 -9.15296875 9.71164063 -8.5234375 9.14453125 C-7 8 -7 8 -5 8 C-4.731875 7.4225 -4.46375 6.845 -4.1875 6.25 C-2.98280141 3.9674132 -1.59201885 2.0262058 0 0 Z " fill="#CDCDCD" transform="translate(931,201)"/>
<path d="M0 0 C3.47899158 1.39159663 4.48052501 2.63251488 6 6 C5.16855469 6.80824219 4.33710937 7.61648437 3.48046875 8.44921875 C2.38254541 9.52837417 1.28490401 10.60781647 0.1875 11.6875 C-0.35970703 12.21794922 -0.90691406 12.74839844 -1.47070312 13.29492188 C-4.55198904 16.33885887 -6.84246568 19.21099683 -9 23 C-12.97814208 26.06010929 -12.97814208 26.06010929 -16.125 25.875 C-18.23306099 24.89123821 -19.48111881 23.74671337 -21 22 C-19.58683112 18.79112361 -17.89115422 16.64477563 -15.41015625 14.1796875 C-14.70826172 13.47972656 -14.00636719 12.77976563 -13.28320312 12.05859375 C-12.55037109 11.33800781 -11.81753906 10.61742187 -11.0625 9.875 C-10.33353516 9.14667969 -9.60457031 8.41835937 -8.85351562 7.66796875 C-5.98624216 4.82434832 -3.36994192 2.24662795 0 0 Z " fill="#AFAFAF" transform="translate(900,158)"/>
<path d="M0 0 C4.93122588 1.16028844 6.69653301 3.96752015 9.44140625 7.91015625 C10.94543507 9.9268365 12.51549799 11.50300994 14.375 13.1875 C17 16 17 16 17.625 18.6875 C16.82119972 21.66156105 15.4740053 22.2898808 13 24 C6.9385027 18.73428586 0.95711729 13.38337853 -5 8 C-4.6875 6.0625 -4.6875 6.0625 -4 4 C-3.01 3.67 -2.02 3.34 -1 3 C-0.67 2.01 -0.34 1.02 0 0 Z " fill="#C9C9C9" transform="translate(933,134)"/>
<path d="M0 0 C2.98716787 0.90697997 3.81664653 1.73030657 5.7109375 4.16015625 C8.79522842 7.92148665 12.06921982 11.36861692 15.5234375 14.78515625 C16.02053223 15.27806152 16.51762695 15.7709668 17.02978516 16.27880859 C18.2130897 17.44969651 19.39920758 18.6177402 20.5859375 19.78515625 C19.9259375 20.44515625 19.2659375 21.10515625 18.5859375 21.78515625 C16.77929688 19.44140625 16.77929688 19.44140625 14.97265625 17.09765625 C13.54102613 15.4414542 13.54102613 15.4414542 10.5859375 15.78515625 C9.9259375 16.77515625 9.2659375 17.76515625 8.5859375 18.78515625 C5.19128395 17.32705003 3.06342037 15.44748897 0.5234375 12.78515625 C-1.75060106 10.41072827 -3.65928179 8.62167673 -6.4140625 6.78515625 C-6.01406533 4.46517266 -5.50838371 2.92192201 -4.1640625 0.97265625 C-2.4140625 -0.21484375 -2.4140625 -0.21484375 0 0 Z " fill="#BCBCBC" transform="translate(915.4140625,231.21484375)"/>
<path d="M0 0 C3.76603869 1.56282982 6.13639151 3.9063475 8.984375 6.7890625 C9.44483215 7.25234955 9.90528931 7.7156366 10.37969971 8.19296265 C11.84125078 9.66565898 13.29567168 11.14517403 14.75 12.625 C15.74302611 13.62806322 16.73651089 14.63067257 17.73046875 15.6328125 C20.15897941 18.08330835 22.58114675 20.5399667 25 23 C25.66 22.67 26.32 22.34 27 22 C27.4125 22.804375 27.825 23.60875 28.25 24.4375 C29.72024397 27.12531392 29.72024397 27.12531392 32.0625 27.75 C32.701875 27.8325 33.34125 27.915 34 28 C34.66 28.33 35.32 28.66 36 29 C34.02 29.99 34.02 29.99 32 31 C24.99967862 26.14904914 19.10708003 20.381974 13.14257812 14.34838867 C11.48110582 12.6683952 9.811503 10.99680617 8.140625 9.32617188 C7.08285579 8.26349596 6.02554645 7.20036205 4.96875 6.13671875 C4.46887573 5.63573166 3.96900146 5.13474457 3.45397949 4.61857605 C0 1.1161316 0 1.1161316 0 0 Z " fill="#F0F0F0" transform="translate(852,155)"/>
<path d="M0 0 C2.93200474 2.85276137 5.64315404 5.65079784 8 9 C5.11562221 7.70700306 3.12780579 6.34058637 1 4 C-2.16115776 5.36983503 -2.9927092 5.9890638 -5 9 C-2.36 11.64 0.28 14.28 3 17 C2.67 17.66 2.34 18.32 2 19 C0.46452525 17.59921602 -1.05305148 16.17879097 -2.5625 14.75 C-3.40941406 13.96109375 -4.25632812 13.1721875 -5.12890625 12.359375 C-7 10 -7 10 -6.8984375 7.87109375 C-5.3105029 4.56404734 -3.31722845 1.65861423 0 0 Z " fill="#E6E6E6" transform="translate(844,228)"/>
<path d="M0 0 C0.99 0.33 1.98 0.66 3 1 C0.36 3.64 -2.28 6.28 -5 9 C-5.33 8.01 -5.66 7.02 -6 6 C-4.02 4.02 -2.04 2.04 0 0 Z " fill="#C7C7C7" transform="translate(914,142)"/>
<path d="M0 0 C0 4.00937358 -1.3426835 5.05432695 -4 8 C-5.77467039 9.54457155 -7.58940508 11.04408056 -9.4375 12.5 C-13.20396546 15.47545533 -16.65646434 18.55330625 -20 22 C-20.99 21.67 -21.98 21.34 -23 21 C-22.59652344 20.65710938 -22.19304688 20.31421875 -21.77734375 19.9609375 C-14.31609281 13.52937087 -7.17870846 6.742658 0 0 Z " fill="#EDEDED" transform="translate(930,201)"/>
<path d="M0 0 C-1.3584202 3.04332765 -2.88463024 5.12309151 -5.2578125 7.453125 C-5.88300781 8.071875 -6.50820313 8.690625 -7.15234375 9.328125 C-7.80332031 9.96234375 -8.45429687 10.5965625 -9.125 11.25 C-9.78371094 11.8996875 -10.44242188 12.549375 -11.12109375 13.21875 C-12.74296643 14.81711727 -14.3693281 16.41061897 -16 18 C-16.33 17.01 -16.66 16.02 -17 15 C-14.54976242 12.49195282 -12.08852402 9.9949924 -9.625 7.5 C-8.57699219 6.42685547 -8.57699219 6.42685547 -7.5078125 5.33203125 C-6.8375 4.65527344 -6.1671875 3.97851562 -5.4765625 3.28125 C-4.85861816 2.65283203 -4.24067383 2.02441406 -3.60400391 1.37695312 C-2 0 -2 0 0 0 Z " fill="#E2E2E2" transform="translate(69,80)"/>
<path d="M0 0 C3.89702108 1.57693411 6.2489773 4.11161502 9.125 7.125 C10.71189226 8.78723433 12.32909178 10.42224346 14 12 C14.66 12 15.32 12 16 12 C20 16.47058824 20 16.47058824 20 19 C16.75723273 17.576445 14.59906696 15.84528935 12.109375 13.33984375 C11.40039062 12.62892578 10.69140625 11.91800781 9.9609375 11.18554688 C9.23132813 10.44369141 8.50171875 9.70183594 7.75 8.9375 C7.00492188 8.19177734 6.25984375 7.44605469 5.4921875 6.67773438 C0 1.14028159 0 1.14028159 0 0 Z " fill="#F3F3F3" transform="translate(930,144)"/>
<path d="M0 0 C1.32 0.33 2.64 0.66 4 1 C0.535 3.97 0.535 3.97 -3 7 C-3.66 6.34 -4.32 5.68 -5 5 C-2.75 2.4375 -2.75 2.4375 0 0 Z " fill="#EFEFEF" transform="translate(790,225)"/>
<path d="M0 0 C0.99 0.33 1.98 0.66 3 1 C-0.465 3.97 -0.465 3.97 -4 7 C-4 4 -4 4 -2 1.8125 C-1.34 1.214375 -0.68 0.61625 0 0 Z " fill="#BDBDBD" transform="translate(847,139)"/>
<path d="M0 0 C2.88437779 1.29299694 4.87219421 2.65941363 7 5 C3 5 3 5 1.25 3.625 C0 2 0 2 0 0 Z " fill="#F2F2F2" transform="translate(891,243)"/>
</svg>
