<?xml version="1.0" encoding="UTF-8"?>
<svg version="1.1" xmlns="http://www.w3.org/2000/svg" width="1170" height="585">
<path d="M0 0 C1.10923828 0.00064453 2.21847656 0.00128906 3.36132812 0.00195312 C5.09866211 0.02612305 5.09866211 0.02612305 6.87109375 0.05078125 C8.03318359 0.04755859 9.19527344 0.04433594 10.39257812 0.04101562 C19.04167429 0.09636179 19.04167429 0.09636179 21.30859375 2.36328125 C21.39678097 4.25641155 21.39678097 4.25641155 21.21165466 6.57267761 C20.82345684 15.39255244 20.80819165 22.77845894 26.6314249 29.82724476 C29.89947764 33.32392917 33.33462144 36.59923962 36.84375 39.8515625 C38.3264121 41.29683053 39.80465354 42.74664605 41.27867126 44.20072937 C45.13386671 47.98026429 49.04519752 51.69581402 52.97235107 55.40032959 C56.98348316 59.20529678 60.93723088 63.06894204 64.89648438 66.92773438 C72.64608668 74.46409685 80.45639418 81.93397762 88.30859375 89.36328125 C89.43425282 88.40350915 90.55919733 87.44289895 91.68383789 86.48193359 C92.31036758 85.94708344 92.93689728 85.41223328 93.58241272 84.86117554 C95.3782822 83.30280907 97.0852128 81.6896715 98.74609375 79.98828125 C99.59171875 79.12203125 100.43734375 78.25578125 101.30859375 77.36328125 C98.72335517 71.67575637 95.04597615 66.18347326 89.30859375 63.36328125 C83.06751551 62.09722347 76.63793658 62.34246681 70.3046875 62.63696289 C69.64597656 62.54664795 68.98726562 62.45633301 68.30859375 62.36328125 C65.20166161 57.70288304 65.98005995 52.90613404 65.99609375 47.42578125 C65.97998047 46.32814453 65.96386719 45.23050781 65.94726562 44.09960938 C65.94662109 43.04322266 65.94597656 41.98683594 65.9453125 40.8984375 C65.94233154 39.93301025 65.93935059 38.96758301 65.9362793 37.97290039 C66.38152492 34.85209355 66.99463161 33.50625331 69.30859375 31.36328125 C71.8046875 30.87744141 71.8046875 30.87744141 74.74609375 30.90234375 C75.80570313 30.90621094 76.8653125 30.91007812 77.95703125 30.9140625 C79.61605469 30.95080078 79.61605469 30.95080078 81.30859375 30.98828125 C82.41460938 30.98957031 83.520625 30.99085938 84.66015625 30.9921875 C92.88706662 31.08226316 92.88706662 31.08226316 96.30859375 33.36328125 C96.42358398 35.20068359 96.42358398 35.20068359 96.1171875 37.44921875 C95.54242232 44.59331679 95.03852808 51.12913966 99.32177734 57.23144531 C104.30793085 62.74210251 109.83263975 67.61789045 115.60205078 72.29296875 C117.30859375 74.36328125 117.30859375 74.36328125 117.32592773 76.84448242 C116.09944521 79.88110835 114.62010898 81.50803218 112.2734375 83.7890625 C111.46455078 84.58505859 110.65566406 85.38105469 109.82226562 86.20117188 C108.97212891 87.01779297 108.12199219 87.83441406 107.24609375 88.67578125 C106.39208984 89.51173828 105.53808594 90.34769531 104.65820312 91.20898438 C102.55038063 93.26970469 100.43379526 95.32051334 98.30859375 97.36328125 C100.00445501 100.99631209 102.04659863 103.30877171 104.93359375 106.11328125 C105.75085938 106.9125 106.568125 107.71171875 107.41015625 108.53515625 C108.03664063 109.1384375 108.663125 109.74171875 109.30859375 110.36328125 C112.98929262 108.82684273 115.29634579 106.5817718 118.05859375 103.73828125 C118.8578125 102.92101562 119.65703125 102.10375 120.48046875 101.26171875 C121.08375 100.63523437 121.68703125 100.00875 122.30859375 99.36328125 C127.1292724 103.43503632 131.82493248 107.6158579 136.43359375 111.92578125 C137.07304932 112.52277832 137.71250488 113.11977539 138.37133789 113.73486328 C144.83073458 119.79846166 151.0919316 126.05226841 157.30859375 132.36328125 C161.38235406 130.75317598 164.07366444 127.82505854 167.05859375 124.73828125 C167.56519531 124.22265625 168.07179688 123.70703125 168.59375 123.17578125 C169.83663277 121.90944786 171.07324651 120.63696685 172.30859375 119.36328125 C169.36860119 115.75129039 166.34603846 112.36377185 162.98046875 109.14453125 C162.38903076 108.57436279 161.79759277 108.00419434 161.18823242 107.41674805 C159.982513 106.26157068 158.76652844 105.11700779 157.5402832 103.98364258 C155.84375 102.3515625 155.84375 102.3515625 153.30859375 99.36328125 C153.83705677 94.63690338 156.1318337 91.23197518 159.73071289 88.27050781 C168.05139739 81.21790307 175.8669274 73.59423734 183.68910122 65.99752426 C186.49070118 63.27860457 189.3068269 60.57963106 192.16479492 57.91992188 C207.00677732 45.24967948 207.00677732 45.24967948 214.12281799 28.0737915 C214.09520033 25.69151095 213.91533578 23.40336481 213.62524414 21.04003906 C213.30859375 17.36328125 213.30859375 17.36328125 214.41967773 14.87939453 C216.96212625 12.83873209 218.50524509 12.87490629 221.74609375 12.90234375 C222.80570313 12.90621094 223.8653125 12.91007813 224.95703125 12.9140625 C226.06304688 12.93855469 227.1690625 12.96304688 228.30859375 12.98828125 C229.41460938 12.98957031 230.520625 12.99085938 231.66015625 12.9921875 C239.88706662 13.08226316 239.88706662 13.08226316 243.30859375 15.36328125 C244.89858749 20.65370581 244.25284922 26.10264129 243.99609375 31.55078125 C243.96064453 32.56076172 243.92519531 33.57074219 243.88867188 34.61132812 C243.82389648 36.05668945 243.82389648 36.05668945 243.7578125 37.53125 C243.70113403 38.85032349 243.70113403 38.85032349 243.64331055 40.19604492 C243.30859375 42.36328125 243.30859375 42.36328125 241.30859375 44.36328125 C239.43603516 44.50756836 239.43603516 44.50756836 237.16015625 44.390625 C236.31839844 44.37966797 235.47664063 44.36871094 234.609375 44.35742188 C232.86345148 44.32046437 231.11782001 44.24909482 229.375 44.13867188 C222.69770074 44.14370755 219.19039609 46.45814255 214.47836304 51.0680542 C213.38353441 52.17427776 212.29570926 53.28745747 211.21331787 54.40585327 C209.04033426 56.6389635 206.8278525 58.82843667 204.60986328 61.0168457 C199.23114339 66.33347078 193.89378377 71.69053229 188.55859375 77.05078125 C186.68643243 78.92796829 184.81403843 80.8049233 182.94140625 82.68164062 C178.3944497 87.23951624 173.85037248 91.80024637 169.30859375 96.36328125 C170.78302295 99.45834085 172.265944 101.54163729 174.74609375 103.92578125 C175.34292969 104.50457031 175.93976563 105.08335937 176.5546875 105.6796875 C177.42287109 106.51306641 177.42287109 106.51306641 178.30859375 107.36328125 C179.30995976 108.36191337 180.31017283 109.36170466 181.30859375 110.36328125 C182.02402344 109.64261475 182.73945312 108.92194824 183.4765625 108.17944336 C186.16517259 105.47255213 188.85723937 102.76912026 191.55029297 100.06665039 C192.70909694 98.90285851 193.86699697 97.73816576 195.02392578 96.57250977 C196.69969952 94.88442481 198.37884129 93.19974987 200.05859375 91.515625 C200.56414795 91.00490952 201.06970215 90.49419403 201.59057617 89.96800232 C204.33167555 87.2264888 207.1388054 84.62026071 210.08007812 82.09399414 C215.02937919 77.8052248 219.6079842 73.17012211 224.21484375 68.51953125 C225.62722307 67.10136475 227.03960536 65.68320118 228.45215607 64.26520538 C230.90646876 61.80004993 233.35743908 59.33157616 235.80859375 56.86328125 C238.73796578 53.91342494 241.6679566 50.96420286 244.60192871 48.0189209 C246.42079988 46.19259696 248.23742027 44.36402764 250.0513916 42.53283691 C255.85797706 36.70326618 261.77211898 31.11958259 268.265625 26.05859375 C271.33882928 22.0040795 271.01387765 18.19643247 270.99609375 13.23828125 C271.0126846 11.44391657 271.0370878 9.64960252 271.0703125 7.85546875 C271.06990967 7.0651123 271.06950684 6.27475586 271.0690918 5.46044922 C271.30859375 3.36328125 271.30859375 3.36328125 273.30859375 0.36328125 C275.890625 -0.02490234 275.890625 -0.02490234 279.12109375 -0.03515625 C280.27867187 -0.03902344 281.43625 -0.04289063 282.62890625 -0.046875 C284.45035156 -0.02947266 284.45035156 -0.02947266 286.30859375 -0.01171875 C287.52289062 -0.02332031 288.7371875 -0.03492188 289.98828125 -0.046875 C291.72464844 -0.04107422 291.72464844 -0.04107422 293.49609375 -0.03515625 C294.56214844 -0.03177246 295.62820313 -0.02838867 296.7265625 -0.02490234 C297.57863281 0.10319824 298.43070313 0.23129883 299.30859375 0.36328125 C301.57897676 3.76885577 301.56530933 5.02047299 301.57421875 9.01953125 C301.57679688 10.12425781 301.579375 11.22898438 301.58203125 12.3671875 C301.57429688 13.52089844 301.5665625 14.67460937 301.55859375 15.86328125 C301.56632812 17.01699219 301.5740625 18.17070312 301.58203125 19.359375 C301.57816406 21.01646484 301.57816406 21.01646484 301.57421875 22.70703125 C301.57196289 23.71958984 301.56970703 24.73214844 301.56738281 25.77539062 C301.30859375 28.36328125 301.30859375 28.36328125 299.30859375 31.36328125 C297.32836914 31.62109375 297.32836914 31.62109375 294.90625 31.48828125 C284.11077957 30.79151118 284.11077957 30.79151118 274.54296875 34.8671875 C271.85175916 37.47281995 269.62073661 40.42099464 267.30859375 43.36328125 C266.64859375 43.36328125 265.98859375 43.36328125 265.30859375 43.36328125 C264.97859375 44.35328125 264.64859375 45.34328125 264.30859375 46.36328125 C262.82678223 47.8250885 262.82678223 47.8250885 260.89648438 49.40649414 C255.61897376 53.88802567 250.78196546 58.76491252 245.90234375 63.671875 C244.9275073 64.64858135 243.95244626 65.62506359 242.97717285 66.60133362 C240.43673074 69.14555586 237.89930866 71.69276861 235.36254883 74.24066162 C232.76308248 76.85044007 230.16070881 79.45731607 227.55859375 82.06445312 C222.47244457 87.16125997 217.38948905 92.26123633 212.30859375 97.36328125 C213.26369095 98.48448282 214.21977326 99.60484526 215.17626953 100.72485352 C215.70858185 101.34884537 216.24089417 101.97283722 216.78933716 102.61573792 C218.51049673 104.59552261 220.31016675 106.46482279 222.18359375 108.30078125 C222.77914063 108.88730469 223.3746875 109.47382813 223.98828125 110.078125 C224.42398437 110.50222656 224.8596875 110.92632812 225.30859375 111.36328125 C228.89693792 108.36945564 232.37501677 105.3545833 235.62109375 101.98828125 C238.30859375 99.36328125 238.30859375 99.36328125 240.30859375 99.36328125 C240.29812012 98.73760254 240.28764648 98.11192383 240.27685547 97.46728516 C240.23536184 94.64099115 240.20928902 91.81476114 240.18359375 88.98828125 C240.16683594 88.0034375 240.15007812 87.01859375 240.1328125 86.00390625 C240.12636719 85.06289062 240.11992188 84.121875 240.11328125 83.15234375 C240.10280762 82.28303223 240.09233398 81.4137207 240.08154297 80.51806641 C240.30859375 78.36328125 240.30859375 78.36328125 242.30859375 76.36328125 C246.43610523 75.90512137 250.59610143 76.03927267 254.74609375 76.05078125 C255.90431641 76.03466797 257.06253906 76.01855469 258.25585938 76.00195312 C259.36509766 76.00130859 260.47433594 76.00066406 261.6171875 76 C263.14557251 75.99552856 263.14557251 75.99552856 264.70483398 75.9909668 C267.30859375 76.36328125 267.30859375 76.36328125 269.14160156 77.5324707 C270.77585555 80.09633486 270.68078823 81.99192285 270.671875 85.01953125 C270.67123047 86.12425781 270.67058594 87.22898437 270.66992188 88.3671875 C270.65380859 89.52089844 270.63769531 90.67460937 270.62109375 91.86328125 C270.62592773 93.59384766 270.62592773 93.59384766 270.63085938 95.359375 C270.57564548 103.96270365 270.57564548 103.96270365 268.30859375 107.36328125 C266.28076172 107.68457031 266.28076172 107.68457031 263.80078125 107.62890625 C262.90029053 107.62737549 261.9997998 107.62584473 261.07202148 107.62426758 C260.11884033 107.62064209 259.16565918 107.6170166 258.18359375 107.61328125 C256.25447946 107.66141654 254.32578262 107.73252289 252.3984375 107.828125 C251.533396 107.86284912 250.66835449 107.89757324 249.77709961 107.93334961 C244.81872022 108.79693443 242.31413737 111.57285044 239.30859375 115.36328125 C237.73116289 116.98436891 236.11777419 118.56424566 234.50024414 120.14526367 C232.07232544 122.52132323 229.692735 124.94337789 227.30859375 127.36328125 C223.13360211 125.98776196 220.72733782 124.13750989 217.6640625 121.01171875 C216.82294922 120.1609375 215.98183594 119.31015625 215.11523438 118.43359375 C213.81875977 117.09941406 213.81875977 117.09941406 212.49609375 115.73828125 C211.61244141 114.84109375 210.72878906 113.94390625 209.81835938 113.01953125 C207.6415195 110.80739127 205.47199711 108.58855052 203.30859375 106.36328125 C198.7740741 110.2015712 194.45957459 114.11105697 190.30859375 118.36328125 C192.30082313 123.11821547 195.95004479 126.29608356 199.5078125 129.92578125 C201.30859375 132.36328125 201.30859375 132.36328125 201.11694336 134.30371094 C200.16528011 136.72842588 199.04945303 137.95171679 197.17578125 139.75390625 C196.53793701 140.37692627 195.90009277 140.99994629 195.24291992 141.6418457 C194.56334229 142.29241943 193.88376465 142.94299316 193.18359375 143.61328125 C191.80025693 144.96427823 190.41871981 146.31712066 189.0390625 147.671875 C188.38341309 148.31495605 187.72776367 148.95803711 187.05224609 149.62060547 C184.55812431 152.11333038 182.27526932 154.75178508 180.00390625 157.4453125 C176.31740626 161.61598415 172.27881573 165.46495464 168.30859375 169.36328125 C169.67762654 172.43180303 171.23821891 174.56404055 173.62109375 176.92578125 C174.19472656 177.50457031 174.76835938 178.08335937 175.359375 178.6796875 C177.53336121 180.55741907 179.8128897 181.95005124 182.30859375 183.36328125 C184.1441676 181.69902762 185.97731214 180.03224906 187.80859375 178.36328125 C188.35523682 177.86650879 188.90187988 177.36973633 189.46508789 176.85791016 C193.3172879 173.33489505 196.97221703 169.68279935 200.4921875 165.82421875 C202.89152654 163.89442778 204.21465381 163.45832643 207.30859375 163.36328125 C209.45752575 165.03414717 211.07682398 166.56345604 212.88305664 168.55810547 C213.41736801 169.12206024 213.95167938 169.68601501 214.50218201 170.26705933 C215.66356369 171.49485503 216.81835347 172.72891158 217.96730232 173.96834946 C219.79846494 175.93647126 221.65311786 177.87924756 223.51719666 179.81619263 C228.81559689 185.32499449 234.09131085 190.85338701 239.29418945 196.45263672 C242.48050124 199.87801931 245.71334779 203.25334253 248.9791851 206.60290909 C250.20632262 207.87973243 251.41581496 209.17379164 252.6054554 210.48562241 C258.89076872 217.40315241 263.66692587 221.83614278 273.29849148 222.44006538 C276.66359777 222.48571098 280.00577549 222.38905629 283.36162472 222.13435555 C285.30859375 222.36328125 285.30859375 222.36328125 287.04528904 223.69862175 C288.92956787 226.18154026 288.68053493 228.19167234 288.671875 231.2734375 C288.67123047 232.42779297 288.67058594 233.58214844 288.66992188 234.77148438 C288.65380859 235.97740234 288.63769531 237.18332031 288.62109375 238.42578125 C288.62592773 240.24045898 288.62592773 240.24045898 288.63085938 242.09179688 C288.575493 251.096382 288.575493 251.096382 286.30859375 253.36328125 C283.7265625 253.62207031 283.7265625 253.62207031 280.49609375 253.62890625 C279.33851563 253.63148438 278.1809375 253.6340625 276.98828125 253.63671875 C275.77398438 253.62898437 274.5596875 253.62125 273.30859375 253.61328125 C272.09429688 253.62101563 270.88 253.62875 269.62890625 253.63671875 C267.89253906 253.63285156 267.89253906 253.63285156 266.12109375 253.62890625 C264.52201172 253.62552246 264.52201172 253.62552246 262.890625 253.62207031 C260.30859375 253.36328125 260.30859375 253.36328125 258.30859375 251.36328125 C258.54848022 249.45929565 258.54848022 249.45929565 258.79321289 247.5168457 C259.68333261 240.00580373 259.45395533 233.60273374 255.17108154 227.13568115 C248.79584017 219.13559467 241.08344304 212.21522347 233.5982666 205.27966309 C230.49184483 202.38002217 227.44314819 199.42093702 224.38867188 196.46679688 C218.41601323 190.70690614 212.3838865 185.01480687 206.30859375 179.36328125 C202.46436779 181.13824439 200.1161386 183.41567455 197.18359375 186.48828125 C195.59670149 188.15051558 193.97950197 189.78552471 192.30859375 191.36328125 C191.64859375 191.36328125 190.98859375 191.36328125 190.30859375 191.36328125 C196.10363845 198.17245877 202.11105802 204.63039286 208.90625 210.453125 C215.10294187 215.84445509 220.76839335 221.77946248 226.53125 227.625 C230.98594575 232.11860139 235.47988799 236.44786746 240.28515625 240.5625 C244.39431507 244.2194927 248.20087502 248.19500179 252.05859375 252.11328125 C253.71767055 253.79792163 255.37904163 255.48030638 257.04296875 257.16015625 C258.12916504 258.26375488 258.12916504 258.26375488 259.23730469 259.38964844 C261.25949866 261.40552038 261.25949866 261.40552038 263.57519531 263.00097656 C264.1472168 263.45053711 264.71923828 263.90009766 265.30859375 264.36328125 C265.30859375 265.02328125 265.30859375 265.68328125 265.30859375 266.36328125 C266.19224609 266.71712891 266.19224609 266.71712891 267.09375 267.078125 C269.77700425 268.635075 270.89624157 270.44737714 272.74609375 272.92578125 C276.98827564 277.41834487 280.3963458 277.90668451 286.29711914 278.15405273 C288.20905931 278.16844525 290.12142086 278.15529064 292.03295898 278.11352539 C292.92571533 278.09926514 293.81847168 278.08500488 294.73828125 278.0703125 C295.54507324 278.03397705 296.35186523 277.9976416 297.18310547 277.96020508 C299.30859375 278.36328125 299.30859375 278.36328125 301.06933594 280.03564453 C302.56761822 282.84979411 302.69588542 284.71842558 302.70703125 287.8984375 C302.71089844 288.95482422 302.71476562 290.01121094 302.71875 291.09960938 C302.70714844 292.19724609 302.69554687 293.29488281 302.68359375 294.42578125 C302.69519531 295.52728516 302.70679688 296.62878906 302.71875 297.76367188 C302.71488281 298.81876953 302.71101563 299.87386719 302.70703125 300.9609375 C302.70364746 301.92523682 302.70026367 302.88953613 302.69677734 303.88305664 C302.30859375 306.36328125 302.30859375 306.36328125 301.1394043 308.17822266 C298.56858833 309.84227662 296.66546815 309.73548053 293.6171875 309.7265625 C292.50794922 309.72591797 291.39871094 309.72527344 290.25585938 309.72460938 C288.51852539 309.70043945 288.51852539 309.70043945 286.74609375 309.67578125 C285.58400391 309.67900391 284.42191406 309.68222656 283.22460938 309.68554688 C274.57551321 309.63020071 274.57551321 309.63020071 272.30859375 307.36328125 C272.05146889 304.75697019 271.88817416 302.22539128 271.80859375 299.61328125 C271.51330032 290.12915097 269.61035708 285.02581046 262.68359375 278.42578125 C262.09191406 277.84376953 261.50023437 277.26175781 260.890625 276.66210938 C257.82609687 273.67369804 254.68741757 270.80544451 251.44140625 268.015625 C245.78600614 263.11386753 240.6213214 257.72115702 235.375 252.390625 C231.14486352 248.11935267 226.85168721 244.03349456 222.29101562 240.11865234 C218.63806626 236.88408264 215.23669642 233.39514812 211.80859375 229.92578125 C211.0815625 229.19423828 210.35453125 228.46269531 209.60546875 227.70898438 C207.83749876 225.92938301 206.07192997 224.14747207 204.30859375 222.36328125 C200.34451198 224.16848578 197.88737503 226.7483399 195.05859375 229.98828125 C194.5996875 230.50390625 194.14078125 231.01953125 193.66796875 231.55078125 C192.54267079 232.81674145 191.42487198 234.08936067 190.30859375 235.36328125 C191.45521484 236.46929687 191.45521484 236.46929687 192.625 237.59765625 C195.30859375 240.36328125 195.30859375 240.36328125 196.7734375 242.56640625 C199.26757431 246.03305794 201.45622615 248.05995469 205.79248047 248.77001953 C209.77349333 249.0797068 213.7220727 249.18352608 217.71459961 249.15136719 C219.13397827 249.14218262 219.13397827 249.14218262 220.58203125 249.1328125 C221.44231934 249.10807861 222.30260742 249.08334473 223.18896484 249.05786133 C223.88844238 249.1586499 224.58791992 249.25943848 225.30859375 249.36328125 C228.39710851 253.99605339 227.94076009 258.84021908 228.18359375 264.30078125 C228.25578125 265.39841797 228.32796875 266.49605469 228.40234375 267.62695312 C228.45132812 268.68333984 228.5003125 269.73972656 228.55078125 270.828125 C228.60089355 271.79355225 228.65100586 272.75897949 228.70263672 273.75366211 C228.30859375 276.36328125 228.30859375 276.36328125 226.6394043 278.67382812 C222.34033259 281.78994588 217.37533947 280.97698335 212.24609375 280.92578125 C211.14458984 280.94962891 210.04308594 280.97347656 208.90820312 280.99804688 C207.85310547 280.99611328 206.79800781 280.99417969 205.7109375 280.9921875 C204.26448853 280.99327515 204.26448853 280.99327515 202.78881836 280.99438477 C200.30859375 280.36328125 200.30859375 280.36328125 198.48754883 278.0715332 C196.88509508 274.39043578 197.03762396 270.92461027 197.05859375 266.98828125 C196.97086309 259.95797702 196.97086309 259.95797702 193.24609375 254.23828125 C191.95875885 253.24640026 190.64476586 252.28832348 189.30859375 251.36328125 C187.94404879 250.16668029 186.58994096 248.95808102 185.24609375 247.73828125 C183.36122947 246.08856573 181.49372762 244.49810273 179.46875 243.0234375 C176.70195429 240.98577383 175.40530572 239.98720182 174.8671875 236.515625 C175.44121832 232.41613058 176.83718515 231.24637998 179.87109375 228.48828125 C180.77730469 227.63234375 181.68351562 226.77640625 182.6171875 225.89453125 C183.50535156 225.05921875 184.39351562 224.22390625 185.30859375 223.36328125 C186.70731652 221.9276853 188.08574506 220.47174511 189.43359375 218.98828125 C190.27277344 218.07949219 190.27277344 218.07949219 191.12890625 217.15234375 C192.67558484 215.16388364 192.67558484 215.16388364 192.30859375 211.36328125 C190.11133915 208.68027688 190.11133915 208.68027688 187.30859375 206.11328125 C185.91640625 204.77523437 185.91640625 204.77523437 184.49609375 203.41015625 C183.77421875 202.7346875 183.05234375 202.05921875 182.30859375 201.36328125 C181.65503906 201.94335938 181.65503906 201.94335938 180.98828125 202.53515625 C177.25114723 205.80312626 173.50099215 208.70468714 169.30859375 211.36328125 C164.08774344 206.92639249 159.05934971 202.29440909 154.05859375 197.61328125 C153.41494873 197.01225586 152.77130371 196.41123047 152.1081543 195.79199219 C148.98716788 192.87631844 145.87436549 189.95283838 142.77734375 187.01171875 C141.70461996 186.00370095 140.63171366 184.99587733 139.55859375 183.98828125 C138.615 183.09367188 137.67140625 182.1990625 136.69921875 181.27734375 C134.4286955 179.0507782 134.4286955 179.0507782 131.30859375 179.36328125 C129.14114409 181.31311548 127.13009651 183.26199215 125.12109375 185.36328125 C124.56228516 185.935625 124.00347656 186.50796875 123.42773438 187.09765625 C122.04786282 188.51290913 120.67732641 189.9372528 119.30859375 191.36328125 C122.18550769 194.97997307 125.12021533 198.2491372 128.6015625 201.2890625 C129.18848877 201.8056543 129.77541504 202.32224609 130.38012695 202.85449219 C131.57064193 203.89174065 132.77353788 204.91496819 133.98901367 205.92285156 C136.61611782 208.22104485 138.18919949 209.69169351 138.81065369 213.18734741 C138.1367889 217.45008545 135.97624789 219.36202178 132.90844727 222.14306641 C132.3345929 222.68727737 131.76073853 223.23148834 131.16949463 223.79219055 C129.92322599 224.97216687 128.67065219 226.14551131 127.41259956 227.3129158 C125.41485987 229.1734287 123.44267832 231.0576617 121.4763031 232.95126343 C115.88486639 238.33253333 110.27341665 243.69071121 104.59155273 248.9765625 C101.11318259 252.2159346 97.68478295 255.50181234 94.2822094 258.82062912 C92.98585555 260.06729648 91.67226294 261.29632204 90.34088326 262.50551224 C83.36951802 268.84895391 78.83336858 273.64150812 78.26828671 283.36553001 C78.24668146 285.9902514 78.34509785 288.58862908 78.46080017 291.21029663 C78.5502557 295.09316183 78.5502557 295.09316183 76.46987915 297.41851807 C73.8373908 298.5692583 71.86537131 298.75119151 68.9921875 298.76171875 C67.98091797 298.76558594 66.96964844 298.76945312 65.92773438 298.7734375 C64.87779297 298.76183594 63.82785156 298.75023437 62.74609375 298.73828125 C61.69228516 298.74988281 60.63847656 298.76148438 59.55273438 298.7734375 C58.54275391 298.76957031 57.53277344 298.76570313 56.4921875 298.76171875 C55.56978271 298.75833496 54.64737793 298.75495117 53.69702148 298.75146484 C51.30859375 298.36328125 51.30859375 298.36328125 49.50732422 297.20776367 C47.79716065 294.57634092 47.93654014 292.57489807 47.9453125 289.453125 C47.94595703 288.29876953 47.94660156 287.14441406 47.94726562 285.95507812 C47.96337891 284.74916016 47.97949219 283.54324219 47.99609375 282.30078125 C47.99287109 281.09099609 47.98964844 279.88121094 47.98632812 278.63476562 C48.0416945 269.6301805 48.0416945 269.6301805 50.30859375 267.36328125 C51.5728418 267.52755615 52.83708984 267.69183105 54.13964844 267.86108398 C61.68614698 268.77668744 68.07808855 268.50697621 74.57006836 264.19903564 C82.69829604 257.722122 89.7387152 249.89994417 96.79748535 242.30596924 C99.7463956 239.15766466 102.7572354 236.06974748 105.76171875 232.97460938 C110.12434235 228.46185295 114.4650805 223.93001716 118.75488281 219.34790039 C119.61309631 218.4315834 120.47130981 217.51526642 121.35552979 216.57118225 C123.33580182 214.52356777 123.33580182 214.52356777 124.30859375 212.36328125 C123.7465625 212.12867188 123.18453125 211.8940625 122.60546875 211.65234375 C119.76223484 210.05665125 117.82761248 208.07403582 115.55859375 205.73828125 C114.759375 204.92101562 113.96015625 204.10375 113.13671875 203.26171875 C112.5334375 202.63523437 111.93015625 202.00875 111.30859375 201.36328125 C108.09083428 202.77847218 105.95796374 204.47410107 103.49316406 206.9675293 C102.39116669 208.0745948 102.39116669 208.0745948 101.26690674 209.20402527 C100.4814447 210.00294693 99.69598267 210.80186859 98.88671875 211.625 C97.65849396 212.86102715 97.65849396 212.86102715 96.40545654 214.12202454 C93.78504838 216.76024599 91.17139687 219.40502949 88.55859375 222.05078125 C85.95926277 224.67785194 83.35845187 227.30341174 80.75457764 229.92597961 C79.13556863 231.55710849 77.51923858 233.1909024 75.90606689 234.82780457 C71.84975063 238.91957164 67.71581345 242.83443629 63.34951782 246.59300232 C56.73494917 252.33041886 50.40755371 258.38768044 44.09741211 264.45532227 C42.2848215 266.18091112 40.45464588 267.8882208 38.60717773 269.57641602 C25.99229455 280.55248962 25.99229455 280.55248962 20.80088806 295.75727844 C20.80452318 298.32905738 20.94084727 300.84699435 21.15014648 303.40942383 C21.30859375 307.36328125 21.30859375 307.36328125 19.98123169 309.08712769 C17.54094651 310.94896434 15.65607264 310.73545305 12.6171875 310.7265625 C11.50794922 310.72591797 10.39871094 310.72527344 9.25585938 310.72460938 C7.51852539 310.70043945 7.51852539 310.70043945 5.74609375 310.67578125 C4.58400391 310.67900391 3.42191406 310.68222656 2.22460938 310.68554688 C-6.42448679 310.63020071 -6.42448679 310.63020071 -8.69140625 308.36328125 C-8.95019531 305.79711914 -8.95019531 305.79711914 -8.95703125 302.5859375 C-8.95960938 301.43287109 -8.9621875 300.27980469 -8.96484375 299.09179688 C-8.95710937 297.88201172 -8.949375 296.67222656 -8.94140625 295.42578125 C-8.94914063 294.21986328 -8.956875 293.01394531 -8.96484375 291.77148438 C-8.96226562 290.61712891 -8.9596875 289.46277344 -8.95703125 288.2734375 C-8.95477539 287.21261963 -8.95251953 286.15180176 -8.95019531 285.05883789 C-8.69140625 282.36328125 -8.69140625 282.36328125 -6.69140625 279.36328125 C-4.57981606 279.55585976 -2.46864089 279.7567761 -0.36235046 280.00057983 C7.04817788 280.5924577 13.0405734 279.80325153 19.01095772 275.07567978 C25.98992388 269.08275119 32.23400756 262.27807316 38.46234131 255.52453613 C41.22482987 252.54970484 44.04237725 249.628124 46.85742188 246.703125 C50.02921148 243.40364351 53.19543483 240.10058454 56.31758118 236.7539978 C60.88606882 231.86340729 65.46811307 227.12669185 70.60282898 222.82290649 C73.3298815 220.48936393 75.80328058 217.93122725 78.30859375 215.36328125 C76.75856628 211.47930436 74.30382754 209.33348506 71.18359375 206.61328125 C70.27351562 205.8140625 69.3634375 205.01484375 68.42578125 204.19140625 C67.72710938 203.588125 67.0284375 202.98484375 66.30859375 202.36328125 C65.2437252 203.25629781 64.18184334 204.15287595 63.12109375 205.05078125 C62.52941406 205.54964844 61.93773437 206.04851562 61.328125 206.5625 C60.66167969 207.15675781 59.99523437 207.75101563 59.30859375 208.36328125 C58.41785156 209.03617188 57.52710938 209.7090625 56.609375 210.40234375 C53.22551292 214.75712721 53.6399297 218.68374219 53.68359375 224.05078125 C53.68359375 225.95056546 53.67119226 227.85040288 53.64453125 229.75 C53.6501709 230.58748779 53.65581055 231.42497559 53.66162109 232.2878418 C53.48687256 233.31518433 53.48687256 233.31518433 53.30859375 234.36328125 C48.63614 237.47825041 43.80273621 236.69178982 38.30859375 236.67578125 C36.64957031 236.69995117 36.64957031 236.69995117 34.95703125 236.72460938 C33.89742187 236.72525391 32.8378125 236.72589844 31.74609375 236.7265625 C30.77542969 236.72954346 29.80476562 236.73252441 28.8046875 236.7355957 C26.30859375 236.36328125 26.30859375 236.36328125 24.49145508 235.1940918 C22.83568148 232.63131652 22.93636969 230.74468492 22.9453125 227.70703125 C22.94595703 226.60230469 22.94660156 225.49757813 22.94726562 224.359375 C22.96337891 223.20566406 22.97949219 222.05195313 22.99609375 220.86328125 C22.99125977 219.13271484 22.99125977 219.13271484 22.98632812 217.3671875 C23.04154202 208.76385885 23.04154202 208.76385885 25.30859375 205.36328125 C27.19360352 205.20068359 27.19360352 205.20068359 29.5 205.44921875 C37.87706644 205.96015031 44.71067297 206.34121649 51.3046875 200.5234375 C54.9675731 196.87331456 58.32732833 192.97965616 61.51367188 188.90795898 C63.30859375 187.36328125 63.30859375 187.36328125 65.83251953 186.96630859 C68.65848042 187.41937627 69.48047018 187.96001595 71.39453125 190.03125 C71.93335938 190.59521484 72.4721875 191.15917969 73.02734375 191.74023438 C73.57390625 192.33771484 74.12046875 192.93519531 74.68359375 193.55078125 C75.76946056 194.71587997 76.86060309 195.87608462 77.95703125 197.03125 C78.43317871 197.54969482 78.90932617 198.06813965 79.39990234 198.60229492 C82.1398138 201.1301769 85.27506979 203.19647842 88.30859375 205.36328125 C92.59859375 201.07328125 96.88859375 196.78328125 101.30859375 192.36328125 C100.38046875 191.27015625 99.45234375 190.17703125 98.49609375 189.05078125 C97.97402344 188.43589844 97.45195313 187.82101562 96.9140625 187.1875 C95.38587198 185.34389744 95.38587198 185.34389744 93.609375 184.0078125 C92.30859375 182.36328125 92.30859375 182.36328125 91.8215332 179.70727539 C92.54073619 174.76946921 95.29451774 172.5878913 98.80078125 169.21484375 C99.46191925 168.55745209 100.12305725 167.90006042 100.80422974 167.2227478 C102.20122129 165.83917956 103.6053797 164.46281539 105.01611328 163.09326172 C107.18278259 160.98906902 109.32721738 158.86411667 111.46875 156.734375 C112.82818633 155.39327237 114.18882303 154.0533852 115.55078125 152.71484375 C116.19667206 152.0774527 116.84256287 151.44006165 117.50802612 150.78335571 C122.07421875 146.36328125 122.07421875 146.36328125 124.30859375 146.36328125 C125.08285144 144.54627432 125.08285144 144.54627432 125.30859375 142.36328125 C124.15865679 140.52263497 124.15865679 140.52263497 122.34375 138.91015625 C121.70888672 138.29140625 121.07402344 137.67265625 120.41992188 137.03515625 C119.40575195 136.08382812 119.40575195 136.08382812 118.37109375 135.11328125 C117.69884766 134.46359375 117.02660156 133.81390625 116.33398438 133.14453125 C114.66946782 131.53904011 112.99443947 129.94631221 111.30859375 128.36328125 C105.11208814 131.41312385 100.80177062 136.90850635 96.19140625 141.91015625 C95.50820313 142.62171875 94.825 143.33328125 94.12109375 144.06640625 C93.50878906 144.72286133 92.89648438 145.37931641 92.265625 146.05566406 C90.30859375 147.36328125 90.30859375 147.36328125 88.03369141 147.28387451 C84.35808181 146.04217904 82.30277807 143.73213388 79.75 140.94140625 C78.95094238 140.09503601 78.95094238 140.09503601 78.13574219 139.23156738 C76.97996325 138.0070732 75.82834966 136.77863699 74.68045044 135.54675293 C72.22007442 132.91760446 69.72182126 130.32582474 67.2250824 127.73126221 C62.58264214 122.90650232 57.95552177 118.06967002 53.3984375 113.1640625 C38.33272681 95.13278761 38.33272681 95.13278761 17.84741211 86.12792969 C13.9139791 86.19542097 10.18947385 86.73405906 6.30859375 87.36328125 C3.58624773 84.64093523 4.05071318 83.13565252 4.04296875 79.33203125 C4.03910156 77.52798828 4.03910156 77.52798828 4.03515625 75.6875 C4.04289063 74.42550781 4.050625 73.16351563 4.05859375 71.86328125 C4.05085937 70.60128906 4.043125 69.33929688 4.03515625 68.0390625 C4.03773438 66.83636719 4.0403125 65.63367188 4.04296875 64.39453125 C4.04522461 63.28658203 4.04748047 62.17863281 4.04980469 61.03710938 C4.30859375 58.36328125 4.30859375 58.36328125 6.30859375 56.36328125 C10.43610523 55.90512137 14.59610143 56.03927267 18.74609375 56.05078125 C19.90431641 56.03466797 21.06253906 56.01855469 22.25585938 56.00195312 C23.36509766 56.00130859 24.47433594 56.00066406 25.6171875 56 C26.63611084 55.99701904 27.65503418 55.99403809 28.70483398 55.9909668 C31.74210718 56.42526981 32.47190104 56.97134263 34.30859375 59.36328125 C34.09070772 61.3614684 33.8656527 63.35922635 33.59815979 65.35137939 C32.91535243 72.73094952 34.07116992 78.35102479 38.8088932 84.21419525 C45.19960396 91.56541965 52.36286938 98.20923336 59.48248291 104.84179688 C62.64736724 107.81040376 65.75749914 110.83527347 68.87304688 113.85546875 C74.9667989 119.746966 81.11732208 125.57435701 87.30859375 131.36328125 C91.15887366 129.58127438 93.58850795 127.2865272 96.55859375 124.23828125 C97.89664063 122.87316406 97.89664063 122.87316406 99.26171875 121.48046875 C99.9371875 120.78179687 100.61265625 120.083125 101.30859375 119.36328125 C100.6436792 118.70491272 99.97876465 118.04654419 99.29370117 117.3682251 C95.65455045 113.72837786 92.1072294 110.0008218 88.546875 106.28417969 C80.71313646 98.12223487 72.82777477 90.01197661 64.91157532 81.93001938 C60.13028733 77.04584172 55.36937873 72.14456805 50.65234375 67.19824219 C46.07638004 62.39997365 41.44792432 57.6566926 36.7852478 52.94239044 C35.02612013 51.14656348 33.28456122 49.33333601 31.56216431 47.50225067 C20.57708363 35.52064568 20.57708363 35.52064568 5.5509491 30.94665909 C2.05786486 30.9318718 -1.38169794 31.1038522 -4.85102844 31.51224136 C-5.45835312 31.46308453 -6.0656778 31.41392769 -6.69140625 31.36328125 C-9.87273859 26.59128273 -9.0195753 21.47280293 -9.00390625 15.86328125 C-9.02001953 14.70957031 -9.03613281 13.55585938 -9.05273438 12.3671875 C-9.05337891 11.26246094 -9.05402344 10.15773437 -9.0546875 9.01953125 C-9.05766846 8.00697266 -9.06064941 6.99441406 -9.0637207 5.95117188 C-8.69140625 3.36328125 -8.69140625 3.36328125 -7.52441406 1.5324707 C-4.95091699 -0.10904201 -3.03914964 -0.00889132 0 0 Z M1.30859375 11.36328125 C1.30859375 14.33328125 1.30859375 17.30328125 1.30859375 20.36328125 C4.60859375 20.36328125 7.90859375 20.36328125 11.30859375 20.36328125 C11.30859375 17.39328125 11.30859375 14.42328125 11.30859375 11.36328125 C8.00859375 11.36328125 4.70859375 11.36328125 1.30859375 11.36328125 Z M281.30859375 11.36328125 C281.30859375 14.33328125 281.30859375 17.30328125 281.30859375 20.36328125 C284.60859375 20.36328125 287.90859375 20.36328125 291.30859375 20.36328125 C291.30859375 17.39328125 291.30859375 14.42328125 291.30859375 11.36328125 C288.00859375 11.36328125 284.70859375 11.36328125 281.30859375 11.36328125 Z M224.30859375 25.36328125 C224.30859375 28.00328125 224.30859375 30.64328125 224.30859375 33.36328125 C227.27859375 33.36328125 230.24859375 33.36328125 233.30859375 33.36328125 C233.30859375 30.72328125 233.30859375 28.08328125 233.30859375 25.36328125 C230.33859375 25.36328125 227.36859375 25.36328125 224.30859375 25.36328125 Z M77.30859375 43.36328125 C77.30859375 46.00328125 77.30859375 48.64328125 77.30859375 51.36328125 C80.27859375 51.36328125 83.24859375 51.36328125 86.30859375 51.36328125 C86.30859375 48.72328125 86.30859375 46.08328125 86.30859375 43.36328125 C83.33859375 43.36328125 80.36859375 43.36328125 77.30859375 43.36328125 Z M14.30859375 67.36328125 C14.30859375 70.33328125 14.30859375 73.30328125 14.30859375 76.36328125 C17.27859375 76.36328125 20.24859375 76.36328125 23.30859375 76.36328125 C23.30859375 73.39328125 23.30859375 70.42328125 23.30859375 67.36328125 C20.33859375 67.36328125 17.36859375 67.36328125 14.30859375 67.36328125 Z M250.30859375 87.36328125 C250.30859375 90.33328125 250.30859375 93.30328125 250.30859375 96.36328125 C253.60859375 96.36328125 256.90859375 96.36328125 260.30859375 96.36328125 C260.30859375 93.39328125 260.30859375 90.42328125 260.30859375 87.36328125 C257.00859375 87.36328125 253.70859375 87.36328125 250.30859375 87.36328125 Z M122.30859375 115.36328125 C120.98859375 117.01328125 119.66859375 118.66328125 118.30859375 120.36328125 C118.99634888 121.00559692 118.99634888 121.00559692 119.69799805 121.66088867 C121.79820366 123.623289 123.8971569 125.58702397 125.99609375 127.55078125 C127.07793945 128.56108398 127.07793945 128.56108398 128.18164062 129.59179688 C129.59026982 130.91037671 130.99390176 132.23431862 132.39208984 133.56396484 C133.56469549 134.66486977 134.75651942 135.74626359 135.97900391 136.79150391 C137.390625 138.0390625 137.390625 138.0390625 139.30859375 140.36328125 C139.30278318 144.20406541 137.91827469 146.2878391 135.37109375 149.05078125 C134.42943359 150.07751953 134.42943359 150.07751953 133.46875 151.125 C130.27028773 154.43913903 127.00157726 157.67971897 123.72265625 160.9140625 C121.60670694 163.0608266 119.63085007 165.25230746 117.68359375 167.55078125 C114.24541391 171.57977004 110.37560938 174.98290462 106.30859375 178.36328125 C106.96859375 179.68328125 107.62859375 181.00328125 108.30859375 182.36328125 C112.23137444 182.78691004 112.23137444 182.78691004 114.33569336 180.69506836 C115.38768921 179.5543689 115.38768921 179.5543689 116.4609375 178.390625 C117.23759766 177.57400391 118.01425781 176.75738281 118.81445312 175.91601562 C120.43568798 174.17237428 122.05288345 172.42496838 123.66601562 170.67382812 C124.44396484 169.85849609 125.22191406 169.04316406 126.0234375 168.203125 C126.725896 167.44378662 127.42835449 166.68444824 128.15209961 165.90209961 C130.30859375 164.36328125 130.30859375 164.36328125 132.94213867 164.52490234 C135.86114333 165.55903646 137.43674612 166.91824692 139.68359375 169.05078125 C140.54597656 169.85773438 141.40835938 170.6646875 142.296875 171.49609375 C143.009646 172.17526855 143.009646 172.17526855 143.73681641 172.86816406 C146.11295311 175.12840966 148.51410375 177.36165554 150.91235352 179.59838867 C152.21477015 180.81346888 153.51604687 182.02977211 154.81616211 183.24731445 C159.57585344 187.70102998 164.39689605 192.07719274 169.30859375 196.36328125 C171.28859375 194.87828125 171.28859375 194.87828125 173.30859375 193.36328125 C172.18926013 190.0052804 171.28453931 189.25763615 168.62109375 187.05078125 C157.02953365 177.18341378 157.02953365 177.18341378 154.46875 170.01098633 C154.30859375 167.36328125 154.30859375 167.36328125 156.01171875 164.99487305 C156.8521875 164.19218994 157.69265625 163.38950684 158.55859375 162.5625 C159.47769531 161.66724609 160.39679688 160.77199219 161.34375 159.84960938 C162.33139801 158.91599632 163.31968348 157.98305718 164.30859375 157.05078125 C166.20669004 155.22370217 168.10256474 153.39431205 169.99609375 151.5625 C170.90673584 150.6844873 171.81737793 149.80647461 172.75561523 148.90185547 C175.6295662 146.04411978 178.30908045 143.07429573 180.92602539 139.98168945 C182.61805059 138.00103696 184.42999601 136.16673508 186.30859375 134.36328125 C184.90144059 130.96266111 183.27991147 129.47098427 180.30859375 127.36328125 C179.75397461 127.93361084 179.19935547 128.50394043 178.62792969 129.09155273 C176.11269214 131.66911895 173.58585526 134.23500559 171.05859375 136.80078125 C170.18589844 137.69861328 169.31320312 138.59644531 168.4140625 139.52148438 C167.56972656 140.37548828 166.72539063 141.22949219 165.85546875 142.109375 C164.69289551 143.29551392 164.69289551 143.29551392 163.50683594 144.50561523 C161.30053808 146.37008884 160.18896937 147.2726578 157.30859375 147.36328125 C155.54150391 146.30541992 155.54150391 146.30541992 153.72265625 144.59375 C153.02688477 143.9445459 152.33111328 143.2953418 151.61425781 142.62646484 C146.31568457 137.42551461 141.09942241 132.14775241 135.91015625 126.83789062 C135.018125 125.93490234 134.12609375 125.03191406 133.20703125 124.1015625 C132.01086182 122.8801355 132.01086182 122.8801355 130.79052734 121.6340332 C128.09819747 119.17078707 125.38725819 117.31053511 122.30859375 115.36328125 Z M33.30859375 216.36328125 C33.30859375 219.33328125 33.30859375 222.30328125 33.30859375 225.36328125 C36.60859375 225.36328125 39.90859375 225.36328125 43.30859375 225.36328125 C43.30859375 222.39328125 43.30859375 219.42328125 43.30859375 216.36328125 C40.00859375 216.36328125 36.70859375 216.36328125 33.30859375 216.36328125 Z M268.30859375 233.36328125 C268.30859375 236.33328125 268.30859375 239.30328125 268.30859375 242.36328125 C271.60859375 242.36328125 274.90859375 242.36328125 278.30859375 242.36328125 C278.30859375 239.39328125 278.30859375 236.42328125 278.30859375 233.36328125 C275.00859375 233.36328125 271.70859375 233.36328125 268.30859375 233.36328125 Z M207.30859375 260.36328125 C207.63859375 263.33328125 207.96859375 266.30328125 208.30859375 269.36328125 C211.27859375 269.36328125 214.24859375 269.36328125 217.30859375 269.36328125 C217.30859375 266.39328125 217.30859375 263.42328125 217.30859375 260.36328125 C214.00859375 260.36328125 210.70859375 260.36328125 207.30859375 260.36328125 Z M58.30859375 278.36328125 C58.30859375 281.00328125 58.30859375 283.64328125 58.30859375 286.36328125 C61.60859375 286.36328125 64.90859375 286.36328125 68.30859375 286.36328125 C68.30859375 283.72328125 68.30859375 281.08328125 68.30859375 278.36328125 C65.00859375 278.36328125 61.70859375 278.36328125 58.30859375 278.36328125 Z M282.30859375 290.36328125 C282.30859375 293.00328125 282.30859375 295.64328125 282.30859375 298.36328125 C285.27859375 298.36328125 288.24859375 298.36328125 291.30859375 298.36328125 C291.30859375 295.39328125 291.30859375 292.42328125 291.30859375 289.36328125 C288.10956736 289.27441941 285.38181919 289.45269594 282.30859375 290.36328125 Z M1.30859375 290.36328125 C1.30859375 293.33328125 1.30859375 296.30328125 1.30859375 299.36328125 C4.60859375 299.36328125 7.90859375 299.36328125 11.30859375 299.36328125 C11.30859375 296.39328125 11.30859375 293.42328125 11.30859375 290.36328125 C8.00859375 290.36328125 4.70859375 290.36328125 1.30859375 290.36328125 Z " fill="#D4D4D4" transform="translate(854.69140625,139.63671875)"/>
<path d="M0 0 C16.17 0 32.34 0 49 0 C58.39099523 17.09642722 67.54737991 34.30747446 76.65332031 51.55664062 C80.05727909 58.00361236 83.46977543 64.44606275 86.88186646 70.88873291 C88.7509141 74.41788093 90.61965251 77.94719266 92.48828125 81.4765625 C92.85894211 82.17663422 93.22960297 82.87670593 93.61149597 83.59799194 C95.89241473 87.90646622 98.1718542 92.21571972 100.45016479 96.52557373 C101.9928397 99.4436853 103.53607751 102.36149903 105.0793457 105.27929688 C105.78860473 106.62062304 106.49761298 107.96208185 107.20629883 109.30371094 C107.87140154 110.56280166 108.5379404 111.82113471 109.20585632 113.07873535 C109.90046004 114.3970849 110.5855849 115.72046424 111.26203918 117.04821777 C113.57198226 121.52697207 116.10943029 125.75188518 118.85620117 129.97851562 C130.60834698 148.76023395 131.97383985 164.52287986 131.02996826 186.37194824 C130.87302378 190.40816667 130.80729564 194.44594857 130.73242188 198.484375 C130.57429572 206.32696387 130.32041626 214.16217739 130 222 C129.34 222 128.68 222 128 222 C127.6690332 221.35788574 127.33806641 220.71577148 126.99707031 220.05419922 C121.1286633 208.68289849 115.23471492 197.33486223 109.0625 186.125 C103.95215523 176.83979217 99.06498108 167.44925083 94.21118164 158.02783203 C90.56417848 150.96675199 86.83421404 143.96104635 83 137 C77.90808074 127.75557974 73.04195399 118.4047988 68.20874023 109.02294922 C64.58351674 102.00384643 60.87085656 95.04649636 57.0625 88.125 C49.83431612 74.86091 42.9399132 61.41716552 36 48 C35.67 119.61 35.34 191.22 35 265 C23.45 265 11.9 265 0 265 C0 177.55 0 90.1 0 0 Z " fill="#DADADA" transform="translate(569,155)"/>
<path d="M0 0 C55.11 0 110.22 0 167 0 C167 10.23 167 20.46 167 31 C124.1 31 81.2 31 37 31 C37 56.08 37 81.16 37 107 C79.9 107 122.8 107 167 107 C167 117.89 167 128.78 167 140 C134.26394383 140.11055329 101.54490374 139.99038964 68.8125 139.5 C67.61475008 139.48206327 67.61475008 139.48206327 66.39280319 139.46376419 C56.59508383 139.316384 46.79749175 139.16182913 37 139 C37.00222061 139.73693588 37.00444122 140.47387177 37.00672913 141.23313904 C37.02673203 148.16412769 37.04197413 155.09511204 37.05181217 162.02612209 C37.05703995 165.58977422 37.06413569 169.15340257 37.07543945 172.71704102 C37.08834176 176.81006097 37.09322906 180.9030558 37.09765625 184.99609375 C37.10281754 186.28148544 37.10797882 187.56687714 37.11329651 188.89122009 C37.11337204 190.07236893 37.11344757 191.25351776 37.11352539 192.47045898 C37.115746 193.51636703 37.11796661 194.56227509 37.12025452 195.63987732 C37 198 37 198 36 199 C24.12 199 12.24 199 0 199 C0 133.33 0 67.66 0 0 Z " fill="#D9D9D9" transform="translate(317,155)"/>
<path d="M0 0 C5.39346988 -0.02464849 10.78690725 -0.04283531 16.18041992 -0.05493164 C18.01668875 -0.05997231 19.85295354 -0.06680477 21.68920898 -0.07543945 C24.32276401 -0.08751672 26.95626616 -0.09323081 29.58984375 -0.09765625 C30.41588608 -0.10281754 31.24192841 -0.10797882 32.09300232 -0.11329651 C34.06236368 -0.11349205 36.03161614 -0.06204152 38 0 C39.79311413 1.79311413 39.47590788 4.63130292 39.75 7.0625 C43.10987951 31.21929791 55.17534528 54.54027623 74.36328125 69.890625 C92.24423404 83.00902737 111.44548885 86.00925016 133.12890625 86.31640625 C134.76659973 86.34438293 134.76659973 86.34438293 136.43737793 86.3729248 C140.4790104 86.44073696 144.5207636 86.50119386 148.5625 86.5625 C162.1440625 86.7790625 162.1440625 86.7790625 176 87 C176 58.29 176 29.58 176 0 C188.21 0 200.42 0 213 0 C213 40.59 213 81.18 213 123 C196.396875 123.061875 179.79375 123.12375 162.6875 123.1875 C154.88097778 123.22846802 154.88097778 123.22846802 146.91674805 123.27026367 C140.46447754 123.28381348 140.46447754 123.28381348 137.42512512 123.28633118 C135.34344039 123.29087874 133.26176257 123.30130366 131.18013 123.31672668 C92.69650673 123.58711107 59.56206884 113.84425723 31.49609375 86.56640625 C14.59059148 68.66127428 5.16877623 45.19020933 1.1875 21.1875 C1.06334717 20.44773926 0.93919434 19.70797852 0.8112793 18.94580078 C-0.1321522 12.62794292 -0.11565944 6.37750218 0 0 Z " fill="#D9D9D9" transform="translate(19,296)"/>
<path d="M0 0 C11.55 0 23.1 0 35 0 C35 87.45 35 174.9 35 265 C23.45 265 11.9 265 0 265 C0 177.55 0 90.1 0 0 Z " fill="#D9D9D9" transform="translate(734,155)"/>
<path d="M0 0 C2.00253774 0.00119594 4.00507605 0.00164409 6.00761414 0.00138855 C10.16323458 0.00293749 14.31876692 0.01111084 18.47436523 0.0246582 C23.79590065 0.04179069 29.11734116 0.04546752 34.43890095 0.04471302 C38.55583091 0.04498472 42.67274022 0.05046369 46.78966331 0.05771446 C48.75324536 0.06088869 50.71682973 0.06286562 52.6804142 0.06360817 C55.41239054 0.06577681 58.14426606 0.07452825 60.8762207 0.08520508 C61.68088272 0.08475189 62.48554474 0.08429871 63.31459045 0.08383179 C67.25803238 0.10636042 70.608246 0.4497742 74.51171875 1.23046875 C74.51171875 13.11046875 74.51171875 24.99046875 74.51171875 37.23046875 C71.96001953 37.21999512 69.40832031 37.20952148 66.77929688 37.19873047 C58.28972818 37.16539195 49.80015636 37.14342035 41.31053925 37.12684441 C36.17004393 37.11646646 31.02961645 37.10241849 25.88916016 37.07958984 C20.91596319 37.05764557 15.94283093 37.04585527 10.96958923 37.04071426 C9.08486413 37.03705683 7.20014203 37.02991656 5.31544495 37.01900864 C-22.63572703 36.86386861 -49.20291532 41.57298795 -70.48828125 61.23046875 C-83.00889131 74.74564305 -90.72296976 91.31719003 -97.48828125 108.23046875 C-110.68828125 108.23046875 -123.88828125 108.23046875 -137.48828125 108.23046875 C-136.81762321 101.52388838 -136.07972124 95.52544435 -134.36328125 89.10546875 C-134.14591309 88.29070068 -133.92854492 87.47593262 -133.70458984 86.63647461 C-128.97241514 69.67484354 -120.74569646 54.739367 -109.48828125 41.23046875 C-108.9571875 40.47765625 -108.42609375 39.72484375 -107.87890625 38.94921875 C-107.42 38.38203125 -106.96109375 37.81484375 -106.48828125 37.23046875 C-105.82828125 37.23046875 -105.16828125 37.23046875 -104.48828125 37.23046875 C-104.25625 36.65683594 -104.02421875 36.08320313 -103.78515625 35.4921875 C-94.91409587 20.02127196 -68.2916335 9.44170708 -51.97900391 4.99707031 C-51.15706543 4.7853418 -50.33512695 4.57361328 -49.48828125 4.35546875 C-48.75528809 4.16436523 -48.02229492 3.97326172 -47.26708984 3.77636719 C-31.74625587 0.11149488 -15.85338176 -0.06350186 0 0 Z " fill="#DADADA" transform="translate(157.48828125,153.76953125)"/>
<path d="M0 0 C1.10923828 0.00064453 2.21847656 0.00128906 3.36132812 0.00195312 C5.09866211 0.02612305 5.09866211 0.02612305 6.87109375 0.05078125 C8.03318359 0.04755859 9.19527344 0.04433594 10.39257812 0.04101562 C19.04167429 0.09636179 19.04167429 0.09636179 21.30859375 2.36328125 C21.39678097 4.25641155 21.39678097 4.25641155 21.21165466 6.57267761 C20.82345684 15.39255244 20.80819165 22.77845894 26.6314249 29.82724476 C29.89947764 33.32392917 33.33462144 36.59923962 36.84375 39.8515625 C38.3264121 41.29683053 39.80465354 42.74664605 41.27867126 44.20072937 C45.13386671 47.98026429 49.04519752 51.69581402 52.97235107 55.40032959 C56.98348316 59.20529678 60.93723088 63.06894204 64.89648438 66.92773438 C72.64608668 74.46409685 80.45639418 81.93397762 88.30859375 89.36328125 C89.43425282 88.40350915 90.55919733 87.44289895 91.68383789 86.48193359 C92.31036758 85.94708344 92.93689728 85.41223328 93.58241272 84.86117554 C95.3782822 83.30280907 97.0852128 81.6896715 98.74609375 79.98828125 C99.59171875 79.12203125 100.43734375 78.25578125 101.30859375 77.36328125 C98.72335517 71.67575637 95.04597615 66.18347326 89.30859375 63.36328125 C83.06751551 62.09722347 76.63793658 62.34246681 70.3046875 62.63696289 C69.64597656 62.54664795 68.98726562 62.45633301 68.30859375 62.36328125 C65.20166161 57.70288304 65.98005995 52.90613404 65.99609375 47.42578125 C65.97998047 46.32814453 65.96386719 45.23050781 65.94726562 44.09960938 C65.94662109 43.04322266 65.94597656 41.98683594 65.9453125 40.8984375 C65.94233154 39.93301025 65.93935059 38.96758301 65.9362793 37.97290039 C66.38152492 34.85209355 66.99463161 33.50625331 69.30859375 31.36328125 C71.8046875 30.87744141 71.8046875 30.87744141 74.74609375 30.90234375 C75.80570313 30.90621094 76.8653125 30.91007812 77.95703125 30.9140625 C79.61605469 30.95080078 79.61605469 30.95080078 81.30859375 30.98828125 C82.41460938 30.98957031 83.520625 30.99085938 84.66015625 30.9921875 C92.88706662 31.08226316 92.88706662 31.08226316 96.30859375 33.36328125 C96.42358398 35.20068359 96.42358398 35.20068359 96.1171875 37.44921875 C95.54242232 44.59331679 95.03852808 51.12913966 99.32177734 57.23144531 C104.30793085 62.74210251 109.83263975 67.61789045 115.60205078 72.29296875 C117.30859375 74.36328125 117.30859375 74.36328125 117.32592773 76.84448242 C116.09944521 79.88110835 114.62010898 81.50803218 112.2734375 83.7890625 C111.46455078 84.58505859 110.65566406 85.38105469 109.82226562 86.20117188 C108.97212891 87.01779297 108.12199219 87.83441406 107.24609375 88.67578125 C106.39208984 89.51173828 105.53808594 90.34769531 104.65820312 91.20898438 C102.55038063 93.26970469 100.43379526 95.32051334 98.30859375 97.36328125 C100.00445501 100.99631209 102.04659863 103.30877171 104.93359375 106.11328125 C105.75085938 106.9125 106.568125 107.71171875 107.41015625 108.53515625 C108.03664063 109.1384375 108.663125 109.74171875 109.30859375 110.36328125 C112.98929262 108.82684273 115.29634579 106.5817718 118.05859375 103.73828125 C118.8578125 102.92101562 119.65703125 102.10375 120.48046875 101.26171875 C121.08375 100.63523437 121.68703125 100.00875 122.30859375 99.36328125 C127.12938555 103.43513189 131.82313969 107.6176621 136.43359375 111.92578125 C137.0766748 112.52205322 137.71975586 113.1183252 138.38232422 113.73266602 C141.67700685 116.80934792 144.8904057 119.93121834 147.99609375 123.19921875 C148.57601074 123.80435303 149.15592773 124.4094873 149.75341797 125.03295898 C150.85204958 126.18890079 151.93771294 127.35734447 153.00830078 128.53930664 C155.8740409 131.56131486 155.8740409 131.56131486 159.78125 132.58984375 C163.4340976 130.81705527 165.86091303 128.23535978 168.62109375 125.30078125 C169.17087891 124.73294922 169.72066406 124.16511719 170.28710938 123.58007812 C171.6368674 122.183372 172.974009 120.77449288 174.30859375 119.36328125 C176.28859375 121.01328125 178.26859375 122.66328125 180.30859375 124.36328125 C177.9453727 129.8023798 173.5531207 133.52724355 169.43359375 137.67578125 C168.61761719 138.52462891 167.80164063 139.37347656 166.9609375 140.24804688 C166.17074219 141.04533203 165.38054687 141.84261719 164.56640625 142.6640625 C163.48576904 143.76488159 163.48576904 143.76488159 162.38330078 144.88793945 C160.30859375 146.36328125 160.30859375 146.36328125 158.22045898 146.24047852 C155.05812456 144.78954408 152.72942029 142.3681205 150.24609375 139.98828125 C149.67898682 139.45605957 149.11187988 138.92383789 148.52758789 138.37548828 C143.77546653 133.8878524 139.18370852 129.24873868 134.6484375 124.54296875 C132.52797627 122.5676476 130.87541528 121.59018965 128.30859375 120.36328125 C126.45569142 118.48112257 124.94143787 116.44969319 123.30859375 114.36328125 C119.03743458 117.93710831 115.0214207 121.6022407 111.12890625 125.58203125 C109.24288167 127.4275832 107.26967337 129.10805305 105.24609375 130.80078125 C101.84004114 133.72119244 99.35089199 136.86104213 96.74609375 140.4921875 C94.53045227 143.37613388 92.33219458 145.32563722 89.30859375 147.36328125 C86.17311804 147.29502883 85.10441299 146.17727078 82.76698303 144.04785156 C81.79120296 143.01986821 80.82396134 141.98373984 79.86352539 140.94140625 C78.75949553 139.77168556 77.65532739 138.60209537 76.55104065 137.43261719 C75.9686368 136.81028198 75.38623295 136.18794678 74.7861805 135.54675293 C71.67598593 132.23797544 68.51651406 128.97661491 65.36523438 125.70703125 C61.36574246 121.55239213 57.38200588 117.38588109 53.45336914 113.1640625 C38.3552154 95.13210662 38.3552154 95.13210662 17.84288025 86.12792969 C13.91088685 86.1954114 10.18799054 86.73392925 6.30859375 87.36328125 C3.58624773 84.64093523 4.05071318 83.13565252 4.04296875 79.33203125 C4.03910156 77.52798828 4.03910156 77.52798828 4.03515625 75.6875 C4.04289063 74.42550781 4.050625 73.16351563 4.05859375 71.86328125 C4.05085937 70.60128906 4.043125 69.33929688 4.03515625 68.0390625 C4.03773438 66.83636719 4.0403125 65.63367188 4.04296875 64.39453125 C4.04522461 63.28658203 4.04748047 62.17863281 4.04980469 61.03710938 C4.30859375 58.36328125 4.30859375 58.36328125 6.30859375 56.36328125 C10.43610523 55.90512137 14.59610143 56.03927267 18.74609375 56.05078125 C19.90431641 56.03466797 21.06253906 56.01855469 22.25585938 56.00195312 C23.36509766 56.00130859 24.47433594 56.00066406 25.6171875 56 C26.63611084 55.99701904 27.65503418 55.99403809 28.70483398 55.9909668 C31.74210718 56.42526981 32.47190104 56.97134263 34.30859375 59.36328125 C34.09070772 61.3614684 33.8656527 63.35922635 33.59815979 65.35137939 C32.91535243 72.73094952 34.07116992 78.35102479 38.8088932 84.21419525 C45.19960396 91.56541965 52.36286938 98.20923336 59.48248291 104.84179688 C62.64736724 107.81040376 65.75749914 110.83527347 68.87304688 113.85546875 C74.9667989 119.746966 81.11732208 125.57435701 87.30859375 131.36328125 C91.15887366 129.58127438 93.58850795 127.2865272 96.55859375 124.23828125 C97.89664063 122.87316406 97.89664063 122.87316406 99.26171875 121.48046875 C99.9371875 120.78179687 100.61265625 120.083125 101.30859375 119.36328125 C100.6436792 118.70491272 99.97876465 118.04654419 99.29370117 117.3682251 C95.65455045 113.72837786 92.1072294 110.0008218 88.546875 106.28417969 C80.71313646 98.12223487 72.82777477 90.01197661 64.91157532 81.93001938 C60.13028733 77.04584172 55.36937873 72.14456805 50.65234375 67.19824219 C46.07638004 62.39997365 41.44792432 57.6566926 36.7852478 52.94239044 C35.02612013 51.14656348 33.28456122 49.33333601 31.56216431 47.50225067 C20.57708363 35.52064568 20.57708363 35.52064568 5.5509491 30.94665909 C2.05786486 30.9318718 -1.38169794 31.1038522 -4.85102844 31.51224136 C-5.45835312 31.46308453 -6.0656778 31.41392769 -6.69140625 31.36328125 C-9.87273859 26.59128273 -9.0195753 21.47280293 -9.00390625 15.86328125 C-9.02001953 14.70957031 -9.03613281 13.55585938 -9.05273438 12.3671875 C-9.05337891 11.26246094 -9.05402344 10.15773437 -9.0546875 9.01953125 C-9.05766846 8.00697266 -9.06064941 6.99441406 -9.0637207 5.95117188 C-8.69140625 3.36328125 -8.69140625 3.36328125 -7.52441406 1.5324707 C-4.95091699 -0.10904201 -3.03914964 -0.00889132 0 0 Z M1.30859375 11.36328125 C1.30859375 14.33328125 1.30859375 17.30328125 1.30859375 20.36328125 C4.60859375 20.36328125 7.90859375 20.36328125 11.30859375 20.36328125 C11.30859375 17.39328125 11.30859375 14.42328125 11.30859375 11.36328125 C8.00859375 11.36328125 4.70859375 11.36328125 1.30859375 11.36328125 Z M77.30859375 43.36328125 C77.30859375 46.00328125 77.30859375 48.64328125 77.30859375 51.36328125 C80.27859375 51.36328125 83.24859375 51.36328125 86.30859375 51.36328125 C86.30859375 48.72328125 86.30859375 46.08328125 86.30859375 43.36328125 C83.33859375 43.36328125 80.36859375 43.36328125 77.30859375 43.36328125 Z M14.30859375 67.36328125 C14.30859375 70.33328125 14.30859375 73.30328125 14.30859375 76.36328125 C17.27859375 76.36328125 20.24859375 76.36328125 23.30859375 76.36328125 C23.30859375 73.39328125 23.30859375 70.42328125 23.30859375 67.36328125 C20.33859375 67.36328125 17.36859375 67.36328125 14.30859375 67.36328125 Z " fill="#CBCBCB" transform="translate(854.69140625,139.63671875)"/>
<path d="M0 0 C55.11 0 110.22 0 167 0 C167 10.56 167 21.12 167 32 C111.89 32 56.78 32 0 32 C0 21.44 0 10.88 0 0 Z " fill="#DADADA" transform="translate(317,388)"/>
<path d="M0 0 C2.58203125 -0.38818359 2.58203125 -0.38818359 5.8125 -0.3984375 C6.97007813 -0.40230469 8.12765625 -0.40617188 9.3203125 -0.41015625 C11.14175781 -0.39275391 11.14175781 -0.39275391 13 -0.375 C14.21429687 -0.38660156 15.42859375 -0.39820313 16.6796875 -0.41015625 C18.41605469 -0.40435547 18.41605469 -0.40435547 20.1875 -0.3984375 C21.25355469 -0.39505371 22.31960938 -0.39166992 23.41796875 -0.38818359 C24.27003906 -0.26008301 25.12210938 -0.13198242 26 0 C28.27038301 3.40557452 28.25671558 4.65719174 28.265625 8.65625 C28.26949219 10.31333984 28.26949219 10.31333984 28.2734375 12.00390625 C28.26570313 13.15761719 28.25796875 14.31132812 28.25 15.5 C28.26160156 17.23056641 28.26160156 17.23056641 28.2734375 18.99609375 C28.27085938 20.10082031 28.26828125 21.20554688 28.265625 22.34375 C28.26336914 23.35630859 28.26111328 24.36886719 28.25878906 25.41210938 C28 28 28 28 26 31 C24.01977539 31.2578125 24.01977539 31.2578125 21.59765625 31.125 C10.80218582 30.42822993 10.80218582 30.42822993 1.234375 34.50390625 C-1.45683459 37.1095387 -3.68785714 40.05771339 -6 43 C-6.66 43 -7.32 43 -8 43 C-8.33 43.99 -8.66 44.98 -9 46 C-10.48181152 47.46180725 -10.48181152 47.46180725 -12.41210938 49.04321289 C-17.68961999 53.52474442 -22.52662829 58.40163127 -27.40625 63.30859375 C-28.38108645 64.2853001 -29.35614749 65.26178234 -30.3314209 66.23805237 C-32.87186301 68.78227461 -35.40928509 71.32948736 -37.94604492 73.87738037 C-40.54551127 76.48715882 -43.14788494 79.09403482 -45.75 81.70117188 C-50.83614918 86.79797872 -55.9191047 91.89795508 -61 97 C-60.0449028 98.12120157 -59.08882049 99.24156401 -58.13232422 100.36157227 C-57.6000119 100.98556412 -57.06769958 101.60955597 -56.51925659 102.25245667 C-54.79809702 104.23224136 -52.998427 106.10154154 -51.125 107.9375 C-50.52945312 108.52402344 -49.93390625 109.11054688 -49.3203125 109.71484375 C-48.88460938 110.13894531 -48.44890625 110.56304687 -48 111 C-44.41165583 108.00617439 -40.93357698 104.99130205 -37.6875 101.625 C-35 99 -35 99 -33 99 C-33.01571045 98.06148193 -33.01571045 98.06148193 -33.03173828 97.10400391 C-33.07323191 94.2777099 -33.09930473 91.45147989 -33.125 88.625 C-33.14175781 87.64015625 -33.15851563 86.6553125 -33.17578125 85.640625 C-33.18544922 84.22910156 -33.18544922 84.22910156 -33.1953125 82.7890625 C-33.21102295 81.48509521 -33.21102295 81.48509521 -33.22705078 80.15478516 C-33 78 -33 78 -31 76 C-26.87248852 75.54184012 -22.71249232 75.67599142 -18.5625 75.6875 C-17.40427734 75.67138672 -16.24605469 75.65527344 -15.05273438 75.63867188 C-13.94349609 75.63802734 -12.83425781 75.63738281 -11.69140625 75.63671875 C-10.16302124 75.63224731 -10.16302124 75.63224731 -8.60375977 75.62768555 C-6 76 -6 76 -4.16699219 77.16918945 C-2.5327382 79.73305361 -2.62780552 81.6286416 -2.63671875 84.65625 C-2.63768555 86.31333984 -2.63768555 86.31333984 -2.63867188 88.00390625 C-2.65478516 89.15761719 -2.67089844 90.31132812 -2.6875 91.5 C-2.68427734 92.65371094 -2.68105469 93.80742187 -2.67773438 94.99609375 C-2.73294827 103.5994224 -2.73294827 103.5994224 -5 107 C-7.02783203 107.32128906 -7.02783203 107.32128906 -9.5078125 107.265625 C-10.40830322 107.26409424 -11.30879395 107.26256348 -12.23657227 107.26098633 C-13.18975342 107.25736084 -14.14293457 107.25373535 -15.125 107.25 C-17.05411429 107.29813529 -18.98281113 107.36924164 -20.91015625 107.46484375 C-21.77519775 107.49956787 -22.64023926 107.53429199 -23.53149414 107.57006836 C-28.48987353 108.43365318 -30.99445638 111.20956919 -34 115 C-35.57743086 116.62108766 -37.19081956 118.20096441 -38.80834961 119.78198242 C-41.23626831 122.15804198 -43.61585875 124.58009664 -46 127 C-50.17499164 125.62448071 -52.58125593 123.77422864 -55.64453125 120.6484375 C-56.48564453 119.79765625 -57.32675781 118.946875 -58.19335938 118.0703125 C-59.05767578 117.18085938 -59.92199219 116.29140625 -60.8125 115.375 C-62.13797852 114.02921875 -62.13797852 114.02921875 -63.49023438 112.65625 C-65.66707425 110.44411002 -67.83659664 108.22526927 -70 106 C-73.91542493 109.2572492 -77.6404887 112.47241519 -80.9375 116.375 C-81.52402344 117.06335938 -82.11054687 117.75171875 -82.71484375 118.4609375 C-83.35099609 119.22277344 -83.35099609 119.22277344 -84 120 C-87.30602451 116.87267952 -89.74289154 113.93835641 -92 110 C-88.58942868 106.56446391 -85.1753981 103.13241435 -81.75830078 99.70336914 C-80.59949681 98.53957726 -79.44159678 97.37488451 -78.28466797 96.20922852 C-76.60889423 94.52114356 -74.92975246 92.83646862 -73.25 91.15234375 C-72.7444458 90.64162827 -72.2388916 90.13091278 -71.71801758 89.60472107 C-68.9769182 86.86320755 -66.16978835 84.25697946 -63.22851562 81.73071289 C-58.27921456 77.44194355 -53.70060955 72.80684086 -49.09375 68.15625 C-47.68137068 66.7380835 -46.26898839 65.31991993 -44.85643768 63.90192413 C-42.40212499 61.43676868 -39.95115467 58.96829491 -37.5 56.5 C-34.57062797 53.55014369 -31.64063715 50.60092161 -28.70666504 47.65563965 C-26.88779387 45.82931571 -25.07117348 44.00074639 -23.25720215 42.16955566 C-17.45061669 36.33998493 -11.53647477 30.75630134 -5.04296875 25.6953125 C-1.96976447 21.64079825 -2.2947161 17.83315122 -2.3125 12.875 C-2.29590915 11.08063532 -2.27150595 9.28632127 -2.23828125 7.4921875 C-2.23868408 6.70183105 -2.23908691 5.91147461 -2.23950195 5.09716797 C-2 3 -2 3 0 0 Z M8 11 C8 13.97 8 16.94 8 20 C11.3 20 14.6 20 18 20 C18 17.03 18 14.06 18 11 C14.7 11 11.4 11 8 11 Z M-23 87 C-23 89.97 -23 92.94 -23 96 C-19.7 96 -16.4 96 -13 96 C-13 93.03 -13 90.06 -13 87 C-16.3 87 -19.6 87 -23 87 Z " fill="#E4E4E4" transform="translate(1128,140)"/>
<path d="M0 0 C7.19847194 5.93454271 13.6296626 12.57530375 20.17382812 19.21289062 C24.64550454 23.72342302 29.15495922 28.07152929 33.97875977 32.20141602 C38.08737235 35.8574311 41.89302705 39.83247802 45.75 43.75 C47.4090768 45.43464038 49.07044788 47.11702513 50.734375 48.796875 C51.45850586 49.53260742 52.18263672 50.26833984 52.92871094 51.02636719 C54.95090491 53.04223913 54.95090491 53.04223913 57.26660156 54.63769531 C57.83862305 55.08725586 58.41064453 55.53681641 59 56 C59 56.66 59 57.32 59 58 C59.58910156 58.23589844 60.17820312 58.47179687 60.78515625 58.71484375 C63.4684105 60.27179375 64.58764782 62.08409589 66.4375 64.5625 C70.67968189 69.05506362 74.08775205 69.54340326 79.98852539 69.79077148 C81.90046556 69.805164 83.81282711 69.79200939 85.72436523 69.75024414 C86.61712158 69.73598389 87.50987793 69.72172363 88.4296875 69.70703125 C89.23647949 69.6706958 90.04327148 69.63436035 90.87451172 69.59692383 C93 70 93 70 94.76074219 71.67236328 C96.25902447 74.48651286 96.38729167 76.35514433 96.3984375 79.53515625 C96.40230469 80.59154297 96.40617187 81.64792969 96.41015625 82.73632812 C96.39855469 83.83396484 96.38695312 84.93160156 96.375 86.0625 C96.38660156 87.16400391 96.39820313 88.26550781 96.41015625 89.40039062 C96.40628906 90.45548828 96.40242188 91.51058594 96.3984375 92.59765625 C96.39505371 93.56195557 96.39166992 94.52625488 96.38818359 95.51977539 C96 98 96 98 94.83081055 99.81494141 C92.25999458 101.47899537 90.3568744 101.37219928 87.30859375 101.36328125 C86.19935547 101.36263672 85.09011719 101.36199219 83.94726562 101.36132812 C82.20993164 101.3371582 82.20993164 101.3371582 80.4375 101.3125 C79.27541016 101.31572266 78.11332031 101.31894531 76.91601562 101.32226562 C68.26691946 101.26691946 68.26691946 101.26691946 66 99 C65.74287514 96.39368894 65.57958041 93.86211003 65.5 91.25 C65.20470657 81.76586972 63.30176333 76.66252921 56.375 70.0625 C55.78332031 69.48048828 55.19164062 68.89847656 54.58203125 68.29882812 C51.51750312 65.31041679 48.37882382 62.44216326 45.1328125 59.65234375 C39.47741239 54.75058628 34.31272765 49.35787577 29.06640625 44.02734375 C24.80246332 39.72193622 20.47620377 35.59210597 15.87988281 31.64404297 C12.84164967 28.98696998 9.97978361 26.16390116 7.125 23.3125 C6.5578125 22.75755859 5.990625 22.20261719 5.40625 21.63085938 C0.11816445 16.36157034 0.11816445 16.36157034 -1 13 C-1 9 -1 9 0.5 7.25 C1.2425 6.63125 1.2425 6.63125 2 6 C1.34 4.02 0.68 2.04 0 0 Z M76 82 C76 84.64 76 87.28 76 90 C78.97 90 81.94 90 85 90 C85 87.03 85 84.06 85 81 C81.80097361 80.91113816 79.07322544 81.08941469 76 82 Z " fill="#E8E8E8" transform="translate(1061,348)"/>
<path d="M0 0 C6.10300214 4.93142224 11.3985299 10.52455399 16.75899315 16.23400307 C20.10292338 19.77755124 23.49413483 23.27602624 26.87855053 26.78085041 C29.83090905 29.84337701 32.76354676 32.92083816 35.65893555 36.03735352 C49.30088514 52.15328669 49.30088514 52.15328669 67.83674622 59.95951843 C70.35874422 59.9199986 72.77527606 59.71965994 75.2746582 59.39135742 C79 59 79 59 80.70956421 60.30706787 C82.61684075 62.80923788 82.37202778 64.79757526 82.36328125 67.91015625 C82.36231445 69.64168945 82.36231445 69.64168945 82.36132812 71.40820312 C82.34521484 72.61412109 82.32910156 73.82003906 82.3125 75.0625 C82.31572266 76.27228516 82.31894531 77.48207031 82.32226562 78.72851562 C82.26689925 87.73310075 82.26689925 87.73310075 80 90 C77.41796875 90.25878906 77.41796875 90.25878906 74.1875 90.265625 C73.02992187 90.26820313 71.87234375 90.27078125 70.6796875 90.2734375 C69.46539063 90.26570313 68.25109375 90.25796875 67 90.25 C65.78570313 90.25773437 64.57140625 90.26546875 63.3203125 90.2734375 C61.58394531 90.26957031 61.58394531 90.26957031 59.8125 90.265625 C58.74644531 90.26336914 57.68039062 90.26111328 56.58203125 90.25878906 C54 90 54 90 52 88 C52.15992432 86.73067627 52.31984863 85.46135254 52.48461914 84.15356445 C53.37473886 76.64252248 53.14536158 70.23945249 48.86248779 63.7723999 C42.48724642 55.77231342 34.77484929 48.85194222 27.28967285 41.91638184 C24.18325108 39.01674092 21.13455444 36.05765577 18.08007812 33.10351562 C12.10741948 27.34362489 6.07529275 21.65152562 0 16 C-3.85027991 17.78200687 -6.2799142 20.07675405 -9.25 23.125 C-10.14203125 24.03507812 -11.0340625 24.94515625 -11.953125 25.8828125 C-12.62859375 26.58148438 -13.3040625 27.28015625 -14 28 C-14.66 27.67 -15.32 27.34 -16 27 C-11.38 22.38 -6.76 17.76 -2 13 C-3.32 11.02 -4.64 9.04 -6 7 C-4.02 4.69 -2.04 2.38 0 0 Z M62 70 C62 72.97 62 75.94 62 79 C65.3 79 68.6 79 72 79 C72 76.03 72 73.06 72 70 C68.7 70 65.4 70 62 70 Z " fill="#DEDEDE" transform="translate(1061,303)"/>
<path d="M0 0 C3.24961674 1.52509089 5.47490567 4.01412944 7.9140625 6.578125 C8.42066406 7.09826172 8.92726563 7.61839844 9.44921875 8.15429688 C10.69440655 9.43472584 11.93017752 10.72430054 13.1640625 12.015625 C13.78410156 11.70496094 14.40414063 11.39429688 15.04296875 11.07421875 C19.03870536 9.08002976 19.03870536 9.08002976 21.1640625 9.015625 C23.9140625 11.453125 23.9140625 11.453125 26.1640625 14.015625 C25.8340625 14.593125 25.5040625 15.170625 25.1640625 15.765625 C23.89330352 18.21446362 23.89330352 18.21446362 24.1640625 22.015625 C24.8240625 23.005625 25.4840625 23.995625 26.1640625 25.015625 C24.1840625 24.355625 22.2040625 23.695625 20.1640625 23.015625 C16.2040625 27.305625 12.2440625 31.595625 8.1640625 36.015625 C10.6390625 38.490625 10.6390625 38.490625 13.1640625 41.015625 C13.64746094 41.74265625 14.13085938 42.4696875 14.62890625 43.21875 C17.12304306 46.68540169 19.3116949 48.71229844 23.64794922 49.42236328 C27.62896208 49.73205055 31.57754145 49.83586983 35.57006836 49.80371094 C36.98944702 49.79452637 36.98944702 49.79452637 38.4375 49.78515625 C39.29778809 49.76042236 40.15807617 49.73568848 41.04443359 49.71020508 C41.74391113 49.81099365 42.44338867 49.91178223 43.1640625 50.015625 C46.25257726 54.64839714 45.79622884 59.49256283 46.0390625 64.953125 C46.14734375 66.59958008 46.14734375 66.59958008 46.2578125 68.27929688 C46.30679687 69.33568359 46.35578125 70.39207031 46.40625 71.48046875 C46.4563623 72.445896 46.50647461 73.41132324 46.55810547 74.40600586 C46.1640625 77.015625 46.1640625 77.015625 44.49487305 79.32617188 C40.19580134 82.44228963 35.23080822 81.6293271 30.1015625 81.578125 C28.44930664 81.61389648 28.44930664 81.61389648 26.76367188 81.65039062 C25.70857422 81.64845703 24.65347656 81.64652344 23.56640625 81.64453125 C22.60210693 81.64525635 21.63780762 81.64598145 20.64428711 81.64672852 C18.1640625 81.015625 18.1640625 81.015625 16.34301758 78.72387695 C14.74056383 75.04277953 14.89309271 71.57695402 14.9140625 67.640625 C14.82633184 60.61032077 14.82633184 60.61032077 11.1015625 54.890625 C9.8142276 53.89874401 8.50023461 52.94066723 7.1640625 52.015625 C5.79951754 50.81902404 4.44540971 49.61042477 3.1015625 48.390625 C1.21669822 46.74090948 -0.65080363 45.15044648 -2.67578125 43.67578125 C-5.44257696 41.63811758 -6.73922553 40.63954557 -7.27734375 37.16796875 C-6.70331293 33.06847433 -5.3073461 31.89872373 -2.2734375 29.140625 C-1.36722656 28.2846875 -0.46101563 27.42875 0.47265625 26.546875 C1.36082031 25.7115625 2.24898437 24.87625 3.1640625 24.015625 C4.56278527 22.58002905 5.94121381 21.12408886 7.2890625 19.640625 C8.12824219 18.73183594 8.12824219 18.73183594 8.984375 17.8046875 C10.53105359 15.81622739 10.53105359 15.81622739 10.1640625 12.015625 C7.9668079 9.33262063 7.9668079 9.33262063 5.1640625 6.765625 C4.2359375 5.87359375 3.3078125 4.9815625 2.3515625 4.0625 C1.6296875 3.38703125 0.9078125 2.7115625 0.1640625 2.015625 C-0.30644531 2.42554688 -0.77695313 2.83546875 -1.26171875 3.2578125 C-2.19564453 4.06605469 -2.19564453 4.06605469 -3.1484375 4.890625 C-3.76332031 5.42429687 -4.37820313 5.95796875 -5.01171875 6.5078125 C-6.8359375 8.015625 -6.8359375 8.015625 -9.8359375 10.015625 C-8.326706 6.0916231 -4.63153805 0.03941735 0 0 Z M25.1640625 61.015625 C25.4940625 63.985625 25.8240625 66.955625 26.1640625 70.015625 C29.1340625 70.015625 32.1040625 70.015625 35.1640625 70.015625 C35.1640625 67.045625 35.1640625 64.075625 35.1640625 61.015625 C31.8640625 61.015625 28.5640625 61.015625 25.1640625 61.015625 Z " fill="#DDDDDD" transform="translate(1036.8359375,338.984375)"/>
<path d="M0 0 C1.05960938 0.00386719 2.11921875 0.00773438 3.2109375 0.01171875 C4.31695313 0.03621094 5.42296875 0.06070313 6.5625 0.0859375 C7.66851563 0.08722656 8.77453125 0.08851563 9.9140625 0.08984375 C18.14097287 0.17991941 18.14097287 0.17991941 21.5625 2.4609375 C21.67749023 4.29833984 21.67749023 4.29833984 21.37109375 6.546875 C20.79632857 13.69097304 20.29243433 20.22679591 24.57568359 26.32910156 C29.5618371 31.83975876 35.086546 36.7155467 40.85595703 41.390625 C42.5625 43.4609375 42.5625 43.4609375 42.57104492 45.95092773 C41.37366822 48.9308914 39.96979804 50.51091728 37.66796875 52.74609375 C36.87712891 53.52404297 36.08628906 54.30199219 35.27148438 55.10351562 C34.43939453 55.90208984 33.60730469 56.70066406 32.75 57.5234375 C31.92951172 58.32587891 31.10902344 59.12832031 30.26367188 59.95507812 C28.73132091 61.45263118 27.19489183 62.94603107 25.65307617 64.43383789 C23.60195112 66.42268424 21.57757462 68.43563552 19.5625 70.4609375 C17.2525 68.4809375 14.9425 66.5009375 12.5625 64.4609375 C13.90913833 58.78460123 16.57993897 55.94571062 20.6875 52.0859375 C21.25082031 51.54066406 21.81414063 50.99539062 22.39453125 50.43359375 C23.77488671 49.10003 25.16748709 47.77916071 26.5625 46.4609375 C23.97726142 40.77341262 20.2998824 35.28112951 14.5625 32.4609375 C8.32142176 31.19487972 1.89184283 31.44012306 -4.44140625 31.73461914 C-5.10011719 31.6443042 -5.75882813 31.55398926 -6.4375 31.4609375 C-9.54443214 26.80053929 -8.7660338 22.00379029 -8.75 16.5234375 C-8.76611328 15.42580078 -8.78222656 14.32816406 -8.79882812 13.19726562 C-8.79947266 12.14087891 -8.80011719 11.08449219 -8.80078125 9.99609375 C-8.80376221 9.0306665 -8.80674316 8.06523926 -8.80981445 7.07055664 C-7.99526498 1.36123253 -5.52852687 -0.04680526 0 0 Z M2.5625 12.4609375 C2.5625 15.1009375 2.5625 17.7409375 2.5625 20.4609375 C5.5325 20.4609375 8.5025 20.4609375 11.5625 20.4609375 C11.5625 17.8209375 11.5625 15.1809375 11.5625 12.4609375 C8.5925 12.4609375 5.6225 12.4609375 2.5625 12.4609375 Z " fill="#D1D1D1" transform="translate(929.4375,170.5390625)"/>
<path d="M0 0 C1.16208984 0.00322266 2.32417969 0.00644531 3.52148438 0.00976562 C4.67970703 -0.00634766 5.83792969 -0.02246094 7.03125 -0.0390625 C8.14048828 -0.03970703 9.24972656 -0.04035156 10.39257812 -0.04101562 C11.41150146 -0.04399658 12.4304248 -0.04697754 13.48022461 -0.05004883 C16.08398438 0.32226562 16.08398438 0.32226562 17.91699219 1.49145508 C19.55124618 4.05531923 19.45617886 5.95090723 19.44726562 8.97851562 C19.44629883 10.63560547 19.44629883 10.63560547 19.4453125 12.32617188 C19.42919922 13.47988281 19.41308594 14.63359375 19.39648438 15.82226562 C19.39970703 16.97597656 19.40292969 18.1296875 19.40625 19.31835938 C19.35103611 27.92168803 19.35103611 27.92168803 17.08398438 31.32226562 C15.05615234 31.64355469 15.05615234 31.64355469 12.57617188 31.58789062 C11.67568115 31.58635986 10.77519043 31.5848291 9.84741211 31.58325195 C8.89423096 31.57962646 7.9410498 31.57600098 6.95898438 31.57226562 C5.02987008 31.62040091 3.10117324 31.69150727 1.17382812 31.78710938 C-0.12373413 31.83919556 -0.12373413 31.83919556 -1.44750977 31.89233398 C-6.40588915 32.7559188 -8.910472 35.53183481 -11.91601562 39.32226562 C-13.49344648 40.94335329 -15.10683518 42.52323003 -16.72436523 44.10424805 C-19.15228393 46.4803076 -21.53187438 48.90236226 -23.91601562 51.32226562 C-28.05739592 49.94958406 -30.49382853 48.11960928 -33.56054688 45.04101562 C-34.8222168 43.77837891 -34.8222168 43.77837891 -36.109375 42.49023438 C-36.97369141 41.60980469 -37.83800781 40.729375 -38.72851562 39.82226562 C-39.61216797 38.94183594 -40.49582031 38.06140625 -41.40625 37.15429688 C-47.91601562 30.58923594 -47.91601562 30.58923594 -47.91601562 28.32226562 C-48.57601563 28.32226562 -49.23601562 28.32226562 -49.91601562 28.32226562 C-48.47474776 24.95930728 -46.71008907 22.69299461 -43.91601562 20.32226562 C-42.92601562 20.32226562 -41.93601562 20.32226562 -40.91601562 20.32226562 C-40.91601562 20.98226562 -40.91601562 21.64226562 -40.91601562 22.32226562 C-40.37460938 22.53625 -39.83320312 22.75023437 -39.27539062 22.97070312 C-36.07673593 24.80304505 -33.70637078 27.32023168 -31.16601562 29.94726562 C-30.65941406 30.46289062 -30.1528125 30.97851562 -29.63085938 31.50976562 C-28.38797661 32.77609901 -27.15136286 34.04858002 -25.91601562 35.32226562 C-22.32767145 32.32844001 -18.8495926 29.31356768 -15.60351562 25.94726562 C-12.91601562 23.32226562 -12.91601562 23.32226562 -10.91601562 23.32226562 C-10.93172607 22.38374756 -10.93172607 22.38374756 -10.94775391 21.42626953 C-10.98924754 18.59997552 -11.01532035 15.77374552 -11.04101562 12.94726562 C-11.05777344 11.96242187 -11.07453125 10.97757813 -11.09179688 9.96289062 C-11.10146484 8.55136719 -11.10146484 8.55136719 -11.11132812 7.11132812 C-11.12703857 5.80736084 -11.12703857 5.80736084 -11.14306641 4.47705078 C-10.52002858 -1.43577914 -4.53252678 0.02900395 0 0 Z M-0.91601562 11.32226562 C-0.91601562 14.29226562 -0.91601562 17.26226562 -0.91601562 20.32226562 C2.38398437 20.32226562 5.68398437 20.32226562 9.08398438 20.32226562 C9.08398438 17.35226563 9.08398438 14.38226563 9.08398438 11.32226562 C5.78398438 11.32226562 2.48398438 11.32226562 -0.91601562 11.32226562 Z " fill="#DDDDDD" transform="translate(1105.916015625,215.677734375)"/>
<path d="M0 0 C1.98 1.65 3.96 3.3 6 5 C3 5 3 5 0 3 C-0.99 4.32 -1.98 5.64 -3 7 C-2.57702637 7.39268066 -2.15405273 7.78536133 -1.71826172 8.18994141 C0.23058323 10.0004572 2.17779846 11.81271692 4.125 13.625 C4.79015625 14.24246094 5.4553125 14.85992187 6.140625 15.49609375 C7.46417123 16.72880838 8.78226975 17.96739926 10.09472656 19.21191406 C11.3309032 20.37205728 12.587341 21.51111883 13.86621094 22.62402344 C15.5546875 24.1484375 15.5546875 24.1484375 18 27 C18.08540472 30.85459961 16.61438872 32.91945129 14.0625 35.6875 C13.43472656 36.37199219 12.80695312 37.05648437 12.16015625 37.76171875 C8.96236877 41.07515858 5.69374944 44.31464692 2.41796875 47.55078125 C-0.29771815 50.30156588 -2.81777719 53.17557133 -5.3359375 56.10546875 C-8.05957921 59.20632844 -10.84286503 62.33434515 -14 65 C-14.66 65 -15.32 65 -16 65 C-14.35 66.98 -12.7 68.96 -11 71 C-13.31 73.64 -15.62 76.28 -18 79 C-21.48436647 77.25781676 -23.4959097 75.88168628 -26.25 73.25 C-26.95640625 72.59515625 -27.6628125 71.9403125 -28.390625 71.265625 C-30.59552508 68.16163944 -30.57728829 66.7682396 -30 63 C-28.15220182 60.29799234 -25.86072956 58.11508351 -23.5078125 55.8515625 C-22.8466745 55.19417084 -22.1855365 54.53677917 -21.50436401 53.85946655 C-20.10737246 52.47589831 -18.70321405 51.09953414 -17.29248047 49.72998047 C-15.12581116 47.62578777 -12.98137637 45.50083542 -10.83984375 43.37109375 C-9.48040742 42.02999112 -8.11977072 40.69010395 -6.7578125 39.3515625 C-5.78897629 38.39547592 -5.78897629 38.39547592 -4.80056763 37.42007446 C-0.234375 33 -0.234375 33 2 33 C2.77425769 31.18299307 2.77425769 31.18299307 3 29 C1.85006304 27.15935372 1.85006304 27.15935372 0.03515625 25.546875 C-0.59970703 24.928125 -1.23457031 24.309375 -1.88867188 23.671875 C-2.56478516 23.03765625 -3.24089844 22.4034375 -3.9375 21.75 C-4.60974609 21.1003125 -5.28199219 20.450625 -5.97460938 19.78125 C-7.63912593 18.17575886 -9.31415428 16.58303096 -11 15 C-14.40461742 16.91105468 -17.10688945 18.87578707 -19.8125 21.6875 C-20.41707031 22.31011719 -21.02164063 22.93273437 -21.64453125 23.57421875 C-22.31548828 24.27998047 -22.31548828 24.27998047 -23 25 C-23 22 -23 22 -21.53125 20.203125 C-20.8609375 19.55859375 -20.190625 18.9140625 -19.5 18.25 C-18.76910156 17.54488281 -18.03820312 16.83976562 -17.28515625 16.11328125 C-14.56210702 13.59504256 -11.77751956 11.1594178 -8.96484375 8.7421875 C-5.83636791 5.96823079 -2.91419887 2.99616071 0 0 Z " fill="#E0E0E0" transform="translate(977,253)"/>
<path d="M0 0 C2.5 2.3125 2.5 2.3125 5 5 C5 5.99 5 6.98 5 8 C3.36784506 9.26780819 1.71892511 10.5140699 0.0625 11.75 C-4.97304602 16.47436059 -5.62354489 20.00269766 -5.91430664 26.82519531 C-5.94353699 30.82636864 -5.89470625 34.82245801 -5.72631836 38.8203125 C-5.8166333 39.53960937 -5.90694824 40.25890625 -6 41 C-10.67245375 44.11496916 -15.50585754 43.32850857 -21 43.3125 C-22.65902344 43.33666992 -22.65902344 43.33666992 -24.3515625 43.36132812 C-25.41117188 43.36197266 -26.47078125 43.36261719 -27.5625 43.36328125 C-29.01849609 43.36775269 -29.01849609 43.36775269 -30.50390625 43.37231445 C-33 43 -33 43 -34.81713867 41.83081055 C-36.47291227 39.26803527 -36.37222406 37.38140367 -36.36328125 34.34375 C-36.36263672 33.23902344 -36.36199219 32.13429688 -36.36132812 30.99609375 C-36.34521484 29.84238281 -36.32910156 28.68867188 -36.3125 27.5 C-36.31572266 26.34628906 -36.31894531 25.19257813 -36.32226562 24.00390625 C-36.26705173 15.4005776 -36.26705173 15.4005776 -34 12 C-31.94384766 11.84985352 -31.94384766 11.84985352 -29.4140625 12.12890625 C-18.04595647 13.4468232 -18.04595647 13.4468232 -7.875 9.33984375 C-4.88001703 6.49242849 -2.37881198 3.37249294 0 0 Z M-26 23 C-26 25.97 -26 28.94 -26 32 C-22.7 32 -19.4 32 -16 32 C-16 29.03 -16 26.06 -16 23 C-19.3 23 -22.6 23 -26 23 Z " fill="#CACACA" transform="translate(914,333)"/>
<path d="M0 0 C2.3733375 0.97402868 3.54069527 2.07706712 5.27734375 3.95703125 C7.64187584 6.4971474 10.11670529 8.78871622 12.75 11.04296875 C15.69269841 13.59158609 18.44649132 16.23332594 21.1328125 19.05078125 C21.80634766 19.75460937 22.47988281 20.4584375 23.17382812 21.18359375 C24.5556979 22.63819351 25.92786242 24.10206459 27.29101562 25.57421875 C27.96068359 26.26773437 28.63035156 26.96125 29.3203125 27.67578125 C29.91352295 28.30677734 30.5067334 28.93777344 31.11791992 29.58789062 C33.00279456 31.08300828 33.00279456 31.08300828 35.56445312 30.69946289 C38.10631329 29.80421813 39.29740032 29.03362054 41.140625 27.109375 C41.66591797 26.57119141 42.19121094 26.03300781 42.73242188 25.47851562 C43.26287109 24.91455078 43.79332031 24.35058594 44.33984375 23.76953125 C44.88962891 23.20169922 45.43941406 22.63386719 46.00585938 22.04882812 C47.3556174 20.652122 48.692759 19.24324288 50.02734375 17.83203125 C52.00734375 19.48203125 53.98734375 21.13203125 56.02734375 22.83203125 C53.6641227 28.2711298 49.2718707 31.99599355 45.15234375 36.14453125 C44.33636719 36.99337891 43.52039063 37.84222656 42.6796875 38.71679688 C41.88949219 39.51408203 41.09929688 40.31136719 40.28515625 41.1328125 C39.56473145 41.86669189 38.84430664 42.60057129 38.10205078 43.35668945 C36.02734375 44.83203125 36.02734375 44.83203125 33.93920898 44.70922852 C30.77687456 43.25829408 28.44817029 40.8368705 25.96484375 38.45703125 C25.39773682 37.92480957 24.83062988 37.39258789 24.24633789 36.84423828 C19.49421653 32.3566024 14.90245852 27.71748868 10.3671875 23.01171875 C8.25015902 21.03959539 6.59460662 20.05039329 4.02734375 18.83203125 C2.77423009 17.35399975 1.52367269 15.87262729 0.328125 14.34765625 C-1.08648801 12.59602885 -1.08648801 12.59602885 -3.72265625 10.70703125 C-5.97265625 8.83203125 -5.97265625 8.83203125 -7.09765625 6.89453125 C-6.97265625 4.83203125 -6.97265625 4.83203125 -4.78515625 2.01953125 C-1.97265625 -0.16796875 -1.97265625 -0.16796875 0 0 Z " fill="#D1D1D1" transform="translate(978.97265625,241.16796875)"/>
<path d="M0 0 C-1.37154504 2.95409701 -2.98863724 5.44008376 -5 8 C-3.68 9.65 -2.36 11.3 -1 13 C-1.64400757 13.60473145 -1.64400757 13.60473145 -2.30102539 14.22167969 C-4.23445139 16.05132755 -6.14841056 17.90014175 -8.0625 19.75 C-8.73861328 20.38421875 -9.41472656 21.0184375 -10.11132812 21.671875 C-10.74619141 22.290625 -11.38105469 22.909375 -12.03515625 23.546875 C-12.6269165 24.11245117 -13.21867676 24.67802734 -13.82836914 25.26074219 C-15.20890127 26.9293475 -15.20890127 26.9293475 -14.8762207 29.00878906 C-13.86729314 31.30157625 -12.74948399 32.57917159 -10.9453125 34.3125 C-10.33042969 34.91320312 -9.71554687 35.51390625 -9.08203125 36.1328125 C-8.43621094 36.74898438 -7.79039063 37.36515625 -7.125 38 C0.62956919 45.48825065 0.62956919 45.48825065 3 49 C2.505 49.99 2.505 49.99 2 51 C1.2575 50.154375 0.515 49.30875 -0.25 48.4375 C-2.64518233 45.75333247 -2.64518233 45.75333247 -5.0625 46.0625 C-7.0505585 47.02446379 -9.02544503 48.01066996 -11 49 C-11.81984375 48.12214844 -12.6396875 47.24429688 -13.484375 46.33984375 C-14.57224397 45.20508388 -15.66082277 44.07100421 -16.75 42.9375 C-17.28882813 42.35677734 -17.82765625 41.77605469 -18.3828125 41.17773438 C-20.14729997 39.30292995 -20.14729997 39.30292995 -23 37 C-27.08703495 37.42346655 -28.65958135 39.49717126 -31.25 42.5625 C-31.95640625 43.38878906 -32.6628125 44.21507812 -33.390625 45.06640625 C-33.92171875 45.70449219 -34.4528125 46.34257812 -35 47 C-39.51871658 42.82887701 -39.51871658 42.82887701 -41.125 40.0625 C-40.90435878 36.4219198 -38.44857081 34.50422014 -36 32 C-35.01 31.67 -34.02 31.34 -33 31 C-32.67 30.01 -32.34 29.02 -32 28 C-30.35360035 26.64172029 -28.68704193 25.30745749 -27 24 C-26.67 23.34 -26.34 22.68 -26 22 C-25.38253906 21.69964844 -24.76507812 21.39929688 -24.12890625 21.08984375 C-21.73522312 19.86445367 -20.62606192 18.63973346 -18.9375 16.5625 C-15.8374862 12.89639672 -12.57827703 9.45660513 -9.1875 6.0625 C-8.46711548 5.3355896 -8.46711548 5.3355896 -7.73217773 4.59399414 C-3.12019038 0 -3.12019038 0 0 0 Z " fill="#CDCDCD" transform="translate(1061,303)"/>
<path d="M0 0 C1.98 1.65 3.96 3.3 6 5 C3.63677895 10.43909855 -0.75547305 14.1639623 -4.875 18.3125 C-5.69097656 19.16134766 -6.50695312 20.01019531 -7.34765625 20.88476562 C-8.13785156 21.68205078 -8.92804687 22.47933594 -9.7421875 23.30078125 C-10.4626123 24.03466064 -11.18303711 24.76854004 -11.92529297 25.5246582 C-14 27 -14 27 -16.15283203 26.81323242 C-18.38045641 25.83250062 -19.59337603 24.99888669 -21 23 C-20.60186526 19.42188573 -19.15232715 17.84310509 -16.54296875 15.46875 C-15.84236328 14.82292969 -15.14175781 14.17710937 -14.41992188 13.51171875 C-13.68322266 12.84785156 -12.94652344 12.18398438 -12.1875 11.5 C-10.7430687 10.17754289 -9.29904606 8.85463926 -7.85546875 7.53125 C-6.84492432 6.61085938 -6.84492432 6.61085938 -5.81396484 5.671875 C-3.8201387 3.83422743 -1.8898531 1.94441579 0 0 Z " fill="#AEAEAE" transform="translate(1029,259)"/>
<path d="M0 0 C0 0.66 0 1.32 0 2 C0.5775 2.20625 1.155 2.4125 1.75 2.625 C4.82208711 4.50238657 6.03571848 6.99580473 8 10 C10.77491493 13.10439032 13.52934909 15.68623272 17 18 C14.69 19.98 12.38 21.96 10 24 C6.3089871 20.8218822 2.65722057 17.6721574 -0.75 14.1875 C-2.79381515 12.20045749 -4.3845112 11.06556951 -7 10 C-7 9.34 -7 8.68 -7 8 C-7.66 8 -8.32 8 -9 8 C-7.13554727 3.64961029 -5.02378599 0 0 0 Z " fill="#C9C9C9" transform="translate(1065,236)"/>
<path d="M0 0 C6.23597189 1.15480961 10.32527246 5.02555429 14.625 9.4375 C15.10195312 9.91509766 15.57890625 10.39269531 16.0703125 10.88476562 C18.60499543 13.4511321 20.92201904 16.05038273 23 19 C22.67 19.66 22.34 20.32 22 21 C21.2575 20.154375 20.515 19.30875 19.75 18.4375 C17.35481767 15.75333247 17.35481767 15.75333247 14.9375 16.0625 C12.9494415 17.02446379 10.97455497 18.01066996 9 19 C6.82722286 16.88094537 4.66173092 14.75527122 2.5 12.625 C1.87996094 12.02171875 1.25992187 11.4184375 0.62109375 10.796875 C0.03457031 10.21679688 -0.55195312 9.63671875 -1.15625 9.0390625 C-1.70087891 8.50490723 -2.24550781 7.97075195 -2.80664062 7.42041016 C-4 6 -4 6 -4 4 C-3.34 4 -2.68 4 -2 4 C-1.34 2.68 -0.68 1.36 0 0 Z " fill="#BDBDBD" transform="translate(1041,333)"/>
<path d="M0 0 C3.70617366 1.5512408 6.05427517 3.81243707 8.87280273 6.64575195 C9.57851913 7.35103027 9.57851913 7.35103027 10.29849243 8.07055664 C11.84831587 9.62176999 13.39093522 11.17994505 14.93359375 12.73828125 C16.01405221 13.82247396 17.09495613 14.90622291 18.17628479 15.98954773 C21.02121887 18.84210996 23.86010274 21.70062008 26.69775391 24.5604248 C29.57421234 27.45726791 32.45626238 30.34853549 35.33789062 33.24023438 C40.4182212 38.33969083 45.49359851 43.44403163 50.56541443 48.55195618 C52.25963985 50.25554718 53.95685775 51.9561652 55.65638733 53.65446472 C57.28103092 55.28044111 58.89487775 56.91724969 60.5 58.5625 C62.92763704 61.00896893 62.92763704 61.00896893 65.5 63 C69.08139161 65.86511329 72.17740978 68.94605628 75 72.5625 C77.11878607 75.14477053 79.37202922 76.94890086 82 79 C84.8125 81.5625 84.8125 81.5625 87 84 C87 84.99 87 85.98 87 87 C76.78298405 77.87279287 67.09991442 68.24665727 57.421875 58.5546875 C55.75765305 56.89114042 54.09328278 55.2277417 52.42877197 53.56448364 C48.96798004 50.10515557 45.50897751 46.64405112 42.05126953 43.18164062 C37.60917991 38.73380511 33.16254914 34.29054061 28.71461105 29.84855461 C25.29004796 26.42759091 21.86785247 23.00426679 18.44638824 19.58020401 C16.80597666 17.93912396 15.16481811 16.29879023 13.52291107 14.65920639 C11.24429949 12.38311637 8.96888684 10.10387741 6.69433594 7.82373047 C6.01188309 7.14330185 5.32943024 6.46287323 4.626297 5.76182556 C4.01257736 5.1452861 3.39885773 4.52874664 2.76654053 3.89352417 C2.22905056 3.35565718 1.69156059 2.81779018 1.13778305 2.26362419 C0 1 0 1 0 0 Z " fill="#F3F3F3" transform="translate(869,171)"/>
<path d="M0 0 C3.27921974 1.43084108 5.40836669 3.18400802 7.8984375 5.73828125 C8.62546875 6.47626953 9.3525 7.21425781 10.1015625 7.97460938 C11.22691406 9.13186523 11.22691406 9.13186523 12.375 10.3125 C19.27727495 17.62526611 19.27727495 17.62526611 27 24 C30.95017194 23.75752635 32.87487136 21.47225962 35.546875 18.74609375 C36.39121094 17.89208984 37.23554687 17.03808594 38.10546875 16.15820312 C38.97816406 15.26037109 39.85085938 14.36253906 40.75 13.4375 C41.63816406 12.53580078 42.52632812 11.63410156 43.44140625 10.70507812 C45.63448315 8.47662902 47.82026044 6.24148407 50 4 C50.66 4.66 51.32 5.32 52 6 C51.57332031 6.35449219 51.14664062 6.70898438 50.70703125 7.07421875 C47.23642796 10.02959846 43.90221944 13.06521664 40.71484375 16.32421875 C40.14338623 16.90792236 39.57192871 17.49162598 38.9831543 18.09301758 C37.83852194 19.26989764 36.70049644 20.45324412 35.56958008 21.64331055 C30.62599599 26.72427864 30.62599599 26.72427864 27 27 C25.2109375 25.91357422 25.2109375 25.91357422 23.375 24.1796875 C22.33279297 23.20660645 22.33279297 23.20660645 21.26953125 22.21386719 C20.52058594 21.48329102 19.77164063 20.75271484 19 20 C17.79923828 18.83839355 17.79923828 18.83839355 16.57421875 17.65332031 C14.02957651 15.16309305 11.51177509 12.64835009 9 10.125 C8.12988281 9.25875 7.25976562 8.3925 6.36328125 7.5 C5.54214844 6.67757813 4.72101562 5.85515625 3.875 5.0078125 C3.12992188 4.26160645 2.38484375 3.51540039 1.6171875 2.74658203 C0 1 0 1 0 0 Z " fill="#EDEDED" transform="translate(985,261)"/>
<path d="M0 0 C4.6954672 1.89624637 7.98730325 5.57199593 11.578125 9.01171875 C14.24691109 11.52549959 16.63532297 13.52984832 20 15 C21.75 16.625 21.75 16.625 23 18 C22.67 18.99 22.34 19.98 22 21 C16.72426767 16.49432798 11.59697854 11.83064715 6.5 7.125 C5.86433105 6.54145752 5.22866211 5.95791504 4.57373047 5.35668945 C3.0294854 3.92539176 1.51201941 2.46529971 0 1 C0 0.67 0 0.34 0 0 Z " fill="#F3F3F3" transform="translate(1002,330)"/>
<path d="M0 0 C-0.763125 0.7425 -1.52625 1.485 -2.3125 2.25 C-4.4393702 4.4263323 -6.2559956 6.52167796 -8 9 C-8.33 8.34 -8.66 7.68 -9 7 C-12.96 10.96 -16.92 14.92 -21 19 C-21 14.58063987 -18.55212864 13.09953251 -15.55664062 10.04882812 C-14.81607422 9.31083984 -14.07550781 8.57285156 -13.3125 7.8125 C-12.59126953 7.06291016 -11.87003906 6.31332031 -11.12695312 5.54101562 C-10.06831055 4.47850586 -10.06831055 4.47850586 -8.98828125 3.39453125 C-8.34415283 2.74331299 -7.70002441 2.09209473 -7.03637695 1.42114258 C-4.52249072 -0.3332432 -3.00174797 -0.28295032 0 0 Z " fill="#F5F5F5" transform="translate(923,327)"/>
<path d="M0 0 C3.67689304 1.5278414 5.90198808 3.75627506 8.625 6.625 C10.04510127 8.12058838 11.49594968 9.58886398 13 11 C13.66 11 14.32 11 15 11 C16.32 13.31 17.64 15.62 19 18 C15.86421688 16.60982588 13.73988136 14.98666305 11.328125 12.55859375 C10.66425781 11.89279297 10.00039062 11.22699219 9.31640625 10.54101562 C8.63449219 9.84685547 7.95257812 9.15269531 7.25 8.4375 C6.55261719 7.73947266 5.85523438 7.04144531 5.13671875 6.32226562 C0 1.14031158 0 1.14031158 0 0 Z " fill="#E4E4E4" transform="translate(1060,247)"/>
<path d="M0 0 C8.25 0 16.5 0 25 0 C25 0.33 25 0.66 25 1 C24.34926514 1.01981934 23.69853027 1.03963867 23.02807617 1.06005859 C20.08080849 1.15529299 17.13425115 1.26497818 14.1875 1.375 C13.16333984 1.4059375 12.13917969 1.436875 11.08398438 1.46875 C9.60961914 1.52675781 9.60961914 1.52675781 8.10546875 1.5859375 C6.74651489 1.63306885 6.74651489 1.63306885 5.36010742 1.68115234 C2.73474608 1.86027919 2.73474608 1.86027919 0 4 C0 2.68 0 1.36 0 0 Z " fill="#B8B8B8" transform="translate(847,141)"/>
<path d="M0 0 C3.48749314 2.78999451 6.50157221 5.25235831 9 9 C8.67 9.66 8.34 10.32 8 11 C7.236875 10.21625 6.47375 9.4325 5.6875 8.625 C3.09108195 5.92742283 3.09108195 5.92742283 0 4 C0 2.68 0 1.36 0 0 Z " fill="#CBCBCB" transform="translate(1055,343)"/>
<path d="M0 0 C1.75 0.0625 1.75 0.0625 4 1 C5.59501537 3.24164322 6.74543018 5.53566643 8 8 C4.63820226 6.55922954 2.40843732 4.75249979 0 2 C0 1.34 0 0.68 0 0 Z " fill="#F0F0F0" transform="translate(1071,257)"/>
</svg>
